<?xml version="1.0" encoding="UTF-8"?>
<svg version="1.1" xmlns="http://www.w3.org/2000/svg" width="512" height="512">
<path d="M0 0 C5.05783515 5.23014617 8.34624021 11.46868523 11.90063477 17.7487793 C19.97556877 31.69667196 31.86917534 41.03537788 45.51171875 49.265625 C47.36126307 50.39878368 49.21020135 51.53293204 51.05859375 52.66796875 C52.00541016 53.24788574 52.95222656 53.82780273 53.92773438 54.42529297 C80.79336715 70.91513938 80.79336715 70.91513938 92.82421875 81.203125 C93.52417969 81.80125 94.22414062 82.399375 94.9453125 83.015625 C106.85575689 94.05069152 110.78052471 106.92527568 112.94921875 122.453125 C113.11808594 123.59136719 113.28695312 124.72960937 113.4609375 125.90234375 C124.08057506 199.57085316 113.5619317 304.80364947 71.13671875 368.203125 C65.12910845 375.95713364 56.70158698 382.4335051 46.82421875 384.203125 C34.21812639 385.12736975 23.15000952 383.77529715 13.22265625 375.37109375 C12.43117187 374.65566406 11.6396875 373.94023437 10.82421875 373.203125 C10.3437207 372.77467285 9.86322266 372.3462207 9.36816406 371.90478516 C-0.62013696 362.97754664 -10.54370917 353.70978245 -19.2265625 343.4921875 C-20.80883342 341.63404971 -22.41167766 339.8019195 -24.03125 337.9765625 C-31.62783208 329.37853902 -38.71896897 320.49169542 -45.59375 311.30859375 C-47.13001136 309.2640385 -48.68152929 307.23210506 -50.23828125 305.203125 C-57.66322788 295.48783642 -64.55603914 285.48252777 -71.17578125 275.203125 C-71.69253418 274.40310059 -72.20928711 273.60307617 -72.74169922 272.77880859 C-101.23897014 228.40586504 -130.05596851 173.03158105 -130.37890625 118.9609375 C-130.38460632 118.19369354 -130.3903064 117.42644958 -130.3961792 116.63595581 C-130.4055685 115.01740875 -130.41213881 113.39884309 -130.41601562 111.78027344 C-130.42561936 109.36877564 -130.45665771 106.95816989 -130.48828125 104.546875 C-130.70118149 73.1552268 -121.83517634 38.94846473 -99.72363281 15.74365234 C-77.14371528 -6.72942015 -27.37864514 -22.61073028 0 0 Z M-40.05078125 3.484375 C-61.78859811 5.38571472 -80.90910747 13.85253753 -95.19921875 30.5703125 C-103.60286717 41.86390337 -109.63173022 55.65788125 -113.17578125 69.203125 C-113.37187988 69.9461084 -113.56797852 70.6890918 -113.77001953 71.45458984 C-120.04892322 96.53426649 -118.88891482 124.14420387 -113.17578125 149.203125 C-112.9938623 150.02200195 -112.81194336 150.84087891 -112.62451172 151.68457031 C-102.01117898 198.3301203 -78.34014865 242.20594343 -51.17578125 281.203125 C-50.74072266 281.82960938 -50.30566406 282.45609375 -49.85742188 283.1015625 C-37.84047601 300.33615355 -24.91280348 317.1923308 -10.58984375 332.578125 C-8.66212808 334.67428185 -6.79313338 336.79750747 -4.93359375 338.953125 C12.26965184 359.92250447 12.26965184 359.92250447 35.5859375 371.57421875 C42.97539072 371.74193665 48.85475871 370.77304656 54.82421875 366.203125 C60.13217007 361.01180649 63.62811579 355.48229111 66.69921875 348.765625 C67.11993652 347.86021973 67.5406543 346.95481445 67.97412109 346.02197266 C83.73275862 311.32226763 92.86133069 273.69757991 98.63671875 236.140625 C98.92905396 234.25512939 98.92905396 234.25512939 99.22729492 232.33154297 C102.08697096 212.77382907 103.20565154 193.26914003 103.13671875 173.515625 C103.13556061 172.47739594 103.13440247 171.43916687 103.13320923 170.36947632 C103.91308807 128.66336725 103.91308807 128.66336725 85.94921875 92.765625 C75.24240053 82.66451696 62.37821925 75.23935915 49.82421875 67.703125 C27.8978998 54.53714803 11.20871982 42.24067272 -2.046875 20.07421875 C-6.91917678 12.0984018 -10.74382036 6.90522535 -19.98828125 4.328125 C-26.91031632 2.88389793 -33.03446653 2.97512635 -40.05078125 3.484375 Z " fill="#000000" transform="translate(135.17578125,69.796875)"/>
<path d="M0 0 C18.71038833 13.18555525 30.94728314 38.47697676 42 58 C42.48694336 58.85883789 42.97388672 59.71767578 43.47558594 60.60253906 C74.88061849 116.37866944 102.86945517 183.81095092 103.203125 248.6796875 C103.20882507 249.57253448 103.21452515 250.46538147 103.22039795 251.38528442 C103.22977849 253.2659591 103.23635399 255.14664969 103.24023438 257.02734375 C103.24985818 259.83364453 103.28091503 262.63918532 103.3125 265.4453125 C103.40640975 281.35339702 101.98067847 297.13766878 97.375 312.4375 C97.12339111 313.29037598 96.87178223 314.14325195 96.61254883 315.02197266 C90.40124925 335.2526398 81.19959701 354.1811507 67 370 C66.32710937 370.76699219 65.65421875 371.53398437 64.9609375 372.32421875 C51.78283536 386.46476656 33.14600783 395.89955267 13.77612305 397.21972656 C-5.88917527 397.87953357 -28.21583735 398.36958994 -44.296875 385.10546875 C-50.22786299 379.09644144 -53.06322195 371.7851755 -56 364 C-62.18647499 347.63187862 -70.02384408 334.5413756 -83.578125 323.1015625 C-87.61102564 319.6020455 -91.46980964 315.91495141 -95.36083984 312.25927734 C-98.94035794 308.90275439 -102.55732286 305.60756721 -106.25 302.375 C-119.78815908 290.18392143 -134.0140491 274.35242502 -136.44482422 255.5612793 C-136.59880151 251.96401631 -136.5904818 248.41182338 -136.5 244.8125 C-136.48155029 243.51022461 -136.46310059 242.20794922 -136.4440918 240.86621094 C-134.95132592 162.32844719 -101.99466907 62.26655858 -47.875 4.3125 C-35.4375482 -7.44843768 -14.36773831 -8.92445419 0 0 Z M-39 14 C-91.36765397 72.20404899 -126.35080613 173.59425793 -123.62890625 251.06640625 C-122.98017462 259.61639123 -120.04507456 266.1644841 -115 273 C-114.58250488 273.5681543 -114.16500977 274.13630859 -113.73486328 274.72167969 C-110.71964499 278.70327032 -107.44535025 282.38799411 -104 286 C-103.49355957 286.53141602 -102.98711914 287.06283203 -102.46533203 287.61035156 C-97.23325219 293.04777206 -91.8411419 298.27574971 -86.10546875 303.18359375 C-81.29299226 307.33535918 -76.6395647 311.65737859 -72 316 C-71.17628906 316.76256104 -71.17628906 316.76256104 -70.3359375 317.54052734 C-57.10741633 329.86535593 -49.79530063 342.4207988 -43.44848633 359.29394531 C-40.09556176 368.17529826 -36.80385109 375.49658914 -28 380 C-6.15010576 387.12496551 16.96386732 386.85082688 37.73828125 376.65625 C62.85045226 362.59655861 76.91890339 335.23974784 84.75 308.59375 C88.16061361 296.40131692 90.12694175 284.09249265 90.203125 271.43359375 C90.21013931 270.6456694 90.21715363 269.85774506 90.22438049 269.04594421 C90.24180756 266.50973731 90.24823559 263.97376464 90.25 261.4375 C90.25067474 260.56695984 90.25134949 259.69641968 90.25204468 258.79949951 C90.23467004 244.65978932 89.48133548 230.94530079 87 217 C86.75056641 215.53095215 86.75056641 215.53095215 86.49609375 214.03222656 C75.09785724 147.98577832 45.60610951 78.11774286 5.0625 24.4375 C4.56758057 23.7777417 4.07266113 23.1179834 3.56274414 22.43823242 C-2.27972459 14.94262056 -8.28645934 9.14270813 -17.75 7.25 C-25.63069262 6.45008007 -33.07414318 8.75169124 -39 14 Z " fill="#000000" transform="translate(404,60)"/>
<path d="M0 0 C3.375 0.9375 3.375 0.9375 5.375 3.9375 C9.97388419 26.01214411 2.35516726 49.67000626 -9.48583984 68.23535156 C-12.88797808 73.31887231 -16.05606472 77.94944797 -21.875 80.1875 C-24.625 79.9375 -24.625 79.9375 -27 78.9375 C-29.46759539 75.90045952 -29.01654276 73.76591806 -28.625 69.9375 C-27.1796574 67.54119758 -25.80945837 65.57945828 -24.0625 63.4375 C-12.10080564 47.72782223 -6.98377141 30.04093042 -7.92773438 10.34570312 C-8.05893073 4.55848621 -8.05893073 4.55848621 -5.83984375 1.3828125 C-3.625 -0.0625 -3.625 -0.0625 0 0 Z " fill="#000000" transform="translate(458.625,327.0625)"/>
<path d="M0 0 C2.74061002 2.19746404 3.49250108 3.99086893 4.17578125 7.39453125 C4.45264771 8.69366455 4.45264771 8.69366455 4.73510742 10.01904297 C4.92564697 10.94088379 5.11618652 11.86272461 5.3125 12.8125 C8.26919623 25.960576 12.58083981 36.9811297 20.83666992 47.76513672 C23.20225864 51.01068307 24.00178642 52.75066664 23.97265625 56.81640625 C23 60 23 60 20 62 C15.88501747 61.92458222 13.729755 61.65401437 10.62890625 58.875 C-0.26792738 43.71418799 -11.4227611 22.20727485 -10 3 C-7.11067924 -0.93998286 -4.57005162 -1.33757608 0 0 Z " fill="#000000" transform="translate(52,206)"/>
<path d="M0 0 C3.52993279 1.02956373 4.20932446 1.73730883 6 4.875 C6.21484375 7.56640625 6.21484375 7.56640625 5.9375 10.4375 C5.86402344 11.38753906 5.79054688 12.33757812 5.71484375 13.31640625 C5 15.875 5 15.875 3.16796875 17.72265625 C-0.13738322 19.47955505 -2.46704863 18.79095035 -6 17.875 C-8.48709896 14.14435156 -8.29991053 12.29868032 -8 7.875 C-6.77231914 2.86983958 -5.76827733 -0.24034489 0 0 Z " fill="#000000" transform="translate(49,178.125)"/>
</svg>
