<?xml version="1.0" encoding="UTF-8"?>
<svg version="1.1" xmlns="http://www.w3.org/2000/svg" width="512" height="512">
<path d="M0 0 C5.10055527 4.50655611 6.60711712 11.48189307 8.75 17.75 C9.16121094 18.89210938 9.57242187 20.03421875 9.99609375 21.2109375 C12.22653646 27.65773204 14.006005 33.17547957 13 40 C9.71608992 43.17634733 6.53897643 44.78337879 2.24536133 46.23901367 C1.1083931 46.63009811 -0.02857513 47.02118256 -1.19999695 47.42411804 C-2.42692764 47.83458878 -3.65385834 48.24505951 -4.91796875 48.66796875 C-6.21648204 49.11060568 -7.51467865 49.55417256 -8.81257629 49.99861145 C-12.24040475 51.16971835 -15.67223207 52.32863328 -19.10510254 53.48486328 C-22.49753568 54.62952857 -25.88638726 55.78468101 -29.27539062 56.93945312 C-33.2743912 58.30158912 -37.27383247 59.6623394 -41.27584839 61.01559448 C-47.75542129 63.20759535 -54.22707036 65.41884111 -60.68212891 67.68212891 C-61.88444656 68.10279129 -63.08676422 68.52345367 -64.32551575 68.9568634 C-66.58855657 69.75060444 -68.85026029 70.54817142 -71.11039734 71.35014343 C-72.10948624 71.70035049 -73.10857513 72.05055756 -74.13793945 72.41137695 C-75.00900833 72.71960892 -75.88007721 73.02784088 -76.77754211 73.34541321 C-79 74 -79 74 -82 74 C-82 94.13 -82 114.26 -82 135 C-72.21601563 134.93039063 -72.21601563 134.93039063 -62.234375 134.859375 C-58.10545286 134.83894008 -53.97659296 134.81968456 -49.84765625 134.8046875 C-43.29202345 134.78076354 -36.73661384 134.75244276 -30.18115234 134.69824219 C-24.8967672 134.65482363 -19.61262133 134.63087108 -14.32807159 134.62049103 C-12.31059247 134.61309251 -10.29312664 134.59864513 -8.27574921 134.57707977 C-5.45274924 134.54809899 -2.63074165 134.54404178 0.19238281 134.54589844 C1.02891891 134.53151733 1.86545502 134.51713623 2.7273407 134.50231934 C6.30407147 134.52782187 8.51443367 134.64587866 11.44750977 136.78495789 C12.88961746 138.84250982 13.84684924 140.52556386 14.64746094 142.89477539 C14.90742859 143.64557877 15.16739624 144.39638214 15.4352417 145.16993713 C15.69895569 145.97108444 15.96266968 146.77223175 16.234375 147.59765625 C16.51726379 148.42833115 16.80015259 149.25900604 17.09161377 150.11485291 C17.6852794 151.86546737 18.27328284 153.61801098 18.85595703 155.37231445 C19.74936943 158.0606026 20.66021724 160.74247871 21.57421875 163.42382812 C22.14946485 165.12725758 22.72371806 166.83102272 23.296875 168.53515625 C23.56868591 169.33832779 23.84049683 170.14149933 24.12054443 170.9690094 C25.1514873 174.0850701 26 176.69509981 26 180 C27.0621875 179.95359375 28.124375 179.9071875 29.21875 179.859375 C44.44164046 179.38602194 44.44164046 179.38602194 50 184 C54.60939827 188.38100466 57.6240994 192.58629801 58.3359375 199.05078125 C58.43149896 207.03016343 57.9577428 212.80779376 52.3515625 218.74609375 C46.79470471 223.80550357 42.27135493 225.2667543 34.6875 225.125 C33.43324219 225.10695312 32.17898438 225.08890625 30.88671875 225.0703125 C29.93410156 225.04710937 28.98148437 225.02390625 28 225 C27.90914438 225.9237143 27.81828876 226.84742861 27.72467995 227.79913425 C24.69518561 258.54651375 21.46835819 289.27213816 18.2109375 319.99609375 C17.93855197 322.56653274 17.6661789 325.13697304 17.3938179 327.70741463 C16.26229358 338.38489072 15.13022968 349.0623092 13.9963131 359.73953152 C13.70652085 362.46836221 13.41673222 365.1971933 13.12695312 367.92602539 C13.05497438 368.60383901 12.98299564 369.28165262 12.90883572 369.98000605 C11.73325713 381.0514061 10.56207886 392.12326722 9.39262836 403.19531607 C8.18272107 414.64971288 6.96884048 426.1036823 5.75131953 437.55727249 C5.07138075 443.95458328 4.39313216 450.35206235 3.71909714 456.74999809 C3.08826645 462.73695965 2.45254992 468.72338234 1.81307793 474.70942688 C1.57989851 476.90017925 1.34847634 479.09111949 1.11896324 481.28225899 C0.80498633 484.27715936 0.48461997 487.27131127 0.16268921 490.2653656 C0.07396966 491.12623809 -0.01474988 491.98711058 -0.1061579 492.87407011 C-1.68216329 507.31511238 -1.68216329 507.31511238 -4.35403889 510.73117304 C-7.14635332 512.88369282 -10.46717171 512.41447413 -13.85069275 512.38768005 C-14.65897713 512.39306559 -15.46726151 512.39845113 -16.30003935 512.40399987 C-19.01780651 512.41834679 -21.73509122 512.41115925 -24.45288086 512.40405273 C-26.39755141 512.40975279 -28.34221861 512.41671563 -30.28688049 512.42485046 C-35.57610693 512.44283739 -40.86516797 512.44160309 -46.15441585 512.43590808 C-50.56565922 512.43282417 -54.97687046 512.43889978 -59.38810927 512.44494683 C-69.79253933 512.45900867 -80.19688732 512.45741701 -90.60131836 512.44604492 C-101.34468369 512.43456205 -112.08779944 512.44863852 -122.83113188 512.4754414 C-132.04648315 512.4975737 -141.26175593 512.50424135 -150.4771319 512.49836498 C-155.98480964 512.49498829 -161.49232737 512.49745768 -166.99998283 512.51461601 C-172.17843827 512.5300437 -177.35652304 512.52617609 -182.53496361 512.50731087 C-184.43771543 512.50361337 -186.34049446 512.50676705 -188.24322128 512.51719666 C-190.83668718 512.53032925 -193.42891192 512.51892856 -196.02232361 512.50120544 C-196.77903365 512.51081045 -197.53574368 512.52041546 -198.31538433 512.53031152 C-201.73751708 512.48204402 -203.66145299 512.25020822 -206.44763851 510.19103622 C-208.69699976 507.01623962 -208.92399138 503.80953684 -209.27001953 500.03833008 C-209.35910709 499.22303959 -209.44819466 498.4077491 -209.53998184 497.56775284 C-209.83771473 494.80317971 -210.10996809 492.03666374 -210.3828125 489.26953125 C-210.59540961 487.24824277 -210.80962231 485.22712369 -211.02529907 483.2061615 C-211.49509491 478.77146451 -211.95357134 474.33578529 -212.40368652 469.89904785 C-213.13158746 462.72485793 -213.88286378 455.55323559 -214.63769531 448.38183594 C-215.47398841 440.42317727 -216.3078982 432.46429346 -217.13317871 424.50448608 C-219.53530226 401.34313678 -221.99789523 378.18847976 -224.47706175 355.03525901 C-224.99520407 350.19567977 -225.51292233 345.35605517 -226.03067017 340.51643372 C-226.23774516 338.58090418 -226.44482155 336.64537478 -226.65189934 334.70984554 C-226.75438917 333.75187726 -226.856879 332.79390898 -226.96247458 331.80691135 C-227.27275003 328.90689106 -227.58305946 326.00687441 -227.89337349 323.10685825 C-229.81735083 305.12561911 -231.74010214 287.14424986 -233.65367663 269.16190022 C-234.11223336 264.85283337 -234.57132361 260.54382514 -235.03184891 256.23496819 C-235.45725518 252.25460525 -235.88120442 248.27408998 -236.30397201 244.29344594 C-236.45837622 242.84204532 -236.61331676 241.39070164 -236.76882958 239.93941939 C-236.97980991 237.96967647 -237.1886649 235.99970624 -237.3973999 234.02972412 C-237.51455227 232.93039425 -237.63170464 231.83106438 -237.75240707 230.69842148 C-238 228 -238 228 -238 225 C-238.9178125 225.04640625 -239.835625 225.0928125 -240.78125 225.140625 C-254.31028779 225.53853788 -254.31028779 225.53853788 -260 221 C-265.80799203 215.38734403 -268.29643597 210.94830962 -268.4375 202.75 C-268.43203451 195.18029312 -266.76797726 190.82716015 -261.5078125 185.484375 C-255.93285465 180.4582472 -250.97885012 179.70558525 -243.6875 179.875 C-242.94693359 179.88402344 -242.20636719 179.89304688 -241.44335938 179.90234375 C-239.62876533 179.92575787 -237.81433929 179.96162385 -236 180 C-235.67128906 178.27716797 -235.67128906 178.27716797 -235.3359375 176.51953125 C-233.84267812 169.81823454 -231.5916184 163.35527702 -229.36914062 156.86889648 C-228.62204593 154.67884036 -227.89294131 152.48328483 -227.1640625 150.28710938 C-226.68598531 148.88244123 -226.20685555 147.47813078 -225.7265625 146.07421875 C-225.40602402 145.09759529 -225.40602402 145.09759529 -225.07901001 144.10124207 C-223.68465023 140.10823693 -222.40886562 137.52840087 -219 135 C-215.94082198 134.62611259 -213.24795136 134.49336939 -210.19238281 134.54589844 C-209.30422379 134.54531433 -208.41606476 134.54473022 -207.50099182 134.54412842 C-204.56797073 134.54691314 -201.63596836 134.57802349 -198.703125 134.609375 C-196.66860509 134.61683601 -194.634078 134.6225296 -192.59954834 134.62652588 C-187.24656305 134.64179319 -181.89401238 134.68108472 -176.54119873 134.7253418 C-171.07830688 134.76627068 -165.61534475 134.78453182 -160.15234375 134.8046875 C-149.43470495 134.84757769 -138.71738863 134.91584252 -128 135 C-128.00888245 134.10987717 -128.01776489 133.21975433 -128.0269165 132.30265808 C-128.10739139 123.87378742 -128.16813061 115.44504762 -128.20724869 107.01587963 C-128.22803651 102.6833513 -128.25619092 98.35114302 -128.30175781 94.01879883 C-128.34553275 89.83014639 -128.36920315 85.64179989 -128.37950897 81.45293617 C-128.38684404 79.86268619 -128.40116625 78.27245109 -128.42292023 76.68233299 C-128.59360262 63.67739528 -126.83615191 52.1652436 -118 42 C-108.50439336 32.66626412 -95.49352817 29.55777679 -83.1875 25.5 C-80.88308248 24.72597996 -78.57929753 23.9500743 -76.27612305 23.17236328 C-72.7312978 21.97576393 -69.18602537 20.78072288 -65.63819885 19.5930481 C-57.61569903 16.90402278 -49.63134492 14.1216053 -41.6640625 11.2734375 C-39.56099729 10.52526831 -37.45788944 9.77721893 -35.35473633 9.02929688 C-32.35766891 7.96295386 -29.36220893 6.8930019 -26.3711853 5.80981445 C-23.62295041 4.81605337 -20.86901447 3.83992528 -18.11328125 2.8671875 C-17.31858429 2.57435883 -16.52388733 2.28153015 -15.70510864 1.97982788 C-10.56534237 0.18844042 -5.43730515 -1.14900413 0 0 Z M-15.87573242 19.56958008 C-16.89769211 19.91484238 -17.91965179 20.26010468 -18.97257996 20.61582947 C-20.64710991 21.18691185 -20.64710991 21.18691185 -22.35546875 21.76953125 C-23.51303177 22.16181412 -24.67059479 22.55409698 -25.86323547 22.95826721 C-28.99287476 24.02005291 -32.12149186 25.08473374 -35.24942017 26.15154266 C-37.18173488 26.81053388 -39.11427808 27.46885107 -41.046875 28.12701416 C-48.59211044 30.69724941 -56.13443268 33.27588528 -63.67474365 35.86053467 C-66.63499743 36.8749246 -69.59595325 37.88723118 -72.55712891 38.89892578 C-76.24459967 40.16032867 -79.92825484 41.43211571 -83.6078186 42.71640015 C-85.44112016 43.35450606 -87.27752359 43.98367845 -89.11401367 44.61254883 C-100.68860548 48.53170587 -100.68860548 48.53170587 -108.9375 57.0625 C-109.50791016 58.03896484 -109.50791016 58.03896484 -110.08984375 59.03515625 C-112.07040435 63.31078708 -112.12195984 67.19033012 -112.11352539 71.87988281 C-112.11367142 72.56321686 -112.11381744 73.2465509 -112.1139679 73.95059204 C-112.11327315 76.20146904 -112.10550132 78.45226252 -112.09765625 80.703125 C-112.09579051 82.2668249 -112.09436734 83.83052538 -112.09336853 85.39422607 C-112.08955562 89.50416689 -112.0797358 93.61407221 -112.06866455 97.72399902 C-112.05842407 101.92016113 -112.05386526 106.11632899 -112.04882812 110.3125 C-112.03811242 118.54168475 -112.02052555 126.77083387 -112 135 C-107.38 135 -102.76 135 -98 135 C-97.97812622 131.89609863 -97.97812622 131.89609863 -97.95581055 128.72949219 C-97.9054702 121.89211098 -97.83887624 115.05495765 -97.76428509 108.21780014 C-97.71956018 104.07246596 -97.68030891 99.92723055 -97.65356445 95.78173828 C-97.62755236 91.78097651 -97.58716527 87.78059434 -97.53681374 83.78006744 C-97.52013075 82.25390597 -97.50862537 80.72767881 -97.50238609 79.2014389 C-97.49276017 77.06324991 -97.46472142 74.92603519 -97.43237305 72.78808594 C-97.42126999 71.5711908 -97.41016693 70.35429565 -97.39872742 69.1005249 C-96.96124274 65.69862156 -96.45483238 64.3586735 -94 62 C-91.85594177 60.91638184 -91.85594177 60.91638184 -89.33374023 60.08398438 C-88.38149567 59.76224747 -87.4292511 59.44051056 -86.44815063 59.10902405 C-84.89406998 58.60646339 -84.89406998 58.60646339 -83.30859375 58.09375 C-82.22710052 57.73192123 -81.1456073 57.37009247 -80.03134155 56.99729919 C-76.50390562 55.8196043 -72.97077415 54.66004755 -69.4375 53.5 C-65.81305772 52.29356561 -62.19025537 51.08229248 -58.56748962 49.87083435 C-56.15187579 49.0634385 -53.73574693 48.25758189 -51.31910706 47.45326233 C-41.11217854 44.05360377 -30.95103487 40.53536221 -20.8125 36.9375 C-19.40096418 36.43879107 -17.98942461 35.94009275 -16.57788086 35.44140625 C-10.69143966 33.45517454 -10.69143966 33.45517454 -5 31 C-5.47656412 29.20763933 -5.95633498 27.41613103 -6.4375 25.625 C-6.70433594 24.62726562 -6.97117187 23.62953125 -7.24609375 22.6015625 C-7.90184356 20.04582299 -7.90184356 20.04582299 -9 18 C-11.55407473 18 -13.45145249 18.74691435 -15.87573242 19.56958008 Z M-209 150 C-209.63783984 151.58207234 -210.27442577 153.16465025 -210.91049194 154.74743652 C-211.26512701 155.62867943 -211.61976208 156.50992233 -211.98514366 157.41786957 C-213.34538855 160.87878279 -214.55255715 164.37875647 -215.7265625 167.90625 C-216.2055527 169.32297634 -216.68472429 170.73964137 -217.1640625 172.15625 C-217.90142791 174.34558193 -218.63687132 176.53552049 -219.36914062 178.7265625 C-220.08730011 180.87156656 -220.81267028 183.01402244 -221.5390625 185.15625 C-221.75680328 185.81451782 -221.97454407 186.47278564 -222.19888306 187.15100098 C-223.16969247 190.00127589 -223.84042952 191.84042952 -226 194 C-227.8918457 194.28710938 -227.8918457 194.28710938 -230.17578125 194.34375 C-231.00400391 194.37339844 -231.83222656 194.40304688 -232.68554688 194.43359375 C-233.55244141 194.45550781 -234.41933594 194.47742188 -235.3125 194.5 C-244.43425549 194.47781385 -244.43425549 194.47781385 -252 199 C-252.50814856 203.68209994 -252.50814856 203.68209994 -250.75 207.875 C-247.41291818 210.02026688 -244.0376245 210.12539782 -240.14891148 210.12863445 C-239.16868002 210.1318589 -238.18844855 210.13508335 -237.17851311 210.1384055 C-236.10410955 210.1368569 -235.02970599 210.1353083 -233.92274475 210.13371277 C-232.20781795 210.1371111 -232.20781795 210.1371111 -230.45824617 210.14057809 C-227.28448512 210.14581836 -224.11075964 210.14656211 -220.93699563 210.14538372 C-217.51430296 210.1451798 -214.09161878 210.1506976 -210.66893005 210.15544128 C-203.96344957 210.16374995 -197.25797788 210.16649621 -190.55249269 210.16705366 C-185.10306776 210.16752867 -179.65364573 210.16958265 -174.20422173 210.17275429 C-158.75867321 210.18156104 -143.31313164 210.18617357 -127.8675806 210.18542381 C-126.6184053 210.18536388 -126.6184053 210.18536388 -125.34399414 210.18530273 C-124.51019556 210.18526185 -123.67639698 210.18522097 -122.81733178 210.18517885 C-109.29944513 210.18477226 -95.78158631 210.19434511 -82.2637077 210.2084411 C-68.38813267 210.2227961 -54.51257123 210.22971179 -40.63698858 210.22884732 C-32.84506297 210.22851508 -25.05316656 210.23127437 -17.26124763 210.24202538 C-10.62812297 210.2511188 -3.99504074 210.25331514 2.63808744 210.24651595 C6.02300334 210.243245 9.40777115 210.24429599 12.79269028 210.2518692 C16.46045411 210.2595454 20.12800218 210.25497327 23.79576111 210.24723816 C24.86793395 210.25238172 25.94010678 210.25752529 27.0447697 210.26282471 C28.02760891 210.25822592 29.01044812 210.25362712 30.02307034 210.24888897 C30.86957698 210.24910634 31.71608363 210.24932371 32.58824199 210.24954766 C36.49373828 209.84544101 39.22151172 208.77848828 42 206 C42.50814856 201.31790006 42.50814856 201.31790006 40.75 197.125 C37.61903206 195.1122349 34.45608839 194.87499601 30.79925442 194.87250805 C29.96409217 194.8695004 29.12892993 194.86649275 28.26845974 194.86339396 C26.89993778 194.86601952 26.89993778 194.86601952 25.50376892 194.86869812 C24.53058246 194.86658241 23.55739599 194.86446669 22.55471903 194.86228687 C19.28508466 194.8562826 16.01548883 194.85728731 12.74584961 194.8581543 C10.40532872 194.85512318 8.06480842 194.85160186 5.72428894 194.84762573 C0.6802406 194.83973428 -4.36380066 194.83459096 -9.40785408 194.83133507 C-17.37759036 194.82543167 -25.34728801 194.80893942 -33.31700134 194.78999329 C-36.04349225 194.78363687 -38.76998326 194.77732844 -41.49647427 194.77101612 C-42.17780972 194.76943236 -42.85914517 194.7678486 -43.56112714 194.76621684 C-51.31459277 194.74828477 -59.0680614 194.73205492 -66.8215332 194.71704102 C-67.53025058 194.71566514 -68.23896796 194.71428927 -68.96916162 194.71287171 C-80.46436258 194.6909226 -91.95955253 194.68018042 -103.45477075 194.67267027 C-115.25342089 194.66460642 -127.0519764 194.64134222 -138.85057253 194.6047166 C-145.47656 194.58464638 -152.10241836 194.57256866 -158.72844124 194.57755089 C-164.95585619 194.58217654 -171.18295563 194.56850635 -177.41030693 194.54053879 C-179.7004836 194.53359246 -181.99069265 194.53353708 -184.28086853 194.54073906 C-187.39787769 194.5495542 -190.51382975 194.53405298 -193.63075256 194.51225281 C-194.54533125 194.52069534 -195.45990995 194.52913788 -196.40220314 194.53783625 C-202.46687492 194.45893956 -202.46687492 194.45893956 -205.09729671 192.1945467 C-206.46051643 188.8804463 -205.82327619 186.41976263 -205 183 C-202.42654469 180.42654469 -200.70146158 180.75094065 -197.19313705 180.71566427 C-196.37408169 180.717599 -195.55502634 180.71953374 -194.71115112 180.7215271 C-193.84372917 180.7157347 -192.97630722 180.7099423 -192.08259976 180.70397437 C-189.15903339 180.68689001 -186.23562407 180.68409065 -183.31201172 180.68115234 C-181.22306935 180.67185998 -179.13413071 180.66169236 -177.04519653 180.65071106 C-171.35955383 180.62331896 -165.67393601 180.60823445 -159.98824453 180.59528303 C-154.05179569 180.57969265 -148.11539802 180.55288948 -142.1789856 180.5272522 C-130.93096016 180.48039171 -119.68292518 180.44368286 -108.43485177 180.41057932 C-95.63211535 180.37240919 -82.82943022 180.32298573 -70.02673697 180.27259517 C-43.68452929 180.16916722 -17.34228868 180.07994226 9 180 C8.5339899 178.27000109 8.0663911 176.54043008 7.59814453 174.81103516 C7.33792511 173.84783356 7.07770569 172.88463196 6.80960083 171.89224243 C5.62898132 167.67456166 4.2723671 163.52496962 2.875 159.375 C2.61074219 158.57449219 2.34648437 157.77398437 2.07421875 156.94921875 C1.05817489 153.18378701 1.05817489 153.18378701 -1 150 C-3.68069332 149.90216304 -6.33561123 149.87006089 -9.01673889 149.87974548 C-10.29208887 149.87846385 -10.29208887 149.87846385 -11.59320349 149.87715632 C-14.4645817 149.8754989 -17.33590249 149.88102714 -20.20727539 149.88647461 C-22.2566579 149.88675645 -24.30604052 149.88659881 -26.35542297 149.8860321 C-31.93783912 149.88574401 -37.52023398 149.89164264 -43.10264516 149.89860606 C-48.92962999 149.90483764 -54.75661526 149.90544324 -60.58360291 149.90663147 C-71.62627294 149.90974536 -82.66893313 149.91795953 -93.71159881 149.92798096 C-106.27970079 149.93914029 -118.84780323 149.94465209 -131.41590893 149.94967639 C-157.27727809 149.9601421 -183.13863849 149.97774266 -209 150 Z M-222 225 C-216.18097345 280.34018475 -216.18097345 280.34018475 -210.35546875 335.6796875 C-210.26681164 336.5212985 -210.17815452 337.3629095 -210.08681083 338.23002386 C-206.55100587 371.79417067 -203.00784064 405.35752926 -199.44868469 438.91920853 C-199.06262468 442.56132374 -198.67705488 446.20349055 -198.29162598 449.84567261 C-197.6925301 455.50636715 -197.09216875 461.16692597 -196.49074364 466.8273735 C-196.2737435 468.87144887 -196.05715808 470.91556831 -195.84102821 472.95973587 C-195.54894095 475.72141397 -195.25527285 478.48291945 -194.96118164 481.24438477 C-194.87766827 482.03739959 -194.79415489 482.83041441 -194.70811081 483.64745998 C-194.62892536 484.38787061 -194.54973991 485.12828123 -194.46815491 485.89112854 C-194.40136567 486.52055642 -194.33457644 487.1499843 -194.26576328 487.79848576 C-193.89470636 490.87222528 -193.43784833 493.93506171 -193 497 C-134.92 497 -76.84 497 -17 497 C-10.39843592 436.83250646 -10.39843592 436.83250646 -3.94833755 376.64921379 C-3.38207341 371.29815094 -2.81433615 365.94724431 -2.24682617 360.59631348 C-1.30512416 351.71534217 -0.36436227 342.83427175 0.57568359 333.953125 C1.66082123 323.70127127 2.74728748 313.44955898 3.83444595 303.19791937 C5.00777839 292.13363128 6.18031643 281.06925912 7.35254669 270.0048542 C7.68673407 266.85097846 8.02105803 263.69711721 8.35540771 260.54325867 C8.8747496 255.64395145 9.39355086 250.74458728 9.91191673 245.8451767 C10.10202302 244.04912672 10.2923088 242.25309572 10.48278236 240.45708466 C10.74120475 238.02006557 10.9989867 235.58297961 11.2565918 233.14587402 C11.33284475 232.42817384 11.40909771 231.71047366 11.48766136 230.97102499 C11.84861562 227.99200779 11.84861562 227.99200779 12 225 C-65.22 225 -142.44 225 -222 225 Z " fill="#000000" transform="translate(361,0)"/>
</svg>
