<?xml version="1.0" encoding="UTF-8"?>
<svg version="1.1" xmlns="http://www.w3.org/2000/svg" width="512" height="512">
<path d="M0 0 C1.80809898 -0.00855011 1.80809898 -0.00855011 3.65272522 -0.01727295 C6.20003395 -0.02667523 8.74735459 -0.03323782 11.29467773 -0.03710938 C15.09056507 -0.04669919 18.88588261 -0.07772101 22.68164062 -0.109375 C85.81643091 -0.38375245 149.73563552 15.51273707 195.79003906 60.74316406 C199.60904424 64.63506095 202.94585279 68.85369883 206.22265625 73.203125 C207.021875 74.23695312 207.82109375 75.27078125 208.64453125 76.3359375 C229.53937254 103.95934968 240.72529953 139.74583591 242.36547852 174.20361328 C242.41760498 175.1882959 242.46973145 176.17297852 242.5234375 177.1875 C242.55348877 178.08436523 242.58354004 178.98123047 242.61450195 179.90527344 C243.01614608 182.38672395 243.01614608 182.38672395 245.31445312 183.76098633 C246.98789947 184.52229295 248.6831338 185.23643793 250.390625 185.91796875 C259.74753037 190.16406788 266.21132719 198.87601183 270.03198242 208.17236328 C272.14066032 213.8726079 272.73316235 219.02504337 272.66015625 225.078125 C272.65330811 225.95436523 272.64645996 226.83060547 272.6394043 227.73339844 C272.40187341 237.33071372 269.85593479 244.73024369 263.98046875 252.3515625 C262.97619206 254.25952008 262.97619206 254.25952008 263.8984375 256.55078125 C264.33542969 257.42605469 264.77242188 258.30132812 265.22265625 259.203125 C265.95162109 260.67458984 265.95162109 260.67458984 266.6953125 262.17578125 C267.75681304 264.23879582 268.81931631 266.30129474 269.8828125 268.36328125 C274.10903224 277.32089569 273.47153216 289.62518598 271.3515625 299.09375 C267.84829235 308.7880451 261.80213312 317.35343538 253.22265625 323.203125 C251.5382952 323.869963 249.85058317 324.52837967 248.16015625 325.1796875 C245.12373252 326.67833371 243.57696569 327.49079918 242.0559082 330.54882812 C241.35016358 333.47348837 240.90627028 336.34260964 240.53515625 339.328125 C240.1740827 341.49800819 239.80152016 343.66600829 239.41796875 345.83203125 C239.13614746 347.44682373 239.13614746 347.44682373 238.84863281 349.09423828 C232.30219632 381.60684447 208.76099014 410.35374065 182.0234375 428.75 C162.25929592 441.84073487 137.17518027 450.36949732 113.44692993 450.34356689 C112.58723048 450.34653802 111.72753102 450.34950914 110.84178007 450.3525703 C107.97344885 450.36121174 105.10515959 450.3627617 102.23681641 450.36425781 C100.17472241 450.36888937 98.11262927 450.37391449 96.05053711 450.37930298 C90.45494763 450.39240022 84.85937013 450.39886723 79.26376772 450.40331364 C75.76180518 450.40624993 72.25984588 450.41035588 68.75788498 450.41481781 C57.7838879 450.42848844 46.80989827 450.43815606 35.83589327 450.4420197 C23.20101307 450.44649333 10.56624143 450.46401077 -2.06860578 450.4930203 C-11.85492113 450.51470318 -21.64120609 450.52472757 -31.42754519 450.52606082 C-37.26252397 450.52710453 -43.09740065 450.53291887 -48.93235397 450.55088043 C-54.43011003 450.56747466 -59.92768849 450.56946201 -65.42546082 450.56074142 C-67.43080245 450.55997697 -69.43615408 450.56423453 -71.4414711 450.57419968 C-87.29835222 450.64830431 -102.2588488 449.27750127 -117.33984375 444.015625 C-118.65662109 443.56388916 -118.65662109 443.56388916 -120 443.10302734 C-153.34087193 431.3089362 -180.99074643 406.84098406 -196.78222656 375.18896484 C-201.66582183 364.95304733 -205.90777707 354.39792539 -207.5546875 343.125 C-208.47684287 333.85040425 -208.47684287 333.85040425 -212.90234375 326.12890625 C-215.39095364 324.96562213 -215.39095364 324.96562213 -218.05078125 324.171875 C-225.89780799 321.38381965 -231.47073213 313.9213587 -235.5234375 306.953125 C-238.82852401 299.70458636 -240.31105313 293.30503677 -240.21484375 285.328125 C-240.20799561 284.45188477 -240.20114746 283.57564453 -240.1940918 282.67285156 C-239.95656091 273.07553628 -237.41062229 265.67600631 -231.53515625 258.0546875 C-230.53087956 256.14672992 -230.53087956 256.14672992 -231.453125 253.85546875 C-231.89011719 252.98019531 -232.32710937 252.10492188 -232.77734375 251.203125 C-233.26332031 250.22214844 -233.74929687 249.24117187 -234.25 248.23046875 C-235.31150054 246.16745418 -236.37400381 244.10495526 -237.4375 242.04296875 C-241.66371974 233.08535431 -241.02621966 220.78106402 -238.90625 211.3125 C-235.40956671 201.63643214 -229.36231038 193.0241313 -220.77734375 187.203125 C-219.07402283 186.57122897 -217.36952923 185.94248769 -215.6640625 185.31640625 C-212.44510624 183.72620948 -211.07941941 182.97062254 -209.74975586 179.59228516 C-209.24702168 176.25886433 -209.02987988 173.00929793 -208.90234375 169.640625 C-208.71727416 167.18441016 -208.52582143 164.72866829 -208.328125 162.2734375 C-208.24127441 161.0659082 -208.15442383 159.85837891 -208.06494141 158.61425781 C-205.20258158 124.66443487 -189.94800626 91.72605263 -167.77734375 66.203125 C-166.98585938 65.27757813 -166.194375 64.35203125 -165.37890625 63.3984375 C-159.68711346 56.91661669 -153.60623114 51.45684085 -146.77734375 46.203125 C-145.8646875 45.47480469 -144.95203125 44.74648437 -144.01171875 43.99609375 C-109.68661443 17.22063669 -66.44592058 5.65945484 -23.77734375 1.203125 C-22.96535019 1.11579605 -22.15335663 1.0284671 -21.3167572 0.93849182 C-14.20149692 0.22613979 -7.14798685 0.02702513 0 0 Z M-99.77734375 53.203125 C-100.93878906 53.76902344 -102.10023438 54.33492187 -103.296875 54.91796875 C-115.72953052 61.30718108 -126.69672405 69.55183323 -136.77734375 79.203125 C-137.52371094 79.88632813 -138.27007812 80.56953125 -139.0390625 81.2734375 C-163.97541294 104.86070092 -176.15351407 140.64160207 -178.77734375 174.203125 C-178.77734375 176.183125 -178.77734375 178.163125 -178.77734375 180.203125 C-50.07734375 180.203125 78.62265625 180.203125 211.22265625 180.203125 C208.40118243 137.88101766 194.43129123 100.62508092 162.22265625 72.203125 C97.12450759 18.51653217 -21.8116352 16.43697271 -99.77734375 53.203125 Z M-204.58984375 214.640625 C-208.52813238 219.25404883 -209.22280255 221.79330913 -209.09375 227.6953125 C-208.62692358 231.39534413 -207.25170795 233.46126197 -204.77734375 236.203125 C-199.38203389 240.21502208 -194.15058516 240.32813895 -187.5911274 240.33175945 C-186.51687878 240.33438901 -186.51687878 240.33438901 -185.42092818 240.33707169 C-183.01474054 240.3417335 -180.60861327 240.33926572 -178.2024231 240.33683777 C-176.46243041 240.33870565 -174.72243815 240.34100626 -172.98244655 240.34370309 C-168.19578867 240.34983031 -163.40914822 240.34968641 -158.62248731 240.34850872 C-153.46219948 240.34830494 -148.30191729 240.3538212 -143.14163208 240.35856628 C-133.02996884 240.36687831 -122.91831142 240.36962137 -112.80664505 240.37017866 C-104.58933596 240.37065353 -96.37202879 240.37270684 -88.15472031 240.37587929 C-64.86728273 240.38468715 -41.57984976 240.38929842 -18.29241051 240.38854881 C-17.03656445 240.38850886 -15.7807184 240.3884689 -14.48681641 240.38842773 C-13.22944065 240.38838685 -11.9720649 240.38834597 -10.67658685 240.38830385 C9.70733217 240.38789728 30.09123272 240.39746926 50.4751464 240.4115661 C71.39525938 240.42591984 92.31536335 240.43283685 113.23548138 240.43197232 C124.98455976 240.43164002 136.73361877 240.4344017 148.48269272 240.44515038 C158.48492524 240.45424217 168.48712963 240.45644149 178.48936449 240.44964095 C183.59395781 240.44636914 188.6984971 240.44634287 193.80308533 240.4549942 C198.47498633 240.46283089 203.14679022 240.46145684 207.81868877 240.45271007 C209.50977019 240.45116883 211.20085876 240.45301462 212.89193176 240.45857015 C215.18965815 240.46561935 217.48704285 240.46034525 219.78475761 240.45201397 C221.69960876 240.45234002 221.69960876 240.45234002 223.65314376 240.45267266 C228.98262427 240.08008414 232.95989053 239.29752196 237.03515625 235.765625 C240.97344488 231.15220117 241.66811505 228.61294087 241.5390625 222.7109375 C241.07223608 219.01090587 239.69702045 216.94498803 237.22265625 214.203125 C231.82734639 210.19122792 226.59589766 210.07811105 220.0364399 210.07449055 C219.32027415 210.07273751 218.60410841 210.07098447 217.86624068 210.06917831 C215.46005304 210.0645165 213.05392577 210.06698428 210.6477356 210.06941223 C208.90774291 210.06754435 207.16775065 210.06524374 205.42775905 210.06254691 C200.64110117 210.05641969 195.85446072 210.05656359 191.06779981 210.05774128 C185.90751198 210.05794506 180.74722979 210.0524288 175.58694458 210.04768372 C165.47528134 210.03937169 155.36362392 210.03662863 145.25195755 210.03607134 C137.03464846 210.03559647 128.81734129 210.03354316 120.60003281 210.03037071 C97.31259523 210.02156285 74.02516226 210.01695158 50.73772301 210.01770119 C48.85395393 210.01776112 48.85395393 210.01776112 46.93212891 210.01782227 C45.67475315 210.01786315 44.4173774 210.01790403 43.12189935 210.01794615 C22.73798033 210.01835272 2.35407978 210.00878074 -18.0298339 209.9946839 C-38.94994688 209.98033016 -59.87005085 209.97341315 -80.79016888 209.97427768 C-92.53924726 209.97460998 -104.28830627 209.9718483 -116.03738022 209.96109962 C-126.03961274 209.95200783 -136.04181713 209.94980851 -146.04405199 209.95660905 C-151.14864531 209.95988086 -156.2531846 209.95990713 -161.35777283 209.9512558 C-166.02967383 209.94341911 -170.70147772 209.94479316 -175.37337627 209.95353993 C-177.06445769 209.95508117 -178.75554626 209.95323538 -180.44661926 209.94767985 C-182.74434565 209.94063065 -185.04173035 209.94590475 -187.33944511 209.95423603 C-189.25429626 209.95390998 -189.25429626 209.95390998 -191.20783126 209.95357734 C-196.53731177 210.32616586 -200.51457803 211.10872804 -204.58984375 214.640625 Z M-204.58984375 274.640625 C-208.52813238 279.25404883 -209.22280255 281.79330913 -209.09375 287.6953125 C-208.62692358 291.39534413 -207.25170795 293.46126197 -204.77734375 296.203125 C-198.90925683 300.56657425 -192.78845484 300.34374014 -185.77734375 300.37890625 C-183.98436354 300.40212596 -182.19139478 300.42624414 -180.3984375 300.45117188 C-177.59904538 300.48606059 -174.8000699 300.51551511 -172.00048828 300.52905273 C-152.75023957 300.64011843 -139.37463737 303.45703794 -125.38842773 317.54736328 C-124.17229461 318.79269125 -122.96681426 320.04853639 -121.77368164 321.31591797 C-117.45876518 325.82981277 -113.80216002 328.78203689 -107.41015625 329.671875 C-99.7833337 329.73981997 -94.42569694 329.57295979 -88.77734375 324.203125 C-86.47721089 321.73894625 -84.21880312 319.24641418 -81.97924805 316.72753906 C-73.07423281 306.82933687 -62.84060413 301.58078716 -49.51171875 300.82421875 C-32.21391803 300.26315269 -19.80886073 303.23715227 -6.71484375 315.06640625 C-3.99179792 317.71315985 -1.55007621 320.46225945 0.78515625 323.453125 C4.22245165 327.33109929 7.4474139 328.95599149 12.58984375 329.671875 C20.2166663 329.73981997 25.57430306 329.57295979 31.22265625 324.203125 C33.52278911 321.73894625 35.78119688 319.24641418 38.02075195 316.72753906 C46.92576719 306.82933687 57.15939587 301.58078716 70.48828125 300.82421875 C87.78608197 300.26315269 100.19113927 303.23715227 113.28515625 315.06640625 C116.00820208 317.71315985 118.44992379 320.46225945 120.78515625 323.453125 C124.22245165 327.33109929 127.4474139 328.95599149 132.58984375 329.671875 C140.2166663 329.73981997 145.57430306 329.57295979 151.22265625 324.203125 C153.52278911 321.73894625 155.78119688 319.24641418 158.02075195 316.72753906 C166.70437219 307.07542432 177.03196487 301.59275688 190.10009766 300.82324219 C195.59814075 300.61614491 201.09628956 300.58949733 206.59765625 300.578125 C209.43428804 300.56169756 212.270598 300.53955074 215.10708618 300.50650024 C216.85779513 300.48709912 218.60865133 300.47751008 220.35946655 300.47958374 C226.71192618 300.42421397 232.05387689 300.08273378 237.03515625 295.765625 C240.97344488 291.15220117 241.66811505 288.61294087 241.5390625 282.7109375 C241.07223608 279.01090587 239.69702045 276.94498803 237.22265625 274.203125 C231.82734639 270.19122792 226.59589766 270.07811105 220.0364399 270.07449055 C219.32027415 270.07273751 218.60410841 270.07098447 217.86624068 270.06917831 C215.46005304 270.0645165 213.05392577 270.06698428 210.6477356 270.06941223 C208.90774291 270.06754435 207.16775065 270.06524374 205.42775905 270.06254691 C200.64110117 270.05641969 195.85446072 270.05656359 191.06779981 270.05774128 C185.90751198 270.05794506 180.74722979 270.0524288 175.58694458 270.04768372 C165.47528134 270.03937169 155.36362392 270.03662863 145.25195755 270.03607134 C137.03464846 270.03559647 128.81734129 270.03354316 120.60003281 270.03037071 C97.31259523 270.02156285 74.02516226 270.01695158 50.73772301 270.01770119 C48.85395393 270.01776112 48.85395393 270.01776112 46.93212891 270.01782227 C45.67475315 270.01786315 44.4173774 270.01790403 43.12189935 270.01794615 C22.73798033 270.01835272 2.35407978 270.00878074 -18.0298339 269.9946839 C-38.94994688 269.98033016 -59.87005085 269.97341315 -80.79016888 269.97427768 C-92.53924726 269.97460998 -104.28830627 269.9718483 -116.03738022 269.96109962 C-126.03961274 269.95200783 -136.04181713 269.94980851 -146.04405199 269.95660905 C-151.14864531 269.95988086 -156.2531846 269.95990713 -161.35777283 269.9512558 C-166.02967383 269.94341911 -170.70147772 269.94479316 -175.37337627 269.95353993 C-177.06445769 269.95508117 -178.75554626 269.95323538 -180.44661926 269.94767985 C-182.74434565 269.94063065 -185.04173035 269.94590475 -187.33944511 269.95423603 C-189.25429626 269.95390998 -189.25429626 269.95390998 -191.20783126 269.95357734 C-196.53731177 270.32616586 -200.51457803 271.10872804 -204.58984375 274.640625 Z M-177.77734375 330.203125 C-177.24525063 336.46449982 -176.1871258 342.01535008 -174.15234375 347.953125 C-173.88655518 348.73316895 -173.6207666 349.51321289 -173.34692383 350.31689453 C-169.12269167 362.29026366 -162.75688357 372.37070899 -154.77734375 382.203125 C-154.07867187 383.06808594 -153.38 383.93304688 -152.66015625 384.82421875 C-135.0675967 405.47775477 -108.9093341 417.44523389 -82.1456604 419.72798157 C-73.72732265 420.35558301 -65.33240334 420.35127923 -56.89599609 420.34838867 C-55.13182505 420.35138753 -53.36765466 420.35479171 -51.60348511 420.35856628 C-46.846929 420.36733736 -42.09039092 420.36974149 -37.3338275 420.37038207 C-34.35143189 420.37109659 -31.36904076 420.37323848 -28.38664627 420.37587929 C-17.95160892 420.38511047 -7.51658427 420.38921704 2.91845703 420.38842773 C12.59602389 420.3878278 22.27353486 420.39836885 31.95108759 420.4141714 C40.30062481 420.42731227 48.65014391 420.43260889 56.99969137 420.43197232 C61.96830617 420.43171922 66.93687125 420.43446531 71.90547562 420.44515038 C76.58580174 420.45494218 81.26603172 420.45483596 85.94636154 420.44763374 C87.64770399 420.44660146 89.34905279 420.44886825 91.05038452 420.4549942 C126.05224086 420.57269252 156.35240943 413.06846014 182.22265625 388.203125 C194.57341837 375.51579502 202.96759468 360.17100033 208.03515625 343.328125 C208.25453857 342.60206055 208.4739209 341.87599609 208.69995117 341.12792969 C209.77038638 337.40279787 210.48903717 334.0846755 210.22265625 330.203125 C194.76247841 329.69693937 194.76247841 329.69693937 181.22265625 336.203125 C179.38128423 338.13320545 177.63699511 340.05429772 175.91015625 342.078125 C167.80452697 351.21387344 157.3654897 358.44906899 144.84179688 359.38012695 C126.3761712 359.83957105 113.34510997 358.15465989 99.16015625 345.33984375 C96.43711042 342.69309015 93.99538871 339.94399055 91.66015625 336.953125 C88.22286085 333.07515071 84.9978986 331.45025851 79.85546875 330.734375 C72.22884262 330.66643178 66.87051904 330.83320822 61.22265625 336.203125 C58.89990429 338.68930412 56.61651695 341.20036675 54.36303711 343.74902344 C46.80847625 352.18920122 36.32993204 358.5260562 24.84179688 359.38012695 C6.3761712 359.83957105 -6.65489003 358.15465989 -20.83984375 345.33984375 C-23.56288958 342.69309015 -26.00461129 339.94399055 -28.33984375 336.953125 C-31.77713915 333.07515071 -35.0021014 331.45025851 -40.14453125 330.734375 C-47.77115738 330.66643178 -53.12948096 330.83320822 -58.77734375 336.203125 C-61.10009571 338.68930412 -63.38348305 341.20036675 -65.63696289 343.74902344 C-73.19152375 352.18920122 -83.67006796 358.5260562 -95.15820312 359.38012695 C-111.39537404 359.78412476 -124.94430688 359.40627252 -137.77734375 348.203125 C-140.8465901 345.23208746 -143.85291107 342.20064294 -146.78100586 339.09033203 C-152.12114633 333.50393598 -156.94102781 330.82505484 -164.77734375 330.203125 C-169.11219161 330.13206192 -173.44243273 330.14445703 -177.77734375 330.203125 Z " fill="#000000" transform="translate(239.77734375,30.796875)"/>
<path d="M0 0 C4.61581142 2.18643699 6.72864085 4.49599804 9 9 C9.82885269 14.54808604 9.7240695 19.47140883 7.3125 24.5625 C4.21064779 27.8320199 1.61649202 29.75850523 -2.90234375 30.43359375 C-9.05071801 30.44150672 -13.31314296 30.4465054 -18 26 C-21.88937897 20.55860924 -21.79042609 15.48149391 -21 9 C-16.63929544 -0.20593186 -9.3488659 -1.1401056 0 0 Z " fill="#000000" transform="translate(352,151)"/>
<path d="M0 0 C4.61581142 2.18643699 6.72864085 4.49599804 9 9 C9.82885269 14.54808604 9.7240695 19.47140883 7.3125 24.5625 C4.21064779 27.8320199 1.61649202 29.75850523 -2.90234375 30.43359375 C-9.05071801 30.44150672 -13.31314296 30.4465054 -18 26 C-21.88937897 20.55860924 -21.79042609 15.48149391 -21 9 C-16.63929544 -0.20593186 -9.3488659 -1.1401056 0 0 Z " fill="#000000" transform="translate(172,151)"/>
<path d="M0 0 C4.61581142 2.18643699 6.72864085 4.49599804 9 9 C9.82885269 14.54808604 9.7240695 19.47140883 7.3125 24.5625 C4.21064779 27.8320199 1.61649202 29.75850523 -2.90234375 30.43359375 C-9.05071801 30.44150672 -13.31314296 30.4465054 -18 26 C-21.88937897 20.55860924 -21.79042609 15.48149391 -21 9 C-16.63929544 -0.20593186 -9.3488659 -1.1401056 0 0 Z " fill="#000000" transform="translate(292,121)"/>
<path d="M0 0 C4.61581142 2.18643699 6.72864085 4.49599804 9 9 C9.82885269 14.54808604 9.7240695 19.47140883 7.3125 24.5625 C4.21064779 27.8320199 1.61649202 29.75850523 -2.90234375 30.43359375 C-9.05071801 30.44150672 -13.31314296 30.4465054 -18 26 C-21.88937897 20.55860924 -21.79042609 15.48149391 -21 9 C-16.63929544 -0.20593186 -9.3488659 -1.1401056 0 0 Z " fill="#000000" transform="translate(232,91)"/>
</svg>
