<?xml version="1.0" encoding="UTF-8"?>
<svg version="1.1" xmlns="http://www.w3.org/2000/svg" width="512" height="512">
<path d="M0 0 C1.25007169 -0.00573832 1.25007169 -0.00573832 2.52539736 -0.01159257 C5.30423318 -0.02187092 8.08286038 -0.01794028 10.86170959 -0.01396179 C12.85959056 -0.0183111 14.85746985 -0.02349498 16.85534668 -0.02944946 C22.27267075 -0.04282651 27.689925 -0.04341961 33.10726237 -0.04088616 C37.63264799 -0.03981567 42.15801952 -0.04470179 46.68340212 -0.04949158 C57.3603617 -0.0605821 68.0372861 -0.0610266 78.71424866 -0.05497742 C89.72341498 -0.04893589 100.73245355 -0.06125429 111.74159807 -0.08254749 C121.19996833 -0.1001676 130.65829795 -0.10616423 140.11668402 -0.10290974 C145.76301489 -0.10109755 151.40925461 -0.10372686 157.0555706 -0.11762428 C162.36535453 -0.13020476 167.67493934 -0.12825633 172.98472023 -0.11521339 C174.93094831 -0.11284863 176.87719041 -0.11557869 178.8234024 -0.12383652 C181.48511888 -0.13431405 184.14616849 -0.12619532 186.80786133 -0.11352539 C187.57353721 -0.12089968 188.33921309 -0.12827396 189.12809128 -0.13587171 C196.14699225 -0.06583527 202.41434933 1.75610985 207.77992249 6.51069641 C208.4154303 7.05210266 209.05093811 7.59350891 209.70570374 8.15132141 C214.00143789 13.2947725 214.84198642 18.34282764 214.82818604 24.89801025 C214.83074931 25.6349471 214.83331258 26.37188395 214.83595353 27.13115221 C214.84086759 29.58333396 214.82443849 32.03489042 214.80799866 34.48701477 C214.80715187 36.25157151 214.80762854 38.0161293 214.80932617 39.78068542 C214.81018552 44.55913724 214.79256941 49.33736231 214.7716043 54.11576152 C214.75282756 59.11389559 214.75108627 64.11203508 214.74752808 69.11019897 C214.73821055 78.56962075 214.71360069 88.02893829 214.68347961 97.48831421 C214.64992653 108.25972003 214.6334473 119.03113087 214.6183933 129.80257595 C214.58705091 151.95534091 214.53429605 174.10801209 214.46742249 196.26069641 C215.0209137 196.0789386 215.57440491 195.89718079 216.14466858 195.70991516 C218.70594542 194.87836638 221.27388102 194.06951373 223.84242249 193.26069641 C224.71253967 192.97452454 225.58265686 192.68835266 226.47914124 192.39350891 C236.06360293 189.41167639 245.18044333 189.11340109 254.46742249 193.26069641 C262.73704743 198.07017134 268.24709418 205.2124074 270.84242249 214.44819641 C272.35346201 223.66553754 271.26019743 232.77836393 265.77992249 240.57319641 C258.64806001 248.88353363 249.46813937 252.78805745 239.59242249 257.01069641 C238.09620747 257.65975707 236.60036745 258.30968275 235.10487366 258.96040344 C230.23225167 261.07578822 225.35013321 263.16873033 220.46742249 265.26069641 C218.77773834 265.98612337 217.08812282 266.7117102 215.39857483 267.43745422 C208.42905704 270.43013499 201.45929413 273.42210104 194.48036194 276.39277649 C185.50571704 280.21664194 176.55938618 284.09227607 167.65492249 288.07710266 C165.89421866 288.86073764 164.13339674 289.64410735 162.37245178 290.42720032 C159.86523416 291.54217202 157.36063664 292.66142707 154.86357117 293.79896545 C152.57729217 294.84038119 150.28316637 295.8625028 147.98695374 296.88179016 C147.02360107 297.33057274 147.02360107 297.33057274 146.04078674 297.78842163 C132.37634127 303.77114478 116.14828256 304.50378716 101.51429749 306.39741516 C99.3200313 306.68434627 97.12579767 306.9715264 94.93159485 307.25894165 C90.35999561 307.85649172 85.78791442 308.45017232 81.21546936 309.04121399 C75.37879996 309.79611573 69.54364755 310.56211222 63.70882797 311.33116436 C59.18826388 311.92550387 54.66686208 312.51326237 50.14519501 313.09914589 C47.9936979 313.37884223 45.84248092 313.66070283 43.69156647 313.9448452 C40.68116327 314.34166478 37.66971654 314.72939322 34.65785217 315.11494446 C33.78589203 315.23179092 32.91393188 315.34863739 32.01554871 315.46902466 C12.9184635 317.87196915 -1.48042507 313.37259724 -18.34507751 305.01069641 C-21.38972201 303.51900537 -24.43841512 302.03581712 -27.48960876 300.55757141 C-28.60823807 300.01521347 -28.60823807 300.01521347 -29.74946594 299.4618988 C-35.0319897 296.92396284 -40.36692867 294.54885055 -45.77867126 292.29975891 C-46.4668544 292.0111499 -47.15503754 291.72254089 -47.86407471 291.42518616 C-54.81887016 288.59034668 -61.51680414 287.43806352 -68.98179626 287.10835266 C-77.83756709 286.70176072 -77.83756709 286.70176072 -81.78257751 284.19819641 C-83.97212611 280.5228827 -84.98528144 277.55300031 -84.53257751 273.26069641 C-81.66837998 267.82859765 -81.66837998 267.82859765 -78.53257751 266.26069641 C-74.78953577 265.96064054 -71.03620873 265.98227902 -67.28257751 265.94819641 C-66.26421814 265.9191925 -65.24585876 265.8901886 -64.19664001 265.86030579 C-49.28500811 265.73884513 -36.8053773 271.66711317 -23.72007751 278.07319641 C-14.98365231 282.31677319 -6.24339201 286.48446459 2.72914124 290.20991516 C3.43158463 290.5038063 4.13402802 290.79769745 4.85775757 291.10049438 C14.70510636 295.11983112 23.48411046 294.41704582 33.80799866 293.05488586 C35.31461563 292.86210808 35.31461563 292.86210808 36.85166931 292.66543579 C40.15536238 292.24078628 43.45793059 291.80810176 46.76039124 291.37397766 C47.89524775 291.22576254 49.03010426 291.07754742 50.19935036 290.92484093 C56.20622347 290.1402704 62.21226601 289.34966985 68.21766663 288.5539093 C74.39102667 287.73700801 80.56676819 286.93988974 86.74331188 286.14747334 C91.51914903 285.53115835 96.2929893 284.90032148 101.06641579 284.26563072 C103.34086364 283.96570191 105.61601877 283.671083 107.89188194 283.38208961 C119.72648178 281.87400372 130.59250727 280.39986146 141.46742249 275.26069641 C142.80275128 274.69416001 144.13917133 274.13018111 145.47718811 273.57002258 C146.59802795 273.06962463 147.7188678 272.56922668 148.87367249 272.05366516 C149.5088681 271.77150146 150.14406372 271.48933777 150.79850769 271.19862366 C152.15335025 270.59659428 153.50760215 269.99323402 154.86128235 269.38859558 C158.57818485 267.7289852 162.30023832 266.08100074 166.02210999 264.43257141 C166.79598053 264.08963547 167.56985107 263.74669952 168.36717224 263.39337158 C176.14899478 259.94976549 183.95768946 256.5693543 191.77165222 253.19944763 C194.08610008 252.20092409 196.3997993 251.20068576 198.71327209 250.1999054 C205.62846386 247.20923162 212.54593721 244.22444398 219.47450256 241.26486206 C222.45566335 239.98946079 225.43351948 238.70647243 228.41072083 237.42185974 C229.80835521 236.82093855 231.20746064 236.22342572 232.60810852 235.62956238 C234.53513838 234.81218069 236.45675474 233.98316069 238.37757874 233.15132141 C240.00385193 232.45571106 240.00385193 232.45571106 241.66297913 231.74604797 C245.64856256 229.63511478 247.99456468 227.7107937 249.40492249 223.38569641 C249.4823677 219.51343554 248.53262031 217.50600727 246.46742249 214.26069641 C242.8902662 211.87592556 240.59214028 211.71507768 236.46742249 212.26069641 C232.49886373 213.24370817 228.64201304 214.52038532 224.76429749 215.81147766 C223.62515396 216.1816098 222.48601044 216.55174194 221.31234741 216.93309021 C218.87423066 217.72654273 216.43760803 218.52459853 214.00236511 219.326828 C210.1975606 220.57973686 206.38889043 221.82006617 202.57850647 223.05586243 C197.52875334 224.69477934 192.48051389 226.33823272 187.43373108 227.98628235 C170.76529567 233.4292102 170.76529567 233.4292102 162.64601135 236.01957703 C160.6164218 236.6704565 158.59128651 237.33395644 156.5660553 237.99824524 C140.00488327 243.27897824 124.26745895 244.72908506 106.96351624 244.69429016 C104.94431383 244.69886436 102.92511297 244.70417356 100.90591431 244.71017456 C96.70979918 244.71903327 92.51387519 244.71676076 88.31776428 244.70674133 C82.95479659 244.69517902 77.59248031 244.71561055 72.22959805 244.74465847 C68.07476668 244.76302632 63.92009196 244.76272821 59.76523018 244.75702095 C57.78737019 244.75686825 55.80949925 244.76287033 53.83167839 244.77531242 C51.07108996 244.79025607 48.31171418 244.77952591 45.55116272 244.7624054 C44.74636475 244.77207336 43.94156677 244.78174133 43.11238098 244.79170227 C36.59675529 244.70745128 31.21793944 242.88377629 26.44398499 238.33100891 C21.97621988 231.90052619 19.4875578 226.29558686 20.46742249 218.26069641 C22.18034587 211.49652449 25.21233233 206.51780503 31.21351624 202.74507141 C32.77143614 201.82359498 34.33576146 200.91289757 35.90492249 200.01069641 C37.20417664 199.24741028 37.20417664 199.24741028 38.52967834 198.46870422 C40.45528661 197.3390498 42.38357913 196.21396228 44.31410217 195.09272766 C47.64414123 193.1580255 50.96681307 191.21098333 54.28773499 189.26069641 C55.48245544 188.55948639 56.67719855 187.85831499 57.8719635 187.15718079 C58.47340179 186.80421936 59.07484009 186.45125793 59.69450378 186.08760071 C62.77577389 184.27971185 65.85775758 182.47304262 68.94007874 180.66694641 C69.55707138 180.3053241 70.17406403 179.94370178 70.80975342 179.57112122 C74.61731572 177.3406614 78.42960637 175.11851261 82.24487305 172.90126038 C84.72917949 171.45547401 87.20975971 170.00338005 89.68955994 168.54988098 C91.42363996 167.53628789 93.16239636 166.53070867 94.90126038 165.52534485 C103.69161016 160.83263255 103.69161016 160.83263255 109.27992249 153.01460266 C109.71652266 147.91183818 109.49080465 144.63938782 106.46742249 140.26069641 C103.79402158 137.38926581 100.75525079 136.36499449 96.84779358 136.0004425 C88.0599092 136.9612512 78.846803 144.24901975 71.34242249 148.69819641 C69.23990504 149.93446406 67.13702759 151.17011962 65.03382874 152.40522766 C63.41758606 153.35583069 63.41758606 153.35583069 61.76869202 154.32563782 C53.06331094 159.42834824 44.30853083 164.44624969 35.56117249 169.47651672 C32.5979695 171.18540936 29.64130137 172.90507634 26.68617249 174.62788391 C14.15417829 181.91117882 1.84197149 188.83498334 -12.09507751 193.07319641 C-12.73090759 193.26840881 -13.36673767 193.46362122 -14.02183533 193.66474915 C-27.01715543 197.34588972 -40.22618414 197.66005723 -53.63072205 197.68623352 C-56.55585178 197.69829236 -59.47897403 197.74778385 -62.40367126 197.79780579 C-64.27996322 197.80725564 -66.15626789 197.81449753 -68.03257751 197.81929016 C-69.33110657 197.84858864 -69.33110657 197.84858864 -70.65586853 197.878479 C-74.91969684 197.84669201 -77.68478238 197.5831275 -81.06944275 194.85469055 C-84.03471096 191.73188603 -84.49095467 190.30844577 -84.70054626 186.18647766 C-84.43799471 183.17629352 -83.48496535 181.53848222 -81.53257751 179.26069641 C-76.99063727 175.6855887 -72.85637271 175.80533827 -67.32164001 175.78413391 C-66.43527863 175.76855438 -65.54891724 175.75297485 -64.63569641 175.73692322 C-61.8096659 175.68952798 -58.98387871 175.66170532 -56.15757751 175.63569641 C-53.33859332 175.59904865 -50.51974194 175.55824244 -47.70088196 175.51304626 C-45.95016759 175.48611159 -44.19935778 175.46463697 -42.44850159 175.44950867 C-41.64431793 175.43924652 -40.84013428 175.42898438 -40.01158142 175.41841125 C-38.96497849 175.40866776 -38.96497849 175.40866776 -37.89723206 175.39872742 C-34.74500915 175.21472401 -31.65545586 174.71845374 -28.53257751 174.26069641 C-28.53295454 173.45562464 -28.53333157 172.65055286 -28.53372002 171.82108498 C-28.5408459 152.20622326 -28.51486059 132.59165911 -28.45229912 112.97689247 C-28.42283777 103.49119455 -28.40446674 94.00572017 -28.41246033 84.51997375 C-28.41940145 76.24943488 -28.40527266 67.97924215 -28.36614144 59.70878828 C-28.3461608 55.33200533 -28.33652884 50.95576548 -28.35215378 46.57895279 C-28.36654848 42.45331327 -28.35262179 38.32870819 -28.31762505 34.20320129 C-28.30970239 32.69484165 -28.31183971 31.18638766 -28.32518578 29.67806625 C-28.3990495 20.55339509 -27.5810417 13.50037521 -21.53257751 6.26069641 C-15.15586163 0.83370417 -8.06288552 -0.03968224 0 0 Z M-6.53257751 22.26069641 C-6.62910348 24.13364425 -6.65445018 26.01027885 -6.65283203 27.88571167 C-6.6542067 29.10713867 -6.65558136 30.32856567 -6.65699768 31.58700562 C-6.65345808 32.95292688 -6.64982326 34.3188479 -6.64610291 35.68476868 C-6.64582104 37.11346942 -6.64597876 38.54217031 -6.64654541 39.97087097 C-6.6468334 43.86119613 -6.64093638 47.75149072 -6.63397145 51.64180875 C-6.62773822 55.70307846 -6.62713414 59.7643488 -6.62594604 63.82562256 C-6.62283264 71.52148574 -6.61461913 79.21733479 -6.60459656 86.91319174 C-6.59343571 95.67241755 -6.58792504 104.43164402 -6.58290112 113.19087517 C-6.57243652 131.21415694 -6.5548369 149.23742554 -6.53257751 167.26069641 C-2.98685192 166.10217967 0.31732617 164.95690443 3.58460999 163.15132141 C4.72277161 162.52532043 4.72277161 162.52532043 5.88392639 161.88667297 C6.6952301 161.43260071 7.50653381 160.97852844 8.34242249 160.51069641 C9.21173401 160.02826477 10.08104553 159.54583313 10.97669983 159.04878235 C19.77368817 154.1399226 28.46585646 149.05261375 37.15492249 143.95600891 C46.95935459 138.20699046 56.81382997 132.5446454 66.66566467 126.87739563 C69.11753655 125.46259121 71.56363483 124.03865427 74.00648499 122.60835266 C74.97207336 122.04640198 74.97207336 122.04640198 75.95716858 121.47309875 C77.55111658 120.5450275 79.14224955 119.61212561 80.73304749 118.67866516 C89.19601974 114.29000955 98.28933339 114.03284977 107.57289124 115.87788391 C116.14560358 118.61051154 122.73647821 123.94569345 127.40492249 131.63569641 C131.9139997 140.7474649 132.40988057 150.13483116 129.74867249 159.89741516 C126.08515861 170.20894344 119.19989834 176.00779524 109.84242249 181.19819641 C107.87477888 182.32545908 105.90734163 183.45308197 103.94007874 184.58100891 C102.37024231 185.47094543 102.37024231 185.47094543 100.76869202 186.37886047 C95.52002938 189.37077673 90.31515665 192.43695639 85.10722351 195.49897766 C82.05395988 197.29390526 78.99894027 199.08583757 75.94398499 200.87788391 C75.33430374 201.23573975 74.7246225 201.59359558 74.09646606 201.96229553 C70.25891831 204.21376442 66.41612538 206.45601145 62.57009888 208.69296265 C60.03499077 210.16927669 57.50343839 211.65161056 54.97264099 213.13529968 C53.76588027 213.84094361 52.55757438 214.54395201 51.34770203 215.24424744 C49.67923769 216.21039909 48.01652229 217.18645863 46.35414124 218.16304016 C44.93427917 218.99049744 44.93427917 218.99049744 43.48573303 219.83467102 C42.81969055 220.3052594 42.15364807 220.77584778 41.46742249 221.26069641 C41.46742249 221.92069641 41.46742249 222.58069641 41.46742249 223.26069641 C44.33547048 224.69472041 46.79653549 224.39592178 50.00233459 224.40596008 C51.01037895 224.410998 51.01037895 224.410998 52.03878784 224.4161377 C54.2741326 224.42567673 56.50940234 224.42759396 58.74476624 224.42866516 C60.31064891 224.43188173 61.87653128 224.4352461 63.44241333 224.43875122 C66.74038892 224.44475402 70.0383383 224.44659054 73.33631897 224.44599915 C76.68500758 224.4459186 80.03355736 224.45274003 83.38221741 224.46650696 C115.69746559 225.01115055 115.69746559 225.01115055 147.21742249 218.76069641 C148.32069885 218.41901428 149.42397522 218.07733215 150.5606842 217.72529602 C154.20277689 216.59008843 157.83505186 215.42661378 161.46742249 214.26069641 C162.87441919 213.81482067 164.28165349 213.36969414 165.68910217 212.92524719 C169.99279907 211.56596589 174.29366017 210.19800221 178.59242249 208.82319641 C179.28348083 208.60228333 179.97453918 208.38137024 180.6865387 208.15376282 C182.63818746 207.52783493 184.5882356 206.89718892 186.53773499 206.26460266 C188.22020325 205.72041687 188.22020325 205.72041687 189.93666077 205.16523743 C192.37264246 204.49809825 192.37264246 204.49809825 193.46742249 203.26069641 C193.56725722 200.92272638 193.60185135 198.61424438 193.59440613 196.27571106 C193.59596612 195.53643922 193.59752611 194.79716739 193.59913337 194.03549337 C193.60314608 191.53957768 193.59995269 189.04372201 193.59681702 186.54780579 C193.59817094 184.76605188 193.59995082 182.98429826 193.60212708 181.20254517 C193.6067025 176.34937929 193.6049114 171.49623458 193.60174799 166.64306831 C193.59922495 161.57595384 193.60156177 156.50884123 193.60313416 151.44172668 C193.60495602 142.93069634 193.60254911 134.41967466 193.59779358 125.90864563 C193.59235093 116.05375967 193.59411357 106.19889439 193.59961998 96.34400892 C193.60415065 87.89903063 193.60480189 79.45405857 193.60218132 71.00907946 C193.60061828 65.95815727 193.60042549 60.90724482 193.6037178 55.85632324 C193.60659584 51.10892959 193.60462208 46.36156273 193.59882355 41.61417198 C193.59749558 39.86657951 193.59789067 38.1189848 193.60008621 36.3713932 C193.60279631 33.99612508 193.59941834 31.62094424 193.59440613 29.24568176 C193.59663685 28.54501508 193.59886757 27.8443484 193.60116589 27.1224494 C193.85806857 23.91317457 193.85806857 23.91317457 192.46742249 21.26069641 C189.72848164 21.17210995 187.01488978 21.14546162 184.27601624 21.16304016 C183.04625816 21.16516258 183.04625816 21.16516258 181.79165649 21.16732788 C179.16270866 21.17294352 176.53384475 21.18549862 173.90492249 21.19819641 C172.12692892 21.2032094 170.34893403 21.20777265 168.57093811 21.21186829 C164.20306703 21.22291803 159.83525901 21.2401931 155.46742249 21.26069641 C155.2769635 22.41392395 155.08650452 23.56715149 154.89027405 24.75532532 C154.62982773 26.29102006 154.36906893 27.82666182 154.10804749 29.36225891 C153.98381409 30.1196637 153.85958069 30.87706848 153.73158264 31.65742493 C151.16322663 46.62334846 143.38253954 61.16340138 130.89710999 70.10054016 C115.52040934 80.23031649 99.68152312 83.97977483 81.46742249 81.26069641 C65.57094671 77.82649118 51.71919584 69.57585645 42.59242249 55.88569641 C37.5971479 47.32919735 34.42657813 39.11552597 32.82679749 29.36225891 C32.69386292 28.58020081 32.56092834 27.7981427 32.42396545 26.99238586 C32.10008683 25.08266913 31.78304611 23.17179481 31.46742249 21.26069641 C26.21636806 21.23604713 20.96534703 21.21786073 15.71424866 21.20576477 C13.92648228 21.20072423 12.13872004 21.19389187 10.35096741 21.18525696 C7.7869108 21.17317911 5.22290851 21.16746547 2.65882874 21.16304016 C1.85466019 21.15787888 1.05049164 21.15271759 0.22195435 21.1473999 C-3.45561543 20.7932863 -3.45561543 20.7932863 -6.53257751 22.26069641 Z M52.46742249 21.26069641 C54.11844169 34.46885003 58.88215283 44.03511772 69.11976624 52.65522766 C77.83451611 58.61489854 88.01161195 61.2679726 98.46742249 60.26069641 C111.39458665 57.51857068 120.53781415 51.81552656 128.46742249 41.26069641 C132.36282579 35.12283541 134.46742249 28.56048472 134.46742249 21.26069641 C107.40742249 21.26069641 80.34742249 21.26069641 52.46742249 21.26069641 Z " fill="#000000" transform="translate(162.53257751464844,97.73930358886719)"/>
</svg>
