<?xml version="1.0" encoding="UTF-8"?>
<svg version="1.1" xmlns="http://www.w3.org/2000/svg" width="512" height="512">
<path d="M0 0 C3.1850357 1.76015131 3.83296972 2.49890916 5 6 C5.08911985 7.35201656 5.12465131 8.70799191 5.12457275 10.0629425 C5.12841728 11.30090324 5.12841728 11.30090324 5.13233948 12.56387329 C5.13023972 13.46616669 5.12813995 14.36846008 5.12597656 15.2980957 C5.1278447 16.25140274 5.12971283 17.20470978 5.13163757 18.18690491 C5.13564482 20.26089012 5.13771671 22.33487975 5.13809967 24.40886879 C5.14151926 28.83265122 5.16289606 33.25628723 5.18333054 37.68001842 C5.22128731 45.91470853 5.25262604 54.14924563 5.25048828 62.3840332 C5.24969673 68.11302371 5.27326011 73.84148214 5.3123703 79.57033348 C5.3227707 81.74415883 5.32439875 83.91804605 5.31671906 86.09188271 C5.26496195 102.37912023 6.12560694 116.58022772 18 129 C18.60714844 129.63550781 19.21429688 130.27101562 19.83984375 130.92578125 C29.36821544 140.02547364 41.65550394 143.55151845 54.5625 143.3125 C66.63444066 142.21505085 78.11829431 136.86657097 86.40625 127.97265625 C94.21066828 118.31277578 97.46456623 108.1742954 97.40063477 95.85620117 C97.40761383 94.89716888 97.4145929 93.9381366 97.42178345 92.95004272 C97.44160465 89.81425942 97.44125942 86.67880879 97.44140625 83.54296875 C97.45318972 81.34962588 97.46655631 79.15629101 97.48143005 76.96296692 C97.51748677 71.21270346 97.53778287 65.46251087 97.55297852 59.7121582 C97.57788665 50.49167786 97.61745866 41.27135394 97.67487907 32.05101967 C97.6911913 28.83534184 97.6949833 25.61981258 97.69789124 22.40409851 C97.70766619 20.43500511 97.71792925 18.46591405 97.72875977 16.49682617 C97.72620682 15.60478989 97.72365387 14.7127536 97.72102356 13.79368591 C97.75669909 9.48094631 97.78842157 5.83812485 100 2 C103.7205836 -0.48038907 105.59796571 -0.46337203 110 0 C112.18457031 1.45214844 112.18457031 1.45214844 114 4 C114.60956079 7.04235625 114.60492322 10.04517671 114.609375 13.140625 C114.62591125 14.02280701 114.64244751 14.90498901 114.65948486 15.81390381 C114.70799194 18.6260065 114.72934155 21.43756832 114.75 24.25 C114.77815746 26.15888142 114.80808457 28.06773761 114.83984375 29.9765625 C114.91375154 34.65099714 114.96330955 39.32513106 115 44 C116.17320801 43.10486694 116.17320801 43.10486694 117.37011719 42.19165039 C161.43592715 8.81041086 217.98912962 -5.93951797 272.875 1.125 C318.15091066 7.61133614 359.06974499 26.85844354 392.23828125 58.38671875 C395.40097504 61.37942334 398.66238061 64.205714 402 67 C402.37318359 65.93458984 402.37318359 65.93458984 402.75390625 64.84765625 C412.26174089 43.11972067 438.17325365 23.09668741 459 13 C463.10873125 11.89285685 465.17738371 12.03703488 469 14 C471.87273954 16.87273954 471.25287436 18.86001077 471.25726891 22.88677979 C471.26077498 23.60702707 471.26428105 24.32727436 471.26789337 25.06934732 C471.27727305 27.50756959 471.27226729 29.94555643 471.26742554 32.38378906 C471.27115854 34.13968 471.27575865 35.89556927 471.28115618 37.65145588 C471.29344568 42.49612195 471.29311873 47.34071927 471.29076743 52.18539739 C471.29036074 57.40306376 471.30138445 62.62070764 471.31088257 67.83836365 C471.32752777 78.06975952 471.33299376 88.30113235 471.33410732 98.53254062 C471.33505645 106.84905915 471.33915995 115.16557006 471.34550858 123.48208618 C471.36313314 147.04874175 471.37234593 170.61537908 471.37084763 194.18204129 C471.37076772 195.45373036 471.3706878 196.72541943 471.37060547 198.03564453 C471.37052371 199.30888293 471.37044195 200.58212133 471.37035771 201.89394271 C471.3695452 222.51854398 471.3886709 243.14307215 471.4168822 263.76765227 C471.44560497 284.93290136 471.45942272 306.09811479 471.45769465 327.26338387 C471.45703038 339.15067757 471.46253849 351.03789472 471.48405075 362.9251709 C471.50225488 373.04965241 471.50661642 383.17402269 471.4930319 393.29851347 C471.48649748 398.46427382 471.48640213 403.62982074 471.5037384 408.79556084 C471.51945381 413.52704967 471.51662099 418.25815559 471.49917014 422.98963499 C471.4960968 424.69903019 471.49974522 426.40845386 471.51089029 428.11781549 C471.5925131 441.52760872 469.92509832 450.81981536 460.3671875 460.80078125 C451.90593903 468.6616441 443.22227954 470.48575513 431.796875 470.31640625 C422.74728728 469.56227394 414.57225295 465.9367079 408.3828125 459.25390625 C400.90111167 450.00414179 398.39872453 439.78984313 399.3053894 428.04351807 C399.80958277 423.36337249 400.4503017 418.70225641 401.08984375 414.0390625 C401.31661268 412.31813246 401.54222425 410.59704956 401.76673889 408.87582397 C402.35648531 404.37523034 402.95992564 399.87658692 403.56695557 395.3782959 C404.53847743 388.15949322 405.48786994 380.93773909 406.43924141 373.716259 C406.7722471 371.20253502 407.11047702 368.68955901 407.44969177 366.17666626 C407.65525623 364.63552831 407.86075015 363.09438094 408.06616211 361.55322266 C408.16124054 360.85912292 408.25631897 360.16502319 408.35427856 359.44989014 C408.81824353 355.94098617 409.1018774 352.53979369 409 349 C408.52433594 349.54785156 408.04867188 350.09570312 407.55859375 350.66015625 C395.51538638 364.30025299 382.87542109 376.47069998 368 387 C367.13737549 387.61367432 367.13737549 387.61367432 366.25732422 388.23974609 C345.6530194 402.68305019 322.25178907 413.07665992 297.9375 419.3125 C296.59377319 419.65837158 296.59377319 419.65837158 295.22290039 420.01123047 C278.88380616 423.94811765 262.6492278 425.56096251 245.875 425.4375 C244.98913208 425.43445862 244.10326416 425.43141724 243.19055176 425.42828369 C220.66204428 425.31457482 199.41239157 422.18282036 178 415 C176.72745361 414.57509277 176.72745361 414.57509277 175.42919922 414.14160156 C141.82136584 402.67070237 113.74127506 383.24444776 89 358 C88.84114233 371.50731457 89.40656262 384.92076355 90.14550781 398.40527344 C90.68734429 408.40528949 91.10334653 418.39034417 91.16015625 428.40625 C91.17411438 429.7005191 91.17411438 429.7005191 91.18835449 431.02093506 C91.18559399 442.20677023 87.82952216 450.93791778 80 459 C71.00112781 467.57359468 61.51305608 470.63198229 49.27734375 470.47070312 C38.76143956 470.02862129 30.60482388 466.2780541 23 459 C15.23773672 450.51002453 11.80665948 441.19044093 11.86964417 429.81771851 C11.87384915 428.56894474 11.87384915 428.56894474 11.87813908 427.29494321 C11.96383327 416.15735732 12.54261092 405.03915612 13.08569336 393.91650391 C13.20267734 391.45208513 13.31926859 388.98764769 13.4355011 386.52319336 C13.71716887 380.57291261 14.00296622 374.62283909 14.29076093 368.67285235 C14.62665093 361.72463667 14.95767069 354.77619136 15.28852767 347.82773452 C15.87933996 335.42322707 16.47443548 323.01892891 17.07202148 310.61474609 C17.65031235 298.61098653 18.22563079 286.60708946 18.79760742 274.60302734 C18.83288597 273.86264645 18.86816451 273.12226555 18.9045121 272.35944887 C18.9397326 271.62027449 18.97495311 270.88110011 19.0112409 270.11952651 C19.08217628 268.63082982 19.15311313 267.14213321 19.22405148 265.65343666 C19.25904595 264.91904823 19.29404043 264.1846598 19.33009535 263.42801718 C19.87778625 251.93698147 20.42828362 240.44608001 20.97902538 228.95519019 C21.17772593 224.80861083 21.37599763 220.66201123 21.57394712 216.51539595 C21.91733886 209.32216435 22.26265779 202.12902784 22.610075 194.93598938 C22.72479593 192.55488019 22.8388886 190.17374063 22.95228958 187.79256821 C24.05261467 164.70567026 24.05261467 164.70567026 25 154 C24.21915039 153.69457275 23.43830078 153.38914551 22.63378906 153.07446289 C9.21034515 147.5983249 -0.77114481 135.57517988 -6.5078125 122.5859375 C-9.88187953 114.04472781 -11.15113823 107.06956996 -11.17700195 97.94897461 C-11.18357315 96.94029831 -11.19014435 95.93162201 -11.19691467 94.89237976 C-11.21658969 91.56236697 -11.22829354 88.23239901 -11.23828125 84.90234375 C-11.24235678 83.76453524 -11.2464323 82.62672672 -11.25063133 81.45443916 C-11.27146108 75.43927315 -11.28577971 69.42412979 -11.29516602 63.40893555 C-11.30626146 57.18886793 -11.34070641 50.969155 -11.38033772 44.74921322 C-11.40642948 39.97005023 -11.41485092 35.19097303 -11.41844749 30.41174507 C-11.42332783 28.11796214 -11.43498267 25.82418339 -11.45348549 23.53046989 C-11.47773205 20.32723258 -11.47693896 17.12493109 -11.4699707 13.92163086 C-11.48278076 12.97139038 -11.49559082 12.0211499 -11.50878906 11.04211426 C-11.45801304 4.65586097 -11.45801304 4.65586097 -9.18937683 1.40724182 C-5.98707643 -0.65106582 -3.72415299 -0.46551912 0 0 Z M114 66 C113.87645726 68.97229302 113.81376157 71.92483925 113.7890625 74.8984375 C113.7609566 76.75912282 113.73229197 78.61979976 113.703125 80.48046875 C113.6621322 83.41389395 113.62525254 86.3471691 113.59863281 89.28076172 C113.39052175 110.38250617 113.39052175 110.38250617 110 119 C109.75040527 119.65162109 109.50081055 120.30324219 109.24365234 120.97460938 C103.06755946 135.85502029 92.08678576 146.50702885 78 154 C77.91318612 163.1941173 78.16930196 172.33460712 78.62670898 181.51660156 C78.69431712 182.91947675 78.76165095 184.32236518 78.82873535 185.7252655 C79.00984932 189.49631947 79.19481427 193.26717528 79.38057208 197.03800297 C79.57579393 201.01373529 79.76754389 204.98963522 79.95973206 208.96551514 C80.28299767 215.64296582 80.60858356 222.32029996 80.93579102 228.99755859 C81.35332867 237.51835703 81.76718563 246.03932991 82.17980862 254.56036758 C82.5373987 261.94461363 82.89653965 269.32878414 83.25600171 276.71293926 C83.37008833 279.05746318 83.48399966 281.40199558 83.59789848 283.74652863 C83.67172966 285.26430848 83.7455775 286.78208753 83.81944275 288.29986572 C83.8550958 289.03355007 83.89074886 289.76723443 83.92748231 290.52315164 C84.09882472 294.03786789 84.27298561 297.55239968 84.4538641 301.06663895 C84.73708919 306.5810706 85.01499298 312.0923165 85.18704224 317.6114502 C85.21730279 318.40753063 85.24756334 319.20361107 85.27874088 320.02381516 C85.35135204 321.97247259 85.40682704 323.9217507 85.46009827 325.87103271 C86.52057564 332.01696412 90.69600472 335.77792556 95 340 C95.92829985 341.01118966 96.84870584 342.02967406 97.76171875 343.0546875 C100.45990681 346.08360293 103.22034557 349.04557688 106 352 C106.65484375 352.70898438 107.3096875 353.41796875 107.984375 354.1484375 C132.761325 380.09011591 167.54345578 396.73838042 202 405 C202.87446777 405.21172852 203.74893555 405.42345703 204.64990234 405.64160156 C229.58106576 411.38619317 259.00578351 411.77266154 284 406 C284.77182617 405.82839355 285.54365234 405.65678711 286.33886719 405.47998047 C322.49360557 397.26032337 354.77855839 379.95547185 381.56787109 354.36474609 C382.94699053 353.05051533 384.34235213 351.75339339 385.73828125 350.45703125 C393.81981424 342.72636076 400.50686262 334.08132612 407 325 C407.43570312 324.3930127 407.87140625 323.78602539 408.3203125 323.16064453 C413.63660911 315.61278954 416.29449038 309.19876007 417 300 C417.2475 298.7625 417.495 297.525 417.75 296.25 C416.6483766 291.47629861 413.6322875 289.91453331 409.7890625 287.078125 C392.7585867 274.38875087 383.65221724 254.79088508 380.29263687 234.24880028 C379.33270977 226.87213468 379.57336155 219.36887426 379.6015625 211.9453125 C379.59953342 210.03123871 379.59661513 208.11716568 379.59286499 206.20309448 C379.58847011 202.20758646 379.59477323 198.2122811 379.60888672 194.21679688 C379.62586257 189.17305062 379.61591263 184.12978312 379.59856606 179.08605385 C379.50066641 145.58795573 381.68013596 114.79195859 393 83 C390.02322137 79.64521773 387.02135723 76.31469288 384 73 C383.45085937 72.39414063 382.90171875 71.78828125 382.3359375 71.1640625 C377.0475435 65.60446881 370.91138492 61.0095921 364.81445312 56.38330078 C363.15009294 55.11442769 361.50376421 53.82199346 359.859375 52.52734375 C343.55858379 40.18130114 324.46863336 31.10680592 305 25 C303.87803223 24.64518555 303.87803223 24.64518555 302.73339844 24.28320312 C239.78548871 4.75230892 161.69018079 18.30981921 114 66 Z M446.875 40.5625 C446.28895996 41.01995605 445.70291992 41.47741211 445.09912109 41.94873047 C428.02455773 55.36075998 415.89672396 71.23353006 407 91 C406.52820313 92.03253906 406.05640625 93.06507812 405.5703125 94.12890625 C402.77624589 100.7843382 400.96838499 107.61722152 399.3125 114.625 C399.00856323 115.88401123 399.00856323 115.88401123 398.69848633 117.16845703 C395.18913359 132.88368118 394.68476356 148.92053759 394.69921875 164.95703125 C394.69531501 166.80205885 394.69097702 168.64708557 394.68623352 170.49211121 C394.67885178 174.32151228 394.67900553 178.150821 394.68432617 181.98022461 C394.69014494 186.84920316 394.67309246 191.71780428 394.6499815 196.58672047 C394.63515376 200.38319549 394.63438409 204.17958109 394.63749123 207.97607994 C394.6369837 209.77034954 394.63185505 211.56462492 394.62167931 213.35886574 C394.55400123 226.94161588 395.14506216 240.07065901 401.75 252.3125 C402.27388306 253.3178479 402.27388306 253.3178479 402.80834961 254.34350586 C405.67006288 259.69310207 408.92377154 264.49172889 413 269 C413.51820313 269.598125 414.03640625 270.19625 414.5703125 270.8125 C418.94825627 275.54998505 424.08846622 278.86852271 429.5234375 282.30078125 C432 284 432 284 433 286 C433.34105692 293.66990294 432.35427632 301.04877549 431.31591797 308.63867188 C431.13478785 309.99476444 430.95422088 311.35093231 430.77416992 312.70716858 C430.38767078 315.61144445 429.99777909 318.51523694 429.60534286 321.41871643 C428.98451347 326.01632262 428.37478678 330.61535966 427.76712036 335.21472168 C426.03844002 348.2877475 424.29899154 361.35929951 422.53955078 374.42822266 C421.56624728 381.65852189 420.60419966 388.89022837 419.6544162 396.1236558 C419.05421479 400.68990725 418.44038227 405.25404555 417.81625724 409.81708527 C417.43048096 412.66239778 417.05792907 415.50932809 416.68901062 418.35687065 C416.4343676 420.29235391 416.16419894 422.22577501 415.89346313 424.15907288 C414.92009177 431.8104798 414.38684311 438.64922848 418.515625 445.5234375 C423.68726978 451.04451773 427.6043165 454.07186317 435.375 454.5 C441.05970198 454.33757994 444.72870916 452.69572682 449 449 C453.76925987 443.85421961 455.2504388 440.20822768 455.24609566 433.19839096 C455.24840335 432.51167261 455.25071103 431.82495427 455.25308865 431.11742628 C455.25840246 428.80538072 455.24939322 426.49361105 455.24050903 424.18157959 C455.24138082 422.51170736 455.2431313 420.84183539 455.24568737 419.17196488 C455.25017022 414.57473161 455.24214435 409.97759111 455.23213124 405.38036966 C455.22351253 400.42606511 455.22641578 395.47176599 455.22793579 390.51745605 C455.22898564 381.93093369 455.22269857 373.34444167 455.21146011 364.75792694 C455.19522166 352.34319688 455.1899988 339.92848153 455.18748413 327.513742 C455.18310443 307.37275978 455.16978786 287.23179374 455.15087891 267.09082031 C455.13252723 247.5231128 455.11836724 227.95540969 455.10986328 208.38769531 C455.10933783 207.18199999 455.10881239 205.97630467 455.10827102 204.73407313 C455.10566099 198.68559091 455.10313356 192.63710866 455.10064721 186.58862638 C455.07990614 136.39240641 455.04467312 86.19620399 455 36 C451.65583148 36 449.41211681 38.56726388 446.875 40.5625 Z M41 159 C39.1165198 185.75566755 37.84670717 212.53722183 36.57599211 239.3277905 C36.33589853 244.383236 36.0941674 249.43860271 35.8524605 254.49397129 C35.25008888 267.09339352 34.65085411 279.69296245 34.05315419 292.29260688 C33.53593977 303.19359641 33.0148221 314.09439525 32.49186949 324.99511088 C31.95136799 336.26226242 31.41340781 347.52953281 30.87802184 358.79692882 C30.57880264 365.09370425 30.27864984 371.39043141 29.97602463 377.68704414 C29.69230295 383.59284149 29.41184179 389.49878506 29.13382912 395.40485382 C29.0317813 397.56149396 28.92861794 399.71808168 28.82421303 401.87460899 C26.3141786 425.05790102 26.3141786 425.05790102 33.25 446.25 C38.38695322 451.38695322 43.95128072 454.09247368 51.25 454.25 C58.92501419 454.13657614 64.55684733 451.44315267 70 446 C79.60384029 432.34597787 74.68529185 410.16265602 73.91430664 394.39306641 C73.7973836 391.94392397 73.68079022 389.49476578 73.5644989 387.04559326 C73.28234269 381.12200042 72.99665877 375.19858421 72.70923907 369.27524503 C72.37399238 362.36343558 72.04268697 355.45143882 71.71147233 348.53943519 C71.12017881 336.20305526 70.52510583 323.86686052 69.92797852 311.53076172 C69.34964958 299.58299426 68.77440034 287.63508349 68.20239258 275.68701172 C67.57780304 262.64070832 66.95158528 249.59448506 66.32248396 236.54839838 C66.25534268 235.1560182 66.18820181 233.763638 66.12106133 232.37125778 C66.08803271 231.68635714 66.0550041 231.0014565 66.02097462 230.29580129 C65.78913983 225.48632142 65.55841059 220.67678926 65.32808113 215.86723709 C65.01787697 209.39094997 64.704835 202.91480362 64.389925 196.43874359 C64.27495493 194.06606433 64.16085822 191.69334257 64.04771042 189.32057571 C63.89281738 186.07554408 63.73471609 182.83068373 63.57582092 179.58584595 C63.53204238 178.6531512 63.48826385 177.72045646 63.44315869 176.75949824 C63.39936689 175.87860604 63.3555751 174.99771384 63.31045628 174.09012794 C63.27438284 173.34315765 63.23830941 172.59618736 63.20114285 171.8265816 C62.896331 167.54318021 62.42729216 163.27292162 62 159 C55.07 159 48.14 159 41 159 Z " fill="#000000" transform="translate(26,21)"/>
<path d="M0 0 C23.58478178 21.94798305 36.02710998 49.70100524 38.140625 81.76953125 C38.69214589 113.89562295 26.91152559 142.97637802 4.9074707 166.1159668 C-15.76165534 187.23805273 -43.91244448 199.33569391 -73.44067383 200.09204102 C-106.16353595 200.41190101 -134.62076785 189.51291547 -158.2409668 166.86083984 C-163.92806126 161.25149383 -168.89841192 155.53684114 -173.0625 148.6875 C-173.40732422 148.14351562 -173.75214844 147.59953125 -174.10742188 147.0390625 C-185.88797359 128.33718145 -191.47243124 108.03894744 -191.375 86 C-191.37284485 85.33764343 -191.3706897 84.67528687 -191.36846924 83.99285889 C-191.20305598 52.30713624 -179.00144656 24.66895576 -156.58984375 2.15332031 C-139.60019605 -14.15196178 -118.18220267 -24.38595988 -95.0625 -28.3125 C-94.32386719 -28.44398437 -93.58523437 -28.57546875 -92.82421875 -28.7109375 C-58.91980196 -33.58264011 -25.49821415 -22.25154713 0 0 Z M-150.375 19 C-169.54080325 41.18206081 -176.68772495 66.65156427 -175.29443359 95.67333984 C-173.70608853 116.31513786 -163.71731472 136.36173281 -150.0625 151.6875 C-149.39863281 152.43386719 -148.73476562 153.18023437 -148.05078125 153.94921875 C-131.41251117 171.57163789 -107.43324543 183.1561845 -83.09375 183.890625 C-56.21180901 184.27125854 -31.17229544 177.11396429 -11.0625 158.6875 C-9.69158203 157.45580078 -9.69158203 157.45580078 -8.29296875 156.19921875 C10.58183039 138.38035243 20.76246673 114.14221145 21.9140625 88.3503418 C22.59892524 60.0905815 11.27714508 34.93283972 -7.8125 14.5 C-27.65978633 -4.35492202 -53.45349216 -13.95929836 -80.70703125 -13.52734375 C-107.34454993 -12.56252024 -132.14186704 -0.13353459 -150.375 19 Z " fill="#000000" transform="translate(348.0625,148.3125)"/>
<path d="M0 0 C2.5560606 1.34529505 3.71088213 2.09194722 4.59320545 4.86312199 C5.28238296 8.48334814 5.14724969 12.14751565 5.14526367 15.82006836 C5.14862228 16.70994949 5.1519809 17.59983063 5.15544128 18.51667786 C5.16493872 21.45774736 5.16689371 24.39875987 5.16796875 27.33984375 C5.17118188 29.38481164 5.17454599 31.4297793 5.17805481 33.4747467 C5.18404284 37.7610833 5.18589501 42.04739975 5.18530273 46.33374023 C5.18520106 51.82610019 5.19885987 57.31833102 5.21607494 62.81066036 C5.22719242 67.03398737 5.22922203 71.25728311 5.22869301 75.48062325 C5.22987325 77.50561532 5.23429749 79.53060819 5.24202538 81.55558586 C5.25182124 84.38732842 5.2489489 87.21879004 5.24291992 90.05053711 C5.24853943 90.88654449 5.25415894 91.72255188 5.25994873 92.58389282 C5.2371968 96.78873867 5.13024268 100.24644857 3 104 C-0.7205836 106.48038907 -2.59796571 106.46337203 -7 106 C-9.19030762 104.56323242 -9.19030762 104.56323242 -11 102 C-11.59618853 98.87366551 -11.54627672 95.78800998 -11.51757812 92.61328125 C-11.5245874 91.6632724 -11.53159668 90.71326355 -11.53881836 89.73446655 C-11.55642662 86.59351389 -11.54476528 83.45346186 -11.53125 80.3125 C-11.53394409 78.13061347 -11.53782582 75.94872812 -11.54284668 73.7668457 C-11.54874558 69.19373139 -11.54016592 64.62092956 -11.52148438 60.04785156 C-11.4986949 54.1830203 -11.51181584 48.31892121 -11.53577423 42.45411682 C-11.55022144 37.94855218 -11.5456311 33.4431614 -11.53526306 28.93759155 C-11.53259281 26.77501336 -11.53587597 24.61241944 -11.54518127 22.44985962 C-11.55532887 19.4283867 -11.53987025 16.40810299 -11.51757812 13.38671875 C-11.52567505 12.49101166 -11.53377197 11.59530457 -11.54211426 10.67245483 C-11.4596889 4.64870684 -11.4596889 4.64870684 -9.18640137 1.44067383 C-5.99143636 -0.66456747 -3.74071389 -0.46758924 0 0 Z " fill="#000000" transform="translate(81,21)"/>
</svg>
