<?xml version="1.0" encoding="UTF-8"?>
<svg version="1.1" xmlns="http://www.w3.org/2000/svg" width="512" height="512">
<path d="M0 0 C2.76463849 -1.31806091 5.25673712 -2.78514624 7.765625 -4.5390625 C44.24912775 -29.69401724 85.85970999 -39.8956258 129.875 -32.375 C169.85804508 -24.8266815 206.16240132 -1.9114976 229.5625 31.5625 C253.28774484 66.52979591 263.1769595 110.03293972 255.4375 151.875 C251.35115769 171.7975627 243.69243168 189.87036805 233.1875 207.1875 C232.83389404 207.78022705 232.48028809 208.3729541 232.1159668 208.98364258 C223.33749029 222.97144937 210.81248614 234.49073599 199.21875 246.08764648 C197.44150778 247.87252453 195.66466341 249.6577988 193.88818359 251.44343567 C189.09565374 256.2577625 184.29671768 261.0656472 179.49581909 265.87162662 C176.49186565 268.87885709 173.48954368 271.88771277 170.48754883 274.89689827 C162.15396058 283.25001348 153.81882718 291.60157777 145.47692871 299.94639492 C144.94547698 300.47803423 144.41402524 301.00967353 143.86646891 301.55742312 C142.78944522 302.63481301 141.71242028 303.71220165 140.6353941 304.78958904 C140.10087029 305.32429565 139.56634649 305.85900227 139.015625 306.40991211 C138.21284606 307.21296187 138.21284606 307.21296187 137.39384937 308.03223485 C128.70785578 316.72177593 120.03368801 325.42301939 111.3646059 334.12942909 C102.43637452 343.09579256 93.4987649 352.0527165 84.5515976 361.00018555 C79.53914944 366.01321663 74.53067761 371.03007607 69.5324707 376.0573101 C64.83579019 380.78114504 60.12631502 385.49184326 55.40802002 390.19410515 C53.68281545 391.91749705 51.9618448 393.6451398 50.24554443 395.37739944 C33.66801029 412.09960539 33.66801029 412.09960539 24 416 C22.37771484 416.70576172 22.37771484 416.70576172 20.72265625 417.42578125 C5.80246492 422.39917836 -8.47229534 421.79721133 -22.98828125 415.609375 C-30.63486648 411.52326201 -36.90785936 406.53343381 -42.99362183 400.39405823 C-43.74492406 399.64814153 -44.49622629 398.90222484 -45.27029526 398.1337046 C-47.76660462 395.65161428 -50.25215604 393.15903418 -52.73779297 390.66625977 C-54.53344586 388.87631378 -56.32972714 387.086998 -58.12658691 385.29826355 C-62.4884393 380.95246904 -66.84320377 376.59968434 -71.19440709 372.24323047 C-74.73614349 368.6974398 -78.28063191 365.1544224 -81.8270607 361.61332512 C-82.33333181 361.10780243 -82.83960291 360.60227975 -83.36121557 360.08143819 C-84.39002337 359.05416202 -85.41883453 358.0268892 -86.44764902 356.99961971 C-96.08293038 347.37804739 -105.70863236 337.74693637 -115.33131613 328.11276739 C-124.10836156 319.32580509 -132.89676326 310.55030463 -141.69073389 301.78028382 C-150.74450352 292.75098365 -159.7907686 283.71422793 -168.82899582 274.66936916 C-173.89356831 269.60132005 -178.96089464 264.53610577 -184.03600693 259.47860909 C-188.81431385 254.71668338 -193.58183309 249.94420173 -198.34259033 245.16472054 C-200.08251028 243.42113751 -201.82577843 241.68088759 -203.57278824 239.94440842 C-215.66538626 227.91909899 -226.57671481 215.62375713 -235.1875 200.8125 C-235.59057373 200.11946777 -235.99364746 199.42643555 -236.40893555 198.71240234 C-249.17425124 176.04812114 -255.38929617 150.4655147 -255.31567383 124.57226562 C-255.31252247 122.2664412 -255.33604239 119.96191638 -255.36132812 117.65625 C-255.41900686 104.13936059 -253.4951233 91.08807502 -249.8125 78.0625 C-249.5016748 76.96156006 -249.5016748 76.96156006 -249.18457031 75.83837891 C-237.45870257 36.29511905 -209.20130419 3.53371136 -173.45703125 -16.32983398 C-118.80001933 -45.6817393 -47.92254404 -40.20168972 0 0 Z M-156 10 C-157.47533203 10.70769531 -157.47533203 10.70769531 -158.98046875 11.4296875 C-166.67337199 15.35939565 -173.3815031 20.50355295 -180 26 C-180.51739746 26.42941895 -181.03479492 26.85883789 -181.56787109 27.30126953 C-205.15318661 47.186634 -220.20651884 76.4500223 -224 107 C-224.89099594 123.80725578 -225.04875509 140.81301418 -220 157 C-219.75862305 157.7822998 -219.51724609 158.56459961 -219.26855469 159.37060547 C-210.52833572 186.81709183 -193.49427676 205.97019895 -173.40307617 226.00097656 C-171.66970965 227.74005996 -169.93697027 229.47976864 -168.20480347 231.220047 C-164.0260332 235.41476778 -159.84038015 239.60253622 -155.6509917 243.78664586 C-152.24546049 247.18810702 -148.84272789 250.59234474 -145.44188881 253.99849701 C-144.71113713 254.73037132 -144.71113713 254.73037132 -143.96562279 255.47703098 C-142.97553626 256.46864919 -141.98545306 257.46027073 -140.99537317 258.45189556 C-131.75785508 267.70307172 -122.51086581 276.94473411 -113.260761 286.18332252 C-104.80898496 294.62513815 -96.36875814 303.07839391 -87.93390354 311.53711417 C-79.24451363 320.25090262 -70.54775017 328.95726671 -61.84282666 337.65553832 C-56.96680686 342.5280721 -52.09366566 347.40340032 -47.22817039 352.28644562 C-42.66147382 356.86941277 -38.08435025 361.44179513 -33.500103 366.00720787 C-31.82128881 367.68233423 -30.14586875 369.36087024 -28.47413445 371.04306221 C-26.18995205 373.34043947 -23.89375949 375.6251111 -21.59416199 377.90704346 C-20.93763443 378.57317602 -20.28110687 379.23930859 -19.60468453 379.92562699 C-14.04758047 385.39539487 -8.02032931 389.42029287 -0.06640625 390.02734375 C11.68287326 389.87187124 18.73963483 382.56483138 26.60762024 374.6598053 C27.32948318 373.94247347 28.05134612 373.22514164 28.7950837 372.48607248 C31.19536742 370.0983761 33.58852013 367.7036633 35.98168945 365.30883789 C37.70844462 363.58807165 39.43560785 361.8677148 41.16314697 360.1477356 C45.35815579 355.96853111 49.54840052 351.78458906 53.73607198 347.59803534 C57.14492973 344.19013118 60.55536895 340.7838177 63.96690941 337.37859917 C73.66324349 327.69986483 83.35538745 318.01696244 93.04217456 308.32867307 C93.56345959 307.80730813 94.08474462 307.28594318 94.62182617 306.7487793 C95.14375556 306.22676815 95.66568495 305.704757 96.20343038 305.16692733 C104.64879972 296.72074632 113.10408567 288.28457133 121.56396053 279.85292167 C130.27410772 271.17160292 138.9766721 262.48274481 147.67155617 253.78613847 C152.5436047 248.91342929 157.41861103 244.04377155 162.30181313 239.18223763 C166.90024343 234.60408295 171.48804364 230.01544403 176.06910706 225.41991043 C177.74290025 223.74404044 179.42004882 222.07151318 181.10095787 220.40278053 C208.94875282 192.74353297 226.19865464 161.96437135 226.5 122 C226.2907585 91.795707 216.60091028 64.12433675 197 41 C196.57493164 40.49130371 196.14986328 39.98260742 195.71191406 39.45849609 C174.46015087 14.23302097 143.06821704 -0.67346458 110.41333008 -3.60131836 C78.73150414 -5.87510409 46.65958441 3.84509955 22 24 C19.98179666 25.77493212 18.0255848 27.60011682 16.0625 29.4375 C8.07205592 36.85636487 8.07205592 36.85636487 1.78515625 37.078125 C-5.94306757 36.61520311 -10.19467226 32.75900448 -15.75 27.6875 C-54.31009172 -7.38273179 -109.95815491 -12.44225455 -156 10 Z " fill="#000000" transform="translate(255,63)"/>
</svg>
