<?xml version="1.0" encoding="UTF-8"?>
<svg version="1.1" xmlns="http://www.w3.org/2000/svg" width="512" height="512">
<path d="M0 0 C14.8829026 9.61010282 31.21778296 11.53710739 48.50390625 11.61328125 C50.58139021 11.63649122 52.65886419 11.66060903 54.73632812 11.68554688 C57.95229708 11.72044735 61.16789894 11.74991766 64.3840332 11.76342773 C90.27758004 11.89294528 112.1037542 16.31522594 131.19482422 34.95019531 C134.558571 38.44830822 137.20821908 42.24556141 139.625 46.4375 C140.23408203 47.45070313 140.23408203 47.45070313 140.85546875 48.484375 C144.37930935 54.84509811 146.53083915 61.86282171 144.75 69.0625 C144.37875 70.17625 144.0075 71.29 143.625 72.4375 C145.11 71.9425 145.11 71.9425 146.625 71.4375 C148.01676235 71.32498861 149.4126876 71.25983834 150.80859375 71.2265625 C151.64414795 71.20037842 152.47970215 71.17419434 153.34057617 71.1472168 C154.23881104 71.11926025 155.1370459 71.09130371 156.0625 71.0625 C163.53673893 70.7596393 170.90657552 70.18895969 178.3125 69.125 C179.49380493 68.96668701 179.49380493 68.96668701 180.69897461 68.80517578 C191.28201539 67.17632817 199.72691413 62.43217411 208.625 56.6875 C210.74810269 55.33890623 212.87182228 53.99128324 214.99609375 52.64453125 C216.08647949 51.95053223 217.17686523 51.2565332 218.30029297 50.54150391 C226.9586657 45.06214892 235.7173616 39.74271907 244.45410156 34.38964844 C247.54857398 32.48455131 250.63093194 30.56118988 253.7109375 28.6328125 C299.00110693 0.4172391 299.00110693 0.4172391 321.375 5.25 C329.88416966 8.03816687 337.4571288 15.66570311 341.875 23.3125 C344.96186047 30.58454209 344.9556688 38.8877224 342.125 46.25 C337.19792167 55.61144882 327.66922692 61.71781911 319.46289062 68.02294922 C316.54495826 70.26876486 313.64640377 72.53902312 310.75 74.8125 C310.17596436 75.26230225 309.60192871 75.71210449 309.01049805 76.17553711 C304.5672552 79.66828135 300.18622718 83.23331635 295.8125 86.8125 C290.3520046 91.27909669 284.81286291 95.61817817 279.1875 99.875 C272.58684154 104.87279277 266.16504736 110.05207422 259.79589844 115.34082031 C253.17139964 120.83617805 246.41621032 126.15065932 239.625 131.4375 C237.33131008 133.22659127 235.03978073 135.01840842 232.75 136.8125 C232.17668945 137.26133545 231.60337891 137.7101709 231.01269531 138.17260742 C227.20701915 141.16315888 223.4498266 144.207731 219.7097168 147.27978516 C202.82661487 161.11972987 188.45347211 171.54792013 166.15234375 174.55859375 C164.6327104 174.76840471 163.11309908 174.97837517 161.59350586 175.18847656 C160.78009735 175.29937622 159.96668884 175.41027588 159.12863159 175.52453613 C144.81814338 177.47896008 130.53397108 179.58356243 116.26801872 181.83865547 C113.92698359 182.20869354 111.5857731 182.57760427 109.24452209 182.9462738 C99.85222315 184.42597922 99.85222315 184.42597922 90.46334839 185.92721558 C72.22371123 188.86417808 54.09657568 191.45857785 35.625 192.4375 C34.54025013 192.49976682 34.54025013 192.49976682 33.43358612 192.56329155 C17.21499594 193.48321428 1.03007417 193.56864136 -15.2109375 193.53515625 C-17.91476412 193.5327202 -20.61859071 193.5318156 -23.32241821 193.53086853 C-29.64698586 193.52779627 -35.97153562 193.51964001 -42.29609549 193.50951904 C-49.51291083 193.49822813 -56.72972716 193.49281521 -63.94654918 193.48782361 C-78.75604308 193.4774525 -93.56551791 193.45916006 -108.375 193.4375 C-108.375 201.6875 -108.375 209.9375 -108.375 218.4375 C-128.175 218.4375 -147.975 218.4375 -168.375 218.4375 C-168.375 145.1775 -168.375 71.9175 -168.375 -3.5625 C-148.575 -3.5625 -128.775 -3.5625 -108.375 -3.5625 C-107.88 4.3575 -107.88 4.3575 -107.375 12.4375 C-103.9409375 10.4575 -103.9409375 10.4575 -100.4375 8.4375 C-68.16269611 -9.78987687 -33.47813091 -22.20587007 0 0 Z M-96.24305153 27.14212704 C-98.375 28.4375 -98.375 28.4375 -100.89795494 29.72055149 C-104.92326642 32.02082916 -107.84440901 33.75751007 -109.28239822 38.31056023 C-109.60835808 41.93703262 -109.61218012 45.44377535 -109.51025391 49.08374023 C-109.50742994 50.46406345 -109.50902284 51.84440167 -109.51467896 53.22471619 C-109.51753919 56.9569171 -109.45891333 60.68588004 -109.38893938 64.4173305 C-109.3262651 68.32224608 -109.32053979 72.22724269 -109.3086853 76.13258362 C-109.27764975 83.52083454 -109.19565542 90.90759913 -109.09519041 98.29519659 C-108.98326928 106.70853116 -108.92839788 115.12193816 -108.87823606 123.53583229 C-108.77381473 140.8372468 -108.59801706 158.13721607 -108.375 175.4375 C-92.98631371 175.48469729 -77.59763299 175.51971825 -62.20889091 175.54112434 C-55.05997134 175.55133779 -47.91109731 175.56520196 -40.76220703 175.58837891 C-34.5146961 175.6086235 -28.26721821 175.62128803 -22.01967537 175.62567699 C-18.72667192 175.62823324 -15.43378226 175.63515371 -12.14080429 175.64896011 C16.35005641 175.76344244 44.12818911 173.75899336 72.27734375 169.375 C74.88879818 168.97795801 77.50038773 168.58193764 80.11219788 168.18725586 C86.20411409 167.26455183 92.29408454 166.32964997 98.38335472 165.38965893 C105.95907102 164.22077119 113.53708955 163.06708317 121.11523438 161.9140625 C128.87725508 160.73305953 136.63912181 159.55119227 144.39915466 158.35717773 C146.72695241 157.99979284 149.05475674 157.6424508 151.38256836 157.28515625 C152.47594481 157.11657104 153.56932127 156.94798584 154.69583035 156.77429199 C159.25270093 156.07732283 163.80642099 155.3961593 168.38235474 154.83618164 C169.07424928 154.75117905 169.76614382 154.66617645 170.47900486 154.57859802 C172.20227516 154.37374893 173.92724367 154.1833105 175.65235901 153.99462891 C183.80832916 152.4660465 190.51896514 147.98296524 196.47265625 142.39453125 C199.54389063 139.60199327 202.84441168 137.13654109 206.14428711 134.62207031 C206.9971228 133.97189941 206.9971228 133.97189941 207.8671875 133.30859375 C208.4662793 132.85210449 209.06537109 132.39561523 209.68261719 131.92529297 C213.34731668 129.1182695 216.98415189 126.2753435 220.625 123.4375 C225.78036763 119.42258169 230.94184435 115.41648818 236.125 111.4375 C243.54113129 105.74280446 250.91698584 99.99662408 258.29443359 94.25195312 C262.07017266 91.31236662 265.84765535 88.37502285 269.625 85.4375 C271.12500877 84.27084461 272.62500876 83.10417793 274.125 81.9375 C283.125 74.9375 283.125 74.9375 285.37695312 73.18603516 C286.87051288 72.02434152 288.36400296 70.86255828 289.85742188 69.70068359 C293.70537851 66.70717497 297.55469087 63.71543501 301.40625 60.7265625 C305.16889497 57.80611054 308.92818202 54.88140777 312.68359375 51.95166016 C313.9041124 50.99974156 315.12536023 50.04875641 316.34765625 49.09912109 C317.77697468 47.98727972 319.20124508 46.86895681 320.625 45.75 C321.73875 44.87794922 321.73875 44.87794922 322.875 43.98828125 C324.85857437 42.36321012 324.85857437 42.36321012 326.625 39.4375 C326.625 34.22014585 324.42613678 31.56014119 321.09765625 27.85546875 C317.96001677 24.83434638 314.81385971 25.04188596 310.6484375 25.1015625 C286.69871114 27.76264321 262.49487097 47.35535698 242.79052734 59.70678711 C235.63097826 64.19258595 228.45469927 68.6495409 221.25 73.0625 C220.32985107 73.6301709 219.40970215 74.1978418 218.46166992 74.78271484 C195.42712458 88.84289864 171.60713367 91.55748695 144.92138672 91.61108398 C143.49890956 91.61740901 142.07643432 91.62417687 140.65396118 91.63134766 C137.61868576 91.64587847 134.58341725 91.65765782 131.54812241 91.66729546 C126.73851829 91.68291108 121.92897672 91.70685551 117.11941528 91.73219299 C103.45253466 91.80297629 89.78562034 91.86318581 76.11865234 91.91430664 C68.54908099 91.94269315 60.97957411 91.97810711 53.41007054 92.02096039 C48.63874371 92.04755993 43.86748948 92.06556927 39.09610343 92.07699764 C36.11934935 92.08618526 33.14268328 92.10357368 30.16598129 92.12317657 C28.14886665 92.13409369 26.13170697 92.13539629 24.11456299 92.13630676 C9.40232026 92.07174994 9.40232026 92.07174994 -3.375 98.4375 C-6.11166259 101.51793055 -6.89369071 103.94875159 -7.5 108 C-7.95916786 110.96847995 -8.42279113 113.58087338 -9.375 116.4375 C-17.36024554 117.88145508 -17.36024554 117.88145508 -21.375 116.125 C-23.375 114.4375 -23.375 114.4375 -24.375 112.4375 C-25.05034969 103.15144177 -23.08544617 94.38030686 -17.01953125 87.1484375 C-9.05791291 78.86532863 2.4987538 75.85607317 13.79210663 75.33810616 C16.2754953 75.28956819 18.75735794 75.2713437 21.24121094 75.26391602 C22.18041382 75.257229 23.1196167 75.25054199 24.08728027 75.24365234 C26.11753828 75.22965607 28.14781153 75.21774502 30.17809296 75.20770454 C33.39940424 75.19120117 36.62060321 75.16795901 39.84185791 75.14280701 C48.99770442 75.07229436 58.15359658 75.0120407 67.30957031 74.96069336 C72.91982039 74.9287591 78.5299398 74.88744925 84.14008331 74.84049797 C86.26894007 74.82456657 88.39782683 74.81220455 90.52672577 74.80359077 C109.94814049 75.2989448 109.94814049 75.2989448 127.625 68.4375 C127.25121647 58.1584528 121.38115749 51.51287388 114.1796875 44.578125 C102.09945029 34.45584672 89.33940877 31.34078865 73.98828125 31.2265625 C71.86132097 31.19845257 69.73436797 31.16978794 67.60742188 31.140625 C64.29289283 31.09975594 60.97849336 31.06283017 57.66381836 31.03613281 C29.14829652 30.78718267 3.22817562 27.17486849 -20.25 9.6640625 C-42.80340345 -3.35389464 -77.05552102 15.08440593 -96.24305153 27.14212704 Z M-150.375 14.4375 C-150.375 75.8175 -150.375 137.1975 -150.375 200.4375 C-142.455 200.4375 -134.535 200.4375 -126.375 200.4375 C-126.375 139.0575 -126.375 77.6775 -126.375 14.4375 C-134.295 14.4375 -142.215 14.4375 -150.375 14.4375 Z " fill="#000000" transform="translate(168.375,293.5625)"/>
<path d="M0 0 C1.18803223 -0.01260864 2.37606445 -0.02521729 3.60009766 -0.03820801 C4.87933105 -0.03011108 6.15856445 -0.02201416 7.4765625 -0.01367188 C8.79317871 -0.01749878 10.10979492 -0.02132568 11.46630859 -0.02526855 C14.25051684 -0.03115911 17.03421099 -0.02261601 19.81835938 -0.00390625 C23.38305583 0.01888437 26.94654768 0.00575872 30.51119995 -0.01819611 C33.9164168 -0.03614518 37.32131144 -0.02356965 40.7265625 -0.01367188 C42.6454126 -0.02581726 42.6454126 -0.02581726 44.60302734 -0.03820801 C46.38507568 -0.01929504 46.38507568 -0.01929504 48.203125 0 C49.24807129 0.00318237 50.29301758 0.00636475 51.36962891 0.00964355 C54.8155228 0.65032115 55.97821979 1.77536169 58.1015625 4.51757812 C59.14916795 8.3587981 59.45368609 10.58548628 58.0390625 14.33007812 C55.24403311 17.48575647 52.21554776 18.35862627 48.02026367 18.67407227 C45.75223576 18.71366999 43.49433576 18.69254601 41.2265625 18.64257812 C40.0509375 18.62904297 40.0509375 18.62904297 38.8515625 18.61523438 C36.93476195 18.59185876 35.01812059 18.55599466 33.1015625 18.51757812 C33.1015625 20.82757812 33.1015625 23.13757813 33.1015625 25.51757812 C34.38546875 25.61554687 35.669375 25.71351562 36.9921875 25.81445312 C86.47204283 29.8740482 128.05009417 49.59288707 164.1015625 83.51757812 C164.76027344 84.13375 165.41898437 84.74992187 166.09765625 85.38476562 C199.90616151 118.02207555 217.02806519 164.58800818 221.1015625 210.51757812 C221.1015625 211.50757813 221.1015625 212.49757812 221.1015625 213.51757812 C221.68123779 213.49663086 222.26091309 213.47568359 222.8581543 213.45410156 C225.50161174 213.37061005 228.1447913 213.3188166 230.7890625 213.26757812 C232.15708008 213.21730469 232.15708008 213.21730469 233.55273438 213.16601562 C237.90749015 213.10267372 240.38924552 213.08367945 244.1796875 215.39257812 C246.523616 217.98423891 247.18135706 219.00661761 247.1015625 222.51757812 C244.32734277 228.79179145 240.73974535 234.01001102 236.6015625 239.45507812 C235.35274914 241.12328875 234.10538267 242.79258336 232.859375 244.46289062 C232.23321289 245.30110352 231.60705078 246.13931641 230.96191406 247.00292969 C228.07545522 250.90457353 225.26927111 254.86100688 222.4765625 258.83007812 C221.99251953 259.51642334 221.50847656 260.20276855 221.00976562 260.90991211 C220.55279297 261.56032471 220.09582031 262.2107373 219.625 262.88085938 C219.19155273 263.49525879 218.75810547 264.1096582 218.31152344 264.74267578 C217.17290643 266.41292309 216.12199158 268.14200172 215.078125 269.87304688 C212.80062427 272.92021683 211.67980574 273.41988259 208.1015625 274.51757812 C205.13310862 274.76827645 205.13310862 274.76827645 201.7687149 274.76926041 C200.48343698 274.7744759 199.19815906 274.7796914 197.87393332 274.78506494 C196.44968707 274.78074093 195.0254414 274.77622762 193.60119629 274.77154541 C192.08664122 274.77384969 190.57208726 274.777026 189.05753565 274.7809999 C184.89407752 274.78936099 180.73071089 274.78521666 176.5672524 274.77902746 C172.07776213 274.77450935 167.58828778 274.78148355 163.09880066 274.7869873 C154.30326813 274.7958898 145.50776969 274.79395548 136.71223581 274.78816202 C129.56517848 274.78364891 122.41813073 274.78303111 115.27107239 274.78520966 C113.74641762 274.78566935 113.74641762 274.78566935 112.19096175 274.78613834 C110.12621907 274.78677778 108.0614764 274.7874262 105.99673373 274.78808352 C86.62658965 274.79378933 67.25646449 274.787225 47.88632351 274.77648279 C31.25867885 274.76754705 14.63106212 274.76909903 -1.99658203 274.77832031 C-21.29647675 274.78901852 -40.59635488 274.79323998 -59.89625216 274.78709579 C-61.9534839 274.78645867 -64.01071564 274.78582993 -66.06794739 274.78520966 C-67.08019736 274.7849011 -68.09244733 274.78459255 -69.13537154 274.78427465 C-76.27548835 274.78254636 -83.41559465 274.7854657 -90.55570984 274.79016876 C-99.25475663 274.7957726 -107.95376733 274.79427162 -116.65280998 274.78360727 C-121.0928686 274.77834387 -125.53286698 274.7763052 -129.97292519 274.78290558 C-134.03532467 274.78885331 -138.09760791 274.78560942 -142.15999681 274.77495047 C-143.63166161 274.77271145 -145.10333619 274.77386397 -146.57499474 274.77870205 C-148.57185307 274.78476451 -150.56873881 274.77736337 -152.5655899 274.76926041 C-153.67583983 274.7689357 -154.78608975 274.768611 -155.92998362 274.76827645 C-159.69545671 274.45026652 -162.65355243 273.64224363 -165.48608398 271.08325195 C-165.93024658 270.5317749 -166.37440918 269.98029785 -166.83203125 269.41210938 C-167.33718262 268.78771973 -167.84233398 268.16333008 -168.36279297 267.52001953 C-170.96373711 264.12845453 -173.48370363 260.68790654 -175.9609375 257.20507812 C-177.09354608 255.62290088 -178.22636516 254.0408743 -179.359375 252.45898438 C-179.9378418 251.64961426 -180.51630859 250.84024414 -181.11230469 250.00634766 C-182.91806682 247.49022694 -184.73784799 244.98487129 -186.5625 242.48242188 C-187.15281006 241.67135986 -187.74312012 240.86029785 -188.35131836 240.0246582 C-189.48555802 238.46705421 -190.62171107 236.91084129 -191.76000977 235.35620117 C-192.27362061 234.64890869 -192.78723145 233.94161621 -193.31640625 233.21289062 C-193.76781982 232.59430176 -194.2192334 231.97571289 -194.68432617 231.33837891 C-197.40550747 227.25742775 -198.31281787 224.4901426 -197.8984375 219.51757812 C-197.03186226 216.9178524 -196.45521928 215.86071819 -194.11816406 214.42041016 C-191.61034578 213.40040223 -189.83150107 213.28766705 -187.1328125 213.32226562 C-186.24335938 213.32871094 -185.35390625 213.33515625 -184.4375 213.34179688 C-183.05691406 213.36693359 -183.05691406 213.36693359 -181.6484375 213.39257812 C-180.71257812 213.40160156 -179.77671875 213.410625 -178.8125 213.41992188 C-176.50755093 213.44344176 -174.2031259 213.4763096 -171.8984375 213.51757812 C-171.91148926 212.55658203 -171.91148926 212.55658203 -171.92480469 211.57617188 C-172.28803092 165.15239973 -149.33457762 119.46775077 -118.2734375 86.14257812 C-117.66411377 85.48845947 -117.05479004 84.83434082 -116.42700195 84.16040039 C-82.04638168 47.91412926 -35.73516192 30.34342931 13.1015625 25.51757812 C13.7615625 25.51757812 14.4215625 25.51757812 15.1015625 25.51757812 C15.1015625 23.20757813 15.1015625 20.89757812 15.1015625 18.51757812 C13.38259766 18.56978516 13.38259766 18.56978516 11.62890625 18.62304688 C10.09897311 18.65120515 8.56902396 18.67850311 7.0390625 18.70507812 C6.28689453 18.73021484 5.53472656 18.75535156 4.75976562 18.78125 C-0.55504764 18.85027355 -4.194815 18.04371089 -8.8984375 15.51757812 C-10.04837116 13.21771081 -10.1301304 11.70288725 -10.2109375 9.14257812 C-10.26701172 7.98628906 -10.26701172 7.98628906 -10.32421875 6.80664062 C-9.27017797 1.13996269 -5.18018862 0.01577621 0 0 Z M-98.41455078 93.10107422 C-99.40261525 94.044271 -100.39579643 94.98213702 -101.39404297 95.91455078 C-130.73814089 123.36794536 -150.85552241 164.3510989 -153.8984375 204.51757812 C-153.8984375 207.48757812 -153.8984375 210.45757812 -153.8984375 213.51757812 C-36.0884375 213.51757812 81.7215625 213.51757812 203.1015625 213.51757812 C201.82903293 197.4041317 201.82903293 197.4041317 198.8515625 181.76757812 C198.63395264 180.90455078 198.41634277 180.04152344 198.19213867 179.15234375 C192.53629623 157.37163231 183.46162506 136.6829369 170.1015625 118.51757812 C169.69389648 117.95055176 169.28623047 117.38352539 168.86621094 116.79931641 C158.72110152 102.7789508 146.168649 89.62688305 132.1015625 79.51757812 C131.13476562 78.80730469 130.16796875 78.09703125 129.171875 77.36523438 C115.72568028 67.74906822 101.58063459 60.30043779 86.1015625 54.51757812 C84.86792969 54.05480469 83.63429688 53.59203125 82.36328125 53.11523438 C19.81088509 31.01025227 -50.83099026 47.61978772 -98.41455078 93.10107422 Z M-170.8984375 231.51757812 C-168.5884375 235.14757812 -166.2784375 238.77757812 -163.8984375 242.51757812 C-163.34125754 243.8614947 -162.78407759 245.20541128 -162.21001339 246.5900526 C-160.11177577 251.0512164 -158.24730855 254.05410101 -153.8984375 256.51757812 C-143.90717467 259.13922592 -133.05895399 258.46853686 -122.80172646 258.36238253 C-118.46252647 258.33268001 -114.12415028 258.38373114 -109.78514099 258.42417908 C-101.29323157 258.49020441 -92.80303065 258.48058871 -84.311009 258.44342712 C-77.40758797 258.41451209 -70.5046504 258.41263349 -63.60119438 258.42993736 C-62.12594776 258.43358834 -62.12594776 258.43358834 -60.62089817 258.43731308 C-58.62276441 258.44236167 -56.62463079 258.44746637 -54.62649732 258.45262655 C-35.90007951 258.4976953 -17.17461186 258.45624957 1.55167723 258.38563731 C17.60880651 258.3271844 33.66438623 258.34505876 49.72143555 258.41821289 C68.38039653 258.50319673 87.03841907 258.5390963 105.69756037 258.49829024 C107.68854131 258.49408233 109.67952239 258.48994401 111.67050362 258.48587608 C113.13979193 258.48284737 113.13979193 258.48284737 114.63876284 258.47975746 C121.5309051 258.46897281 128.42240777 258.49329882 135.31443596 258.53144264 C143.71858445 258.57707687 152.12066214 258.56919344 160.524625 258.49328355 C164.81069007 258.45592497 169.09324364 258.44225832 173.37923813 258.49407578 C190.97998993 259.61251692 190.97998993 259.61251692 206.40725899 253.40158653 C209.50420698 249.75811313 211.21586194 245.89512736 213.1015625 241.51757812 C215.0815625 238.21757812 217.0615625 234.91757813 219.1015625 231.51757812 C90.4015625 231.51757812 -38.2984375 231.51757812 -170.8984375 231.51757812 Z " fill="#000000" transform="translate(231.8984375,-0.517578125)"/>
<path d="M0 0 C2.11212504 3.16818756 2.33156464 5.13219252 2.55859375 8.8671875 C1.88774995 11.4285911 0.85890862 13.13880954 -1.09301758 14.93798828 C-5.54775096 17.41886016 -11.08109937 17.16345904 -16.0625 17.5 C-33.74939537 19.05140217 -49.80593876 22.68830011 -66 30 C-67.14597656 30.51175781 -68.29195313 31.02351563 -69.47265625 31.55078125 C-84.54177984 38.66911584 -97.13112156 48.41097029 -109 60 C-109.71285156 60.639375 -110.42570312 61.27875 -111.16015625 61.9375 C-118.93472607 69.08946567 -124.46849013 78.38623221 -130.40478516 87.05029297 C-133.77335649 91.88667824 -133.77335649 91.88667824 -136 93 C-143.24087591 93.58394161 -143.24087591 93.58394161 -146.4375 91.125 C-149.25322739 87.29561075 -149.17300582 85.06119575 -148.58886719 80.45166016 C-147.57101047 76.21396649 -145.22398116 73.12064758 -142.625 69.6875 C-142.09060303 68.95692383 -141.55620605 68.22634766 -141.00561523 67.47363281 C-135.36501488 59.89524412 -129.07585871 53.06974797 -122.39453125 46.3984375 C-121.00288038 45.0045164 -119.62582949 43.59507574 -118.2890625 42.1484375 C-97.64926482 20.15203341 -30.85393864 -18.31952607 0 0 Z " fill="#000000" transform="translate(263,61)"/>
</svg>
