<?xml version="1.0" encoding="UTF-8"?>
<svg version="1.1" xmlns="http://www.w3.org/2000/svg" width="512" height="512">
<path d="M0 0 C4.54581179 4.12503103 8.56343791 8.69367202 12.57421875 13.3359375 C13.16847656 12.81644531 13.76273438 12.29695313 14.375 11.76171875 C28.59459289 -0.2022 41.57168209 -1.78580599 59.57421875 -0.6640625 C76.19485255 1.32606355 91.10881753 10.68657069 103.57421875 21.3359375 C104.24839844 21.90828125 104.92257813 22.480625 105.6171875 23.0703125 C118.39494484 34.8831591 126.79929648 52.3428421 129.57421875 69.3359375 C129.57421875 69.9959375 129.57421875 70.6559375 129.57421875 71.3359375 C130.55648437 71.28373047 130.55648437 71.28373047 131.55859375 71.23046875 C148.47972008 70.72857094 163.35499822 77.55882306 175.55395508 89.04125977 C180.98719922 94.46325301 185.83666181 100.7672234 187.57421875 108.3359375 C190.30314158 108.98281557 193.03234322 109.62847468 195.76171875 110.2734375 C196.53064453 110.45583984 197.29957031 110.63824219 198.09179688 110.82617188 C206.11706894 112.79299112 206.11706894 112.79299112 214.32421875 113.4609375 C215.1028125 113.46351563 215.88140625 113.46609375 216.68359375 113.46875 C218.58598021 113.54278199 218.58598021 113.54278199 219.57421875 112.3359375 C220.07202067 104.70297467 218.54709493 98.07266174 216.63671875 90.7109375 C212.48845339 74.38736895 209.6124594 58.37623672 217.76171875 42.7109375 C227.14478517 27.33159195 241.0314021 16.45065686 258.44921875 11.4609375 C271.65803179 8.58496387 284.73716798 9.86215544 296.38671875 17.0234375 C308.780226 26.14232999 313.753684 38.2538495 316.07421875 53.12109375 C318.6855345 72.83928609 315.91833381 92.71680894 304.57421875 109.3359375 C303.25701086 111.01537756 301.92737295 112.68532268 300.57421875 114.3359375 C301.82976562 114.50609375 303.0853125 114.67625 304.37890625 114.8515625 C321.98557733 117.35122077 321.98557733 117.35122077 329.57421875 121.3359375 C330.37601562 121.74457031 331.1778125 122.15320313 332.00390625 122.57421875 C342.6391448 128.45507496 351.42488883 136.85234705 357.57421875 147.3359375 C357.92436035 147.89273193 358.27450195 148.44952637 358.63525391 149.02319336 C361.98118765 154.83881565 362.1942568 160.03590691 362.07421875 166.6484375 C362.06213379 167.73366699 362.05004883 168.81889648 362.03759766 169.93701172 C360.7123299 226.04001333 336.19018969 280.63036466 297.26171875 320.6015625 C295.66619152 322.24140993 294.0879695 323.89634036 292.51171875 325.5546875 C285.90155192 332.42602641 278.81441878 338.40854457 271.18798828 344.12353516 C269.76281901 345.19424477 268.35283194 346.28509843 266.9453125 347.37890625 C242.79782297 365.70681301 214.4193722 378.42096216 185.07421875 385.6484375 C183.69049072 385.99394653 183.69049072 385.99394653 182.27880859 386.34643555 C163.5118735 390.71065283 144.83468826 391.84874837 125.61743164 391.78198242 C121.90779755 391.77348578 118.19971742 391.80234647 114.49023438 391.83398438 C53.20969787 392.01392607 -4.42718289 369.02032757 -48.42578125 326.3359375 C-48.96686523 325.82063477 -49.50794922 325.30533203 -50.06542969 324.77441406 C-57.85921613 317.34631848 -64.78816675 309.561334 -71.22949219 300.93359375 C-72.29230474 299.51419674 -73.37706658 298.11129432 -74.46484375 296.7109375 C-103.16556997 258.91574248 -117.43426351 212.43230973 -119.23828125 165.3984375 C-119.31816284 163.479104 -119.31816284 163.479104 -119.3996582 161.52099609 C-119.7904673 147.88061184 -119.22086807 133.23101622 -110.36328125 122.1484375 C-101.72712552 113.07592864 -89.64561286 108.39998811 -78.42578125 103.3359375 C-78.75674805 102.82957764 -79.08771484 102.32321777 -79.42871094 101.80151367 C-83.4424859 95.65585239 -87.43960645 89.49953461 -91.42578125 83.3359375 C-91.96444824 82.50368652 -92.50311523 81.67143555 -93.05810547 80.81396484 C-121.70794471 36.41888818 -121.70794471 36.41888818 -118.86328125 17.3359375 C-116.23527215 6.23216395 -108.43639341 -2.49575916 -99.17578125 -8.7890625 C-68.87409334 -26.04353378 -26.60918363 -21.80532787 0 0 Z M-99.23828125 14.3984375 C-102.43749154 19.24324797 -102.47971636 23.73091898 -101.42578125 29.3359375 C-97.47574161 41.14831718 -90.98883566 51.81898774 -84.42578125 62.3359375 C-83.84650879 63.26583496 -83.26723633 64.19573242 -82.67041016 65.15380859 C-66.42811056 91.10860709 -49.17651309 116.69800148 -29.28125 140.02734375 C-27.42578125 142.3359375 -27.42578125 142.3359375 -25.7890625 144.98828125 C-24.1396894 147.58015326 -22.86622402 149.46146012 -20.42578125 151.3359375 C-15.99236592 152.07570833 -11.87390607 151.87773917 -7.42578125 151.3359375 C-7.99647163 144.80907629 -9.15754042 138.80844413 -10.98828125 132.5234375 C-11.25294189 131.61400391 -11.51760254 130.70457031 -11.7902832 129.76757812 C-18.31813317 107.97167643 -28.02101595 86.78434689 -41.42578125 68.3359375 C-42.09738281 67.39234375 -42.76898438 66.44875 -43.4609375 65.4765625 C-57.57294722 46.02233735 -57.57294722 46.02233735 -75.42578125 30.3359375 C-73.9815349 27.09732447 -72.16805878 24.71624587 -69.80078125 22.0859375 C-69.16914062 21.37953125 -68.5375 20.673125 -67.88671875 19.9453125 C-67.40460938 19.41421875 -66.9225 18.883125 -66.42578125 18.3359375 C-62.71973009 18.91272251 -60.97788695 20.38743995 -58.3359375 22.9921875 C-57.55790771 23.75885742 -56.77987793 24.52552734 -55.97827148 25.31542969 C-55.15657471 26.14719727 -54.33487793 26.97896484 -53.48828125 27.8359375 C-52.64015869 28.6909082 -51.79203613 29.54587891 -50.91821289 30.42675781 C-43.32198521 38.21503101 -36.66945738 46.44098647 -30.42578125 55.3359375 C-29.97944336 55.96419434 -29.53310547 56.59245117 -29.07324219 57.23974609 C-14.54069939 77.82661332 -3.90845006 100.30336592 3.57421875 124.3359375 C4.17401269 126.14988922 4.77750101 127.96262902 5.38671875 129.7734375 C5.77859375 130.9490625 6.17046875 132.1246875 6.57421875 133.3359375 C9.60312073 129.88316586 10.84508832 126.09745932 12.13671875 121.7734375 C12.35360352 121.05526855 12.57048828 120.33709961 12.79394531 119.59716797 C21.53819291 89.98747373 17.87420975 59.0180339 3.76171875 31.7109375 C-5.06107278 16.1082909 -18.06149713 5.33508336 -35.41381836 0.49902344 C-56.34349081 -4.77105517 -84.26805816 -3.10840672 -99.23828125 14.3984375 Z M24.76171875 25.2734375 C22.2305227 28.14010323 22.2305227 28.14010323 22.7578125 31.50390625 C23.66052288 35.74103007 24.97750102 39.64642697 26.44921875 43.7109375 C34.8978141 68.16527713 36.19411243 95.93261319 29.0625 120.91015625 C28.54063722 123.50277056 28.85793874 124.84032961 29.57421875 127.3359375 C43.5971988 105.29614348 56.57421875 81.1353077 56.57421875 54.3359375 C62.18421875 54.6659375 67.79421875 54.9959375 73.57421875 55.3359375 C69.36547763 88.11621387 58.51148921 117.46827755 37.57421875 143.3359375 C35.59421875 145.9759375 33.61421875 148.6159375 31.57421875 151.3359375 C43.12421875 151.3359375 54.67421875 151.3359375 66.57421875 151.3359375 C66.24421875 145.7259375 65.91421875 140.1159375 65.57421875 134.3359375 C67.26914172 115.07544916 73.23529832 99.73572736 87.57421875 86.3359375 C95.07386772 80.62774771 103.6386614 76.31445662 112.57421875 73.3359375 C110.09663536 56.62149434 101.63303403 42.1312248 88.57421875 31.3359375 C80.08872884 25.11884588 71.63632485 20.54663802 61.57421875 17.3359375 C60.95804688 17.13871094 60.341875 16.94148438 59.70703125 16.73828125 C46.53224056 14.25292696 35.11594552 16.50307647 24.76171875 25.2734375 Z M236.57421875 45.3359375 C230.65339318 53.16721612 229.02633108 60.64216193 229.57421875 70.3359375 C230.01648159 73.29670527 230.67700596 76.17899228 231.38671875 79.0859375 C231.56686523 79.86815674 231.74701172 80.65037598 231.93261719 81.45629883 C232.73929597 84.94107977 233.59254551 88.40518043 234.5078125 91.86328125 C236.88009211 101.04593294 238.90907577 111.91067494 235.07421875 120.9609375 C232.04533942 125.94393252 226.96179537 128.54007863 221.57421875 130.3359375 C211.68860163 131.0372364 203.13916237 129.67837267 193.57421875 127.3359375 C193.24421875 135.2559375 192.91421875 143.1759375 192.57421875 151.3359375 C209.07421875 151.3359375 225.57421875 151.3359375 242.57421875 151.3359375 C243.70859375 145.9321875 244.84296875 140.5284375 246.01171875 134.9609375 C251.32788325 110.11449011 257.46735286 85.43399376 265.57421875 61.3359375 C266.31027344 61.54089844 267.04632813 61.74585938 267.8046875 61.95703125 C268.78050781 62.22644531 269.75632812 62.49585938 270.76171875 62.7734375 C271.72464844 63.04027344 272.68757813 63.30710938 273.6796875 63.58203125 C276.30163956 64.26494184 278.91616162 64.81686223 281.57421875 65.3359375 C281.37376953 65.93615723 281.17332031 66.53637695 280.96679688 67.15478516 C266.06924231 108.28739461 266.06924231 108.28739461 259.57421875 151.3359375 C285.64421875 151.3359375 311.71421875 151.3359375 338.57421875 151.3359375 C326.71710989 137.50264383 317.07599348 133.25669096 299.31616211 131.41137695 C292.75050672 130.69435429 287.76289201 129.81259409 283.19921875 124.6484375 C280.92917614 120.02104296 280.63943303 116.23377322 282.19921875 111.3984375 C284.07839194 107.23741115 286.65210457 103.95002905 289.57421875 100.4609375 C299.36871583 88.518205 300.54160827 73.30744199 299.57421875 58.3359375 C298.287098 48.04978761 295.48086413 39.50780696 288.26171875 31.8984375 C270.30853691 21.46054108 249.07033301 30.1970419 236.57421875 45.3359375 Z M94.69921875 102.8984375 C89.4064411 108.32315275 89.4064411 108.32315275 87.57421875 115.3359375 C91.53421875 116.6559375 95.49421875 117.9759375 99.57421875 119.3359375 C98.82552083 122.03776042 98.07682292 124.73958333 97.328125 127.44140625 C96.64868167 130.0500462 96.10288346 132.69261397 95.57421875 135.3359375 C91.28421875 134.0159375 86.99421875 132.6959375 82.57421875 131.3359375 C82.53296875 133.3365625 82.49171875 135.3371875 82.44921875 137.3984375 C82.42601562 138.52378906 82.4028125 139.64914063 82.37890625 140.80859375 C82.4795471 144.98129658 82.4795471 144.98129658 84.57421875 151.3359375 C114.27421875 151.3359375 143.97421875 151.3359375 174.57421875 151.3359375 C176.80315302 144.74801919 176.80315302 144.74801919 176.57421875 139.3359375 C170.13921875 141.3159375 170.13921875 141.3159375 163.57421875 143.3359375 C162.09546946 137.99958136 160.6603933 132.76681025 159.57421875 127.3359375 C164.52421875 125.6859375 169.47421875 124.0359375 174.57421875 122.3359375 C172.70385038 111.11372728 165.29383384 102.26365523 156.23046875 95.6171875 C150.26296081 91.76474566 144.47608518 89.92867591 137.57421875 88.3359375 C137.57421875 93.2859375 137.57421875 98.2359375 137.57421875 103.3359375 C132.29421875 103.3359375 127.01421875 103.3359375 121.57421875 103.3359375 C121.57421875 98.3859375 121.57421875 93.4359375 121.57421875 88.3359375 C111.45432223 88.3359375 101.58448841 96.29091757 94.69921875 102.8984375 Z M-96.2578125 133.16015625 C-101.86035547 139.4187347 -101.42578125 141.92881717 -101.42578125 151.3359375 C-81.95578125 151.3359375 -62.48578125 151.3359375 -42.42578125 151.3359375 C-44.78751708 147.79333376 -47.03117206 144.45145897 -49.6328125 141.12890625 C-50.21998047 140.37673828 -50.80714844 139.62457031 -51.41210938 138.84960938 C-52.01474609 138.08197266 -52.61738281 137.31433594 -53.23828125 136.5234375 C-55.02929688 134.23242188 -55.02929688 134.23242188 -56.8203125 131.94140625 C-57.40893066 131.19165527 -57.99754883 130.4419043 -58.60400391 129.66943359 C-59.8775589 128.03814993 -61.14215485 126.39985 -62.39990234 124.75634766 C-63.03105957 123.93312012 -63.6622168 123.10989258 -64.3125 122.26171875 C-64.88572998 121.50930908 -65.45895996 120.75689941 -66.04956055 119.98168945 C-66.50371338 119.43859131 -66.95786621 118.89549316 -67.42578125 118.3359375 C-76.37338714 118.3359375 -90.17509919 127.10338202 -96.2578125 133.16015625 Z M-101.42578125 167.3359375 C-101.42578125 224.12490798 -74.3898171 276.35982273 -34.89111328 315.87109375 C4.58770333 354.59805853 58.12475869 373.1309808 112.57421875 375.3359375 C113.8274292 375.38790283 113.8274292 375.38790283 115.10595703 375.44091797 C120.27405231 375.62121338 125.40818903 375.55015088 130.57421875 375.3359375 C131.58887207 375.29484863 132.60352539 375.25375977 133.64892578 375.21142578 C184.33876947 372.91034948 232.10497205 355.89115429 270.57421875 322.3359375 C271.15397461 321.830625 271.73373047 321.3253125 272.33105469 320.8046875 C312.7327538 285.24193115 340.68732655 233.46236166 344.57421875 179.3359375 C344.57421875 175.3759375 344.57421875 171.4159375 344.57421875 167.3359375 C197.39421875 167.3359375 50.21421875 167.3359375 -101.42578125 167.3359375 Z " fill="#000000" transform="translate(134.42578125,104.6640625)"/>
<path d="M0 0 C3.32678405 0.00859698 6.65189674 -0.02046654 9.97851562 -0.05200195 C12.09830678 -0.0536121 14.21810097 -0.05304002 16.33789062 -0.05004883 C17.32954224 -0.06128281 18.32119385 -0.07251678 19.34289551 -0.08409119 C26.05096236 -0.01583667 26.05096236 -0.01583667 29.42773438 2.0480957 C31.28160347 5.27201608 31.32420102 7.59479793 31.33789062 11.30932617 C31.34363098 12.31288399 31.34363098 12.31288399 31.3494873 13.3367157 C31.35220611 14.75639343 31.34484677 16.17612127 31.328125 17.59570312 C31.3070796 19.71435339 31.32772523 21.82946624 31.35351562 23.94799805 C31.39488553 43.00364637 25.31836133 60.48974979 12.0065918 74.36938477 C3.33840231 83.04795887 -5.63288554 89.26849807 -17.19335938 93.44604492 C-18.32596191 93.86648071 -18.32596191 93.86648071 -19.48144531 94.29541016 C-29.50844152 97.39913583 -39.99765129 96.93318093 -50.38671875 96.89208984 C-53.7135028 96.88349287 -57.03861549 96.91255639 -60.36523438 96.9440918 C-62.48502553 96.94570194 -64.60481972 96.94512986 -66.72460938 96.94213867 C-67.71626099 96.95337265 -68.7079126 96.96460663 -69.72961426 96.97618103 C-76.43768111 96.90792652 -76.43768111 96.90792652 -79.81445312 94.84399414 C-81.66832222 91.62007377 -81.71091977 89.29729191 -81.72460938 85.58276367 C-81.72843628 84.91372513 -81.73226318 84.24468658 -81.73620605 83.55537415 C-81.73892486 82.13569642 -81.73156552 80.71596857 -81.71484375 79.29638672 C-81.69379835 77.17773646 -81.71444398 75.06262361 -81.74023438 72.9440918 C-81.78160428 53.88844347 -75.70508008 36.40234006 -62.39331055 22.52270508 C-53.72512106 13.84413097 -44.75383321 7.62359178 -33.19335938 3.44604492 C-32.43829102 3.16575439 -31.68322266 2.88546387 -30.90527344 2.59667969 C-20.87827723 -0.50704599 -10.38906746 -0.04109109 0 0 Z M-49.19335938 33.44604492 C-58.35228359 43.36369659 -63.85589145 54.85529133 -64.19335938 68.44604492 C-60.74556851 66.94598102 -58.36975404 64.9419523 -55.63085938 62.38354492 C-52.0703901 59.11586019 -48.45403018 55.98125299 -44.69335938 52.94604492 C-41.00379726 49.96521225 -37.44245526 46.89824782 -33.94335938 43.69604492 C-30.19800136 40.27975191 -26.39521342 37.27772917 -22.19335938 34.44604492 C-20.52058103 36.23233323 -18.85511494 38.02455242 -17.19335938 39.82104492 C-16.47792969 40.58288086 -16.47792969 40.58288086 -15.74804688 41.36010742 C-12.19335938 45.21948242 -12.19335938 45.21948242 -12.19335938 47.44604492 C-13.76622621 48.86042898 -15.40475933 50.20208893 -17.06835938 51.50854492 C-20.881715 54.55630357 -24.59144746 57.65104833 -28.19335938 60.94604492 C-33.36204442 65.65382812 -38.75542723 70.05485089 -44.19335938 74.44604492 C-46.2213161 76.08716597 -48.21981746 77.73919786 -50.19335938 79.44604492 C-50.19335938 79.77604492 -50.19335938 80.10604492 -50.19335938 80.44604492 C-32.26161839 81.06438082 -16.14218418 76.93904971 -2.6640625 64.8581543 C8.82875184 53.823221 13.60093483 40.0482378 14.80664062 24.44604492 C14.85589473 21.77623498 14.83867755 19.11675929 14.80664062 16.44604492 C-8.97955668 16.06494982 -31.01545247 15.99235741 -49.19335938 33.44604492 Z " fill="#000000" transform="translate(353.193359375,39.553955078125)"/>
<path d="M0 0 C3.48605673 3.30574345 6.19016938 6.56646514 8.75 10.625 C19.01607814 26.29126423 32.10165595 40.64185652 47 52 C48.00417969 52.80824219 49.00835937 53.61648438 50.04296875 54.44921875 C61.19042326 63.37232338 73.40395092 70.32226088 86 77 C84.35433477 82.68502535 81.70967216 87.76681636 79 93 C57.19103497 82.61754059 38.4402415 69.69404212 21 53 C20.50258301 52.52981445 20.00516602 52.05962891 19.49267578 51.57519531 C6.73394155 39.46812788 -3.27165736 25.59251396 -13 11 C-13 10.01 -13 9.02 -13 8 C-10.85224966 6.45704199 -8.78165246 5.1240944 -6.5 3.8125 C-5.87996094 3.44447266 -5.25992188 3.07644531 -4.62109375 2.69726562 C-3.0865212 1.7883265 -1.5439744 0.8928753 0 0 Z " fill="#000000" transform="translate(86,347)"/>
<path d="M0 0 C5.82485779 3.51996782 10.54466582 8.98962934 12.5625 15.5 C13.36764105 23.33608208 13.68710392 31.11922577 8.5625 37.5 C3.75801361 42.54521222 -0.59927055 46.10562995 -7.70703125 46.8359375 C-16.22326573 46.92983204 -22.11345494 46.6177288 -28.40234375 40.62890625 C-34.7841668 33.72505269 -35.91792252 28.29832071 -35.7421875 18.9453125 C-35.04689797 11.08319245 -31.38995981 6.95041296 -25.53515625 1.9453125 C-18.47077988 -2.92213491 -7.84396301 -3.47595223 0 0 Z M-16.8125 17.125 C-18.92456506 20.21186432 -19.04945145 21.8282913 -18.4375 25.5 C-16.9375 28 -16.9375 28 -14.4375 29.5 C-10.7657913 30.11195145 -9.14936432 29.98706506 -6.0625 27.875 C-3.95043494 24.78813568 -3.82554855 23.1717087 -4.4375 19.5 C-5.9375 17 -5.9375 17 -8.4375 15.5 C-12.1092087 14.88804855 -13.72563568 15.01293494 -16.8125 17.125 Z " fill="#000000" transform="translate(235.4375,41.5)"/>
<path d="M0 0 C5.82485779 3.51996782 10.54466582 8.98962934 12.5625 15.5 C13.36764105 23.33608208 13.68710392 31.11922577 8.5625 37.5 C3.75801361 42.54521222 -0.59927055 46.10562995 -7.70703125 46.8359375 C-16.22326573 46.92983204 -22.11345494 46.6177288 -28.40234375 40.62890625 C-34.7841668 33.72505269 -35.91792252 28.29832071 -35.7421875 18.9453125 C-35.04689797 11.08319245 -31.38995981 6.95041296 -25.53515625 1.9453125 C-18.47077988 -2.92213491 -7.84396301 -3.47595223 0 0 Z M-16.8125 17.125 C-18.92456506 20.21186432 -19.04945145 21.8282913 -18.4375 25.5 C-16.9375 28 -16.9375 28 -14.4375 29.5 C-10.7657913 30.11195145 -9.14936432 29.98706506 -6.0625 27.875 C-3.95043494 24.78813568 -3.82554855 23.1717087 -4.4375 19.5 C-5.9375 17 -5.9375 17 -8.4375 15.5 C-12.1092087 14.88804855 -13.72563568 15.01293494 -16.8125 17.125 Z " fill="#000000" transform="translate(131.4375,17.5)"/>
<path d="M0 0 C5.28 0 10.56 0 16 0 C16 5.28 16 10.56 16 16 C10.72 16 5.44 16 0 16 C0 10.72 0 5.44 0 0 Z " fill="#000000" transform="translate(184,432)"/>
<path d="M0 0 C5.28 0 10.56 0 16 0 C16 5.28 16 10.56 16 16 C10.72 16 5.44 16 0 16 C0 10.72 0 5.44 0 0 Z " fill="#000000" transform="translate(256,224)"/>
</svg>
