<?xml version="1.0" encoding="UTF-8"?>
<svg version="1.1" xmlns="http://www.w3.org/2000/svg" width="512" height="512">
<path d="M0 0 C3.40085957 1.50399025 6.10106595 3.69232495 9 6 C10.17665679 6.88121915 11.3551837 7.75994445 12.53515625 8.63671875 C13.79567962 9.58928446 15.05479234 10.54371969 16.3125 11.5 C16.9115918 11.95028564 17.51068359 12.40057129 18.12792969 12.86450195 C22.43887127 16.2287103 26.25614544 19.76751438 27.53125 25.30859375 C27.42194428 32.75504573 24.63784631 37.20269211 20 43 C20.556875 42.83886719 21.11375 42.67773438 21.6875 42.51171875 C24.18409961 41.95926174 26.44450442 41.83197786 29 41.8125 C30.2684375 41.79123047 30.2684375 41.79123047 31.5625 41.76953125 C34.15408616 42.01456904 35.77024992 42.69415099 38 44 C38.25740967 43.2994751 38.51481934 42.5989502 38.7800293 41.87719727 C40.89930247 36.87907152 43.87656404 32.35075938 46.7121582 27.73413086 C47.80794547 25.9449366 48.88944446 24.14761054 49.97070312 22.34960938 C50.6736165 21.19999293 51.37736537 20.05088682 52.08203125 18.90234375 C52.71343018 17.86585693 53.3448291 16.82937012 53.99536133 15.76147461 C56.56538847 12.22115345 59.16628937 9.5743433 63.39453125 8.25 C64.19246094 8.1675 64.99039062 8.085 65.8125 8 C66.60269531 7.896875 67.39289063 7.79375 68.20703125 7.6875 C75.35270314 8.48701574 81.8362781 13.61931544 87.75 17.4375 C88.86181641 18.13456055 88.86181641 18.13456055 89.99609375 18.84570312 C94.73205123 21.8938912 98.4216122 24.84322441 101 30 C102.32508026 37.78274988 99.38542682 42.74815642 95 49 C96.19625 49.309375 97.3925 49.61875 98.625 49.9375 C107.25975873 53.23634268 110.32854535 63.45104173 113.8984375 71.27734375 C115 74 115 74 115 76 C116.64548828 75.25943359 116.64548828 75.25943359 118.32421875 74.50390625 C119.77852726 73.8565044 121.23296097 73.20938376 122.6875 72.5625 C123.40873047 72.23701172 124.12996094 71.91152344 124.87304688 71.57617188 C134.47079059 67.32511644 134.47079059 67.32511644 140 68.5625 C140.639375 68.68753906 141.27875 68.81257813 141.9375 68.94140625 C148.41615121 72.26662306 151.30029538 80.0730799 154.25 86.3125 C154.69601562 87.21162109 155.14203125 88.11074219 155.6015625 89.03710938 C158.55793474 95.23205302 161.23758162 101.28415159 159.42529297 108.18994141 C157.09225102 113.74682314 153.76778342 115.88422708 148.375 118.1875 C147.66730469 118.51427734 146.95960938 118.84105469 146.23046875 119.17773438 C144.81771955 119.83006939 143.40076711 120.47338893 141.97949219 121.10693359 C139.27884798 122.32535448 136.6405061 123.65704919 134 125 C132.66666667 125.66666667 131.33333333 126.33333333 130 127 C140.11419151 126.55619021 150.17358215 125.92741459 160.25 124.9375 C185.05814913 122.60078266 185.05814913 122.60078266 192 128 C195.59269879 131.7817882 196.32824744 134.86624863 196.5625 139.9375 C196.35852973 144.39728232 196.09509709 147.98662919 193.01489258 151.36816406 C184.62105139 158.16622955 171.44463437 161.05125312 161.25 164.3125 C160.5330899 164.54478302 159.81617981 164.77706604 159.07754517 165.01638794 C146.12059783 169.20670242 133.03396826 172.78687621 119.80371094 176.00708008 C119.11507462 176.17960297 118.42643829 176.35212585 117.7169342 176.52987671 C115.86333885 176.99406933 114.00636351 177.44470674 112.14916992 177.89428711 C106.58534298 179.84781624 103.34675156 183.53991794 99.75 188.0625 C98.97140625 189.03316406 98.1928125 190.00382813 97.390625 191.00390625 C96.60171875 191.99261719 95.8128125 192.98132813 95 194 C93.50267265 195.8355168 92.00271652 197.66889264 90.5 199.5 C88.24221102 202.25560009 85.98868582 205.01400522 83.75 207.78515625 C65.1676009 230.72280514 65.1676009 230.72280514 52 234 C48.5729723 234.26006222 48.5729723 234.26006222 44.9210968 234.27415466 C43.90567953 234.28200968 43.90567953 234.28200968 42.86974877 234.29002339 C40.62054278 234.30492448 38.37156625 234.30572631 36.12231445 234.30639648 C34.50217306 234.31402416 32.88203527 234.32245271 31.26190186 234.33161926 C26.87581696 234.35349955 22.48980174 234.36235337 18.10366845 234.36744571 C15.3629647 234.37109417 12.62227908 234.37733649 9.88158226 234.3844471 C0.31972834 234.40891023 -9.24207147 234.42198861 -18.80395508 234.42553711 C-27.71837907 234.42917937 -36.63246026 234.45913196 -45.54677933 234.50094169 C-53.20383184 234.53559666 -60.86077033 234.55108464 -68.51790076 234.55178314 C-73.08998071 234.552577 -77.66171043 234.56136704 -82.23370934 234.58978081 C-86.52913447 234.61588254 -90.82391679 234.6182114 -95.11938477 234.60212517 C-96.69641836 234.60030488 -98.2734883 234.60705357 -99.85044289 234.62294388 C-102.00174526 234.64330296 -104.15077611 234.63291746 -106.30204773 234.61473083 C-108.10802948 234.61774783 -108.10802948 234.61774783 -109.95049572 234.62082577 C-113 234 -113 234 -115.39127827 231.65298557 C-117.3491487 228.42420964 -117.55352415 226.71651926 -117 223 C-115.22015595 219.8640843 -114.47691793 219.15897264 -111 218 C-108.85752732 217.90263202 -106.71210759 217.86662774 -104.56742859 217.86196899 C-103.91164678 217.85914771 -103.25586497 217.85632643 -102.58021098 217.85341966 C-100.378576 217.84507397 -98.17699131 217.84373544 -95.9753418 217.84228516 C-94.39844623 217.8376169 -92.82155201 217.83247332 -91.24465942 217.82688904 C-87.84632684 217.81560675 -84.44800304 217.80717319 -81.04965782 217.80076981 C-75.67514654 217.79009239 -70.30069827 217.76984819 -64.92622375 217.74765015 C-49.64233282 217.68571731 -34.35844551 217.63171305 -19.07446289 217.59863281 C-10.63518952 217.58028683 -2.1960216 217.55135149 6.24317425 217.5106281 C10.70906698 217.48955838 15.17482682 217.47410088 19.64077187 217.47182083 C23.84250212 217.46967316 28.04395568 217.45379173 32.24560165 217.42743111 C33.78628577 217.42024129 35.32700343 217.41813562 36.86770058 217.42153358 C38.97428599 217.42543692 41.07999141 217.41094743 43.18647766 217.39199829 C44.36431981 217.38868814 45.54216196 217.385378 46.7556963 217.38196754 C57.08042658 216.16638718 62.95992846 206.85869299 68.984375 199.26953125 C70.44395266 197.41529257 71.89489086 195.55544781 73.33276367 193.68432617 C75.42395723 190.9655811 77.47626451 188.33216481 80 186 C77.72855621 186.2663072 75.45784642 186.53706527 73.1875 186.8125 C72.12063965 186.94180908 72.12063965 186.94180908 71.03222656 187.07373047 C66.22730017 187.67408615 61.45886136 188.4055501 56.68505859 189.21533203 C38.79642773 192.22486909 38.79642773 192.22486909 33 191 C29.82318392 188.48569941 29.08438776 187.59071429 28.5 183.5 C29.09418342 179.34071609 29.72048695 178.52091266 33 176 C35.60201287 175.29678802 37.94641255 174.81408293 40.59375 174.44921875 C42.13154099 174.20771414 43.66930036 173.96600809 45.20703125 173.72412109 C45.99996582 173.60534607 46.79290039 173.48657104 47.60986328 173.36419678 C51.42635821 172.78265885 55.22793246 172.11847778 59.03125 171.45703125 C59.79276367 171.32586914 60.55427734 171.19470703 61.33886719 171.05957031 C100.4424002 164.30887709 138.69338819 154.627909 176 141 C175.14736572 141.06993164 174.29473145 141.13986328 173.41625977 141.21191406 C162.64299366 142.09032679 151.8672464 142.93479624 141.08996582 143.76245117 C139.02082798 143.9215213 136.95173641 144.08119456 134.88269043 144.24145508 C48.19750378 150.94838162 -38.57897566 153.24505318 -258 144 C-260.04198591 143.84301724 -262.08397799 143.68611475 -264.12597656 143.52929688 C-274.75269782 142.71106202 -285.37748944 141.87124059 -296 141 C-272.89333287 149.01164417 -249.75499186 156.17432797 -226 162 C-224.31245605 162.42055664 -224.31245605 162.42055664 -222.59082031 162.84960938 C-151.8546535 180.29140393 -78.11062652 183.85135036 -5.64819336 179.18359375 C4.37202266 178.67933072 4.37202266 178.67933072 7.9375 180.5 C10.44194753 183.53569397 10.55895257 185.18371625 10.56640625 189 C9.68399226 192.11583422 8.67868049 193.12452206 6 195 C2.60981242 195.78529546 -0.7822837 195.98109858 -4.25 196.1875 C-5.27794678 196.26081543 -6.30589355 196.33413086 -7.36499023 196.40966797 C-10.57568342 196.62900631 -13.78699672 196.8179447 -17 197 C-17.92893066 197.05784668 -18.85786133 197.11569336 -19.81494141 197.17529297 C-74.36059108 200.49392159 -129.29043678 196.72266202 -183.17578125 188.05078125 C-188.77152337 187.15772029 -194.35283898 186.46447796 -200 186 C-199.49895752 186.54720703 -198.99791504 187.09441406 -198.48168945 187.65820312 C-194.7640387 191.73350514 -191.25988274 195.91096741 -187.9074707 200.2878418 C-180.47339197 210.52556492 -180.47339197 210.52556492 -170 217 C-167.92130515 217.11578176 -165.8394759 217.17845342 -163.7578125 217.2109375 C-162.52675781 217.23929688 -161.29570312 217.26765625 -160.02734375 217.296875 C-157.43373567 217.34879909 -154.83996375 217.39311733 -152.24609375 217.4296875 C-151.01246094 217.460625 -149.77882812 217.4915625 -148.5078125 217.5234375 C-147.38004395 217.54325684 -146.25227539 217.56307617 -145.09033203 217.58349609 C-141.67213753 218.04418813 -139.75670206 218.96010291 -137 221 C-135.57337781 223.85324437 -135.68966132 225.83454549 -136 229 C-137.58178711 231.65991211 -137.58178711 231.65991211 -140 234 C-143.21704102 234.63110352 -143.21704102 234.63110352 -147.00390625 234.62890625 C-147.68243149 234.63131821 -148.36095673 234.63373016 -149.06004333 234.63621521 C-150.49654985 234.63523732 -151.93309431 234.62185663 -153.36938477 234.59692383 C-155.53212074 234.56297684 -157.69067903 234.5761691 -159.85351562 234.59570312 C-172.15767025 234.5847988 -181.45564316 232.38974548 -190.47265625 223.671875 C-196.74184103 217.04417425 -202.46914128 209.9992898 -208.07470703 202.80712891 C-209.44415023 201.05398646 -210.82734971 199.31230246 -212.2109375 197.5703125 C-214.12433117 195.15416829 -215.94042211 192.69100855 -217.7265625 190.1796875 C-224.56185952 180.92123882 -230.83359285 177.98593712 -241.93066406 175.69921875 C-248.53362871 174.19501172 -255.00964366 172.17485885 -261.5 170.25 C-262.23186523 170.0345755 -262.96373047 169.819151 -263.71777344 169.59719849 C-273.74983648 166.64327341 -283.72370177 163.55784905 -293.625 160.1875 C-294.66591797 159.83913086 -295.70683594 159.49076172 -296.77929688 159.13183594 C-303.60785911 156.753831 -310.31938078 154.31759804 -314.97265625 148.55859375 C-316.88556219 143.79451241 -316.60793543 139.03425185 -316 134 C-313.69252772 129.03005971 -310.72784314 126.66255157 -306 124 C-302.44921875 123.57421875 -302.44921875 123.57421875 -298.6875 123.6875 C-297.38039063 123.72230469 -296.07328125 123.75710938 -294.7265625 123.79296875 C-290.4440275 124.03088736 -286.24694474 124.40393758 -282 125 C-282.32081543 124.44328613 -282.64163086 123.88657227 -282.97216797 123.31298828 C-285.27434501 118.13226968 -284.74315286 112.34035392 -283.05761719 107.03222656 C-281.7733183 103.996156 -280.36455833 101.06552707 -278.875 98.125 C-278.1634375 96.61679688 -278.1634375 96.61679688 -277.4375 95.078125 C-274.67023029 89.43887808 -272.27197194 85.49030829 -267 82 C-259.89812463 79.63270821 -254.56542293 81.61352693 -248.0625 84.5 C-247.28326172 84.83386719 -246.50402344 85.16773438 -245.70117188 85.51171875 C-243.79592277 86.32992389 -241.89725125 87.16341677 -240 88 C-239.72325439 87.38479492 -239.44650879 86.76958984 -239.16137695 86.13574219 C-237.89189383 83.33416069 -236.60247517 80.54220157 -235.3125 77.75 C-234.87744141 76.78191406 -234.44238281 75.81382812 -233.99414062 74.81640625 C-229.81737103 65.84408638 -229.81737103 65.84408638 -225 63 C-218.71006273 60.90335424 -214.03926627 62.04108898 -208.19140625 64.84375 C-207.57982162 65.13229858 -206.968237 65.42084717 -206.33811951 65.71813965 C-204.40665822 66.63292602 -202.48473437 67.56600578 -200.5625 68.5 C-199.24603109 69.1275379 -197.92897827 69.7538524 -196.61132812 70.37890625 C-193.40068117 71.90518933 -190.19830791 73.44799672 -187 75 C-189.30516023 72.07406334 -191.63288737 69.23923765 -194.20703125 66.546875 C-194.79073486 65.93158936 -195.37443848 65.31630371 -195.97583008 64.68237305 C-196.58193115 64.04468994 -197.18803223 63.40700684 -197.8125 62.75 C-213.09324535 46.53535438 -213.09324535 46.53535438 -213.3125 39.75 C-213.36857422 38.62851563 -213.36857422 38.62851563 -213.42578125 37.484375 C-212.20710269 30.37355333 -205.63379984 25.48135552 -200.625 20.8125 C-199.8825 20.10158203 -199.14 19.39066406 -198.375 18.65820312 C-188.70376178 9.57646617 -188.70376178 9.57646617 -182 9.5625 C-173.71133254 9.96988252 -168.39564876 17.42581875 -163 23 C-161.98152697 24.02318819 -160.96123754 25.04457915 -159.9375 26.0625 C-158.9784375 27.0215625 -158.9784375 27.0215625 -158 28 C-157.938125 27.443125 -157.87625 26.88625 -157.8125 26.3125 C-155.43109407 19.53465235 -147.69016235 16.15399747 -141.875 12.75 C-140.96878906 12.20859375 -140.06257812 11.6671875 -139.12890625 11.109375 C-133.04326283 7.50306779 -128.30178702 5.06637456 -121 6 C-111.07844156 10.45457726 -105.42942683 24.00266411 -100 33 C-99.33613281 32.03578125 -98.67226562 31.0715625 -97.98828125 30.078125 C-97.09674019 28.80181359 -96.20479144 27.52578691 -95.3125 26.25 C-94.87744141 25.61578125 -94.44238281 24.9815625 -93.99414062 24.328125 C-87.92985162 15.70335842 -87.92985162 15.70335842 -82.640625 14.43359375 C-81.45726562 14.43552734 -81.45726562 14.43552734 -80.25 14.4375 C-79.47140625 14.41558594 -78.6928125 14.39367187 -77.890625 14.37109375 C-68.93861541 16.3187607 -60.88828763 23.28692354 -53.4375 28.3125 C-52.32248439 29.06087291 -51.20725135 29.80892199 -50.09179688 30.55664062 C-47.39238495 32.36793434 -44.69519682 34.18244281 -42 36 C-38.29005325 33.11763028 -35.57137417 30.37730349 -32.8125 26.5625 C-31.65427734 24.9846875 -31.65427734 24.9846875 -30.47265625 23.375 C-30.07062988 22.82457031 -29.66860352 22.27414063 -29.25439453 21.70703125 C-27.11870533 18.80069826 -24.93860515 15.92909024 -22.75 13.0625 C-21.96109375 12.02222656 -21.1721875 10.98195312 -20.359375 9.91015625 C-14.29248112 2.42698416 -9.82798646 -1.57074857 0 0 Z M-5 17 C-6.79046479 19.12077467 -8.52918884 21.26097355 -10.25 23.4375 C-10.78286621 24.10765137 -11.31573242 24.77780273 -11.86474609 25.46826172 C-17.4978485 32.5798687 -22.996562 39.79334993 -28.48779297 47.01464844 C-30.71134257 49.93390988 -32.94888296 52.84228916 -35.1875 55.75 C-35.97253906 56.77351563 -36.75757813 57.79703125 -37.56640625 58.8515625 C-39.31085039 61.1084196 -41.06712685 63.35158182 -42.83984375 65.5859375 C-43.53847534 66.47394043 -43.53847534 66.47394043 -44.2512207 67.37988281 C-45.1461685 68.51673848 -46.04679029 69.64915754 -46.95385742 70.77636719 C-49.51502617 73.98256427 -49.51502617 73.98256427 -50 78 C-45.67519792 75.92175913 -41.35193193 73.84036738 -37.0300293 71.75610352 C-35.56104149 71.04821409 -34.09164524 70.34117158 -32.62182617 69.63500977 C-30.50330119 68.61699861 -28.38628736 67.59590186 -26.26953125 66.57421875 C-25.61725052 66.26159592 -24.96496979 65.94897308 -24.29292297 65.62687683 C-17.07046879 62.28677754 -17.07046879 62.28677754 -11.30859375 56.98828125 C-10.6120166 56.10958374 -10.6120166 56.10958374 -9.90136719 55.21313477 C-9.41829102 54.58592529 -8.93521484 53.95871582 -8.4375 53.3125 C-7.92735352 52.66273193 -7.41720703 52.01296387 -6.89160156 51.34350586 C-1.1440233 43.98523638 4.44076237 36.50102808 10 29 C6.90030819 25.81786958 3.76941984 22.89792568 0.25 20.1875 C-0.91789062 19.28064453 -0.91789062 19.28064453 -2.109375 18.35546875 C-3.74773208 16.90288886 -3.74773208 16.90288886 -5 17 Z M-127 23 C-131.95 25.97 -136.9 28.94 -142 32 C-138.07893843 40.2133479 -133.49845487 47.91336948 -128.6875 55.625 C-127.93905863 56.83178667 -127.19100916 58.0388165 -126.44335938 59.24609375 C-124.63340426 62.16687243 -122.81820797 65.08434969 -121 68 C-116.51703297 67.31852333 -112.7940744 66.24409891 -108.625 64.4375 C-107.03558594 63.75494141 -107.03558594 63.75494141 -105.4140625 63.05859375 C-104.21910156 62.53458984 -104.21910156 62.53458984 -103 62 C-104.59753753 57.57159837 -106.85461653 53.61676119 -109.24609375 49.58203125 C-109.65787369 48.8835759 -110.06965363 48.18512054 -110.49391174 47.46549988 C-111.36199249 45.99615803 -112.23197966 44.52794101 -113.10375977 43.06079102 C-114.43674656 40.81377007 -115.75862156 38.56045685 -117.08007812 36.30664062 C-117.92641268 34.87720688 -118.77339574 33.44815685 -119.62109375 32.01953125 C-120.21185951 31.00860161 -120.21185951 31.00860161 -120.81455994 29.97724915 C-122.67498422 26.86897167 -123.93862999 25.04091334 -127 23 Z M68 25 C67.52542358 25.75337646 67.52542358 25.75337646 67.04125977 26.52197266 C66.09074895 28.03034342 65.13968936 29.53836844 64.18823242 31.04614258 C63.09907875 32.77383896 62.01202062 34.50285807 60.92700195 36.2331543 C58.39862582 40.25473943 55.85487435 44.25275107 53.1640625 48.16796875 C52.74310303 48.78913574 52.32214355 49.41030273 51.88842773 50.05029297 C50.75399521 51.71492683 49.60212387 53.36763753 48.44921875 55.01953125 C46.71168477 58.59295019 46.91399149 60.2362352 48 64 C48.97348627 66.28480253 48.97348627 66.28480253 50 68 C58.43958738 66.50973829 65.68959294 64.20225887 71.11328125 57.31738281 C75.8102515 50.45439658 79.98269761 43.27785713 84 36 C80.82511507 32.70530809 77.74476524 30.50791079 73.75 28.25 C72.67234375 27.63640625 71.5946875 27.0228125 70.484375 26.390625 C69.66453125 25.93171875 68.8446875 25.4728125 68 25 Z M-184.671875 28.57421875 C-185.35765625 29.27160156 -186.0434375 29.96898437 -186.75 30.6875 C-187.82507813 31.77611328 -187.82507813 31.77611328 -188.921875 32.88671875 C-189.60765625 33.58410156 -190.2934375 34.28148437 -191 35 C-191.99881023 36.00118835 -192.99856219 37.00143988 -194 38 C-194.66 38.66 -195.32 39.32 -196 40 C-190.78411155 45.86442484 -185.48751431 51.64484978 -180.125 57.375 C-175.7139629 62.09026709 -171.30819236 66.80977002 -166.9375 71.5625 C-166.10089844 72.47128906 -165.26429688 73.38007813 -164.40234375 74.31640625 C-161.86005001 77.15633438 -159.42330575 80.05834008 -157 83 C-152.59041892 82.33392561 -148.73427814 80.73375271 -144.6875 78.9375 C-144.04232422 78.65583984 -143.39714844 78.37417969 -142.73242188 78.08398438 C-141.15301642 77.3937257 -139.57623507 76.69746802 -138 76 C-140.0316693 72.32885073 -142.22241023 69.58276504 -145.25 66.6875 C-148.76304661 63.31771592 -151.96827059 59.77799637 -155.15283203 56.10327148 C-158.12372991 52.72046879 -161.21903233 49.45789883 -164.3125 46.1875 C-169.70082839 40.47354023 -175.01690564 34.70710258 -180.2421875 28.84375 C-180.82226562 28.2353125 -181.40234375 27.626875 -182 27 C-183.2613872 26.88574602 -183.2613872 26.88574602 -184.671875 28.57421875 Z M-80 32 C-81.6366755 34.26298453 -83.14565511 36.51267112 -84.625 38.875 C-85.04523438 39.52597656 -85.46546875 40.17695313 -85.8984375 40.84765625 C-88.21126526 44.16247502 -88.21126526 44.16247502 -89 48 C-85.80852186 50.72443256 -84.04450946 52.06338043 -79.78125 51.8046875 C-75.62581649 50.92037004 -71.96152089 49.58664426 -68.0625 47.9375 C-67.37865234 47.65583984 -66.69480469 47.37417969 -65.99023438 47.08398438 C-64.32386054 46.3964595 -62.66149273 45.69923825 -61 45 C-61 44.34 -61 43.68 -61 43 C-62.5798965 41.67634473 -62.5798965 41.67634473 -64.6484375 40.3984375 C-65.40640625 39.90859375 -66.164375 39.41875 -66.9453125 38.9140625 C-67.74710938 38.40617187 -68.54890625 37.89828125 -69.375 37.375 C-70.56609375 36.6015625 -70.56609375 36.6015625 -71.78125 35.8125 C-75.60465001 33.04237047 -75.60465001 33.04237047 -80 32 Z M18.73046875 62.20703125 C17.62751213 62.73462288 17.62751213 62.73462288 16.50227356 63.27287292 C14.05958132 64.44375795 11.62372836 65.62823215 9.1875 66.8125 C7.46990114 67.63841063 5.75179386 68.46326468 4.03320312 69.28710938 C0.45813094 71.00191677 -3.11469477 72.72128253 -6.68603516 74.44384766 C-13.99594796 77.96548779 -21.33184499 81.43188928 -28.66821289 84.89797974 C-32.57555254 86.74461807 -36.48109234 88.59505415 -40.38671875 90.4453125 C-41.1646579 90.81376785 -41.94259705 91.18222321 -42.74411011 91.56184387 C-47.78649892 93.95034214 -52.82768078 96.34137321 -57.86819458 98.73382568 C-61.34570534 100.38430139 -64.82359509 102.03397762 -68.30151367 103.68359375 C-69.95339575 104.46737445 -71.60509369 105.25154336 -73.2565918 106.03613281 C-81.13386265 109.77834272 -89.00359572 113.5169596 -97 117 C-93.73119671 120.55376289 -89.93663152 122.21071482 -85.625 124.25 C-84.49191406 124.81460938 -84.49191406 124.81460938 -83.3359375 125.390625 C-82.59859375 125.74125 -81.86125 126.091875 -81.1015625 126.453125 C-80.43463379 126.77442383 -79.76770508 127.09572266 -79.08056641 127.42675781 C-73.8932561 128.85597685 -69.18802213 125.85008596 -64.60546875 123.6328125 C-63.87810013 123.28646759 -63.15073151 122.94012268 -62.40132141 122.58328247 C-59.9942167 121.43567265 -57.59093244 120.28027822 -55.1875 119.125 C-53.48985857 118.31420211 -51.79193678 117.503991 -50.09375 116.69433594 C-46.53174453 114.99520907 -42.97114181 113.29319312 -39.41162109 111.58886719 C-31.62057963 107.85965122 -23.81923172 104.15213617 -16.01724243 100.44589233 C-14.341486 99.64977344 -12.66584679 98.85340776 -10.99032593 98.05679321 C4.63713068 90.62691428 20.3046593 83.28531425 36 76 C34.90875992 73.34813711 33.80296381 70.70415172 32.6875 68.0625 C32.37876953 67.30775391 32.07003906 66.55300781 31.75195312 65.77539062 C31.44580078 65.05673828 31.13964844 64.33808594 30.82421875 63.59765625 C30.54666748 62.93258057 30.26911621 62.26750488 29.9831543 61.58227539 C27.05798804 56.8745519 22.46892601 60.36896568 18.73046875 62.20703125 Z M-62 62 C-64.72748427 62.9395373 -67.35154386 63.95250208 -70.01171875 65.05859375 C-71.2487278 65.5622496 -71.2487278 65.5622496 -72.51072693 66.07608032 C-75.23938597 67.1892081 -77.96338958 68.31329167 -80.6875 69.4375 C-82.56922199 70.20762631 -84.45122381 70.97706923 -86.33349609 71.74584961 C-91.23828072 73.75125378 -96.13923037 75.76586447 -101.03936768 77.78259277 C-105.84563879 79.75892369 -110.65535269 81.7268337 -115.46484375 83.6953125 C-124.64678755 87.45490283 -133.82469482 91.22423967 -143 95 C-143 95.66 -143 96.32 -143 97 C-139.50249778 98.82884951 -135.9841975 100.60810542 -132.44091797 102.34667969 C-130.65511736 103.23501825 -128.88781327 104.16023162 -127.12109375 105.0859375 C-120.99380221 108.22402724 -120.99380221 108.22402724 -114.3125 108.62939453 C-111.73688561 107.60272602 -109.41645659 106.35687772 -107 105 C-105.16924781 104.25909939 -103.33026345 103.53827867 -101.484375 102.8359375 C-87.69149871 97.07235395 -79.65468151 90.66775532 -71.47705078 78.20507812 C-69.19405312 74.79680789 -66.66057902 71.59698644 -64.125 68.375 C-62.7494822 66.58373084 -61.37425838 64.79223558 -60 63 C-60.99 62.505 -60.99 62.505 -62 62 Z M85.76953125 69.31640625 C84.12404297 70.08017578 84.12404297 70.08017578 82.4453125 70.859375 C81.23427224 71.4268641 80.02333788 71.99457922 78.8125 72.5625 C77.55341771 73.14980881 76.29430251 73.73704709 75.03515625 74.32421875 C65.15895084 78.94111568 55.34466212 83.68286509 45.54171753 88.45288086 C35.22028142 93.4738166 24.84184881 98.35066462 14.41796875 103.15625 C6.06784967 107.01523159 -2.22604136 110.98136304 -10.5 115 C-24.58733379 121.84055345 -38.77435713 128.45255035 -53 135 C-53 135.33 -53 135.66 -53 136 C-49.20048511 136.04948717 -45.40486334 136.05606017 -41.60546875 136.015625 C-37.51636615 135.97691513 -33.44965961 136.08737038 -29.36328125 136.234375 C-11.32312016 136.59438644 0.95292709 132.46600248 16.61865234 123.81396484 C22.24641899 120.79488136 28.06120915 118.19970858 33.875 115.5625 C44.16323061 110.82403575 54.37509816 105.94407451 64.56253052 100.99435425 C76.62228042 95.1388773 88.78369852 89.52035139 101 84 C100.38352774 82.41797334 99.76292255 80.83755684 99.140625 79.2578125 C98.62290527 77.93740967 98.62290527 77.93740967 98.09472656 76.59033203 C96.66064113 73.19701213 94.91386658 70.14420939 93 67 C90.18495334 67 88.32365407 68.12792159 85.76953125 69.31640625 Z M-218 79 C-219.19963643 81.43218059 -220.38484438 83.86970578 -221.5625 86.3125 C-221.90474609 87.00279297 -222.24699219 87.69308594 -222.59960938 88.40429688 C-224.744623 92.55040705 -224.744623 92.55040705 -224 97 C-221.89968601 98.24768494 -219.87286039 99.30606255 -217.66796875 100.3359375 C-217.01274734 100.65164703 -216.35752594 100.96735657 -215.68244934 101.29263306 C-213.52213324 102.33017859 -211.35507094 103.35270843 -209.1875 104.375 C-207.68650275 105.09172332 -206.18585474 105.80917846 -204.68554688 106.52734375 C-192.88557382 112.16197883 -181.0357752 117.69294537 -169.1484375 123.140625 C-165.38415129 124.87231195 -161.66223118 126.65378836 -157.9765625 128.546875 C-157.22761719 128.92457031 -156.47867188 129.30226563 -155.70703125 129.69140625 C-153.82931043 130.64611984 -151.96456031 131.6262409 -150.1015625 132.609375 C-139.73595401 136.86634009 -126.22189671 135.12937918 -115.125 135.0625 C-113.64713696 135.05746663 -112.16927223 135.05290702 -110.69140625 135.04882812 C-107.12756805 135.03798718 -103.56379553 135.02082779 -100 135 C-102.30609991 132.69390009 -104.33180924 131.80419192 -107.30078125 130.453125 C-108.40808594 129.94523437 -109.51539063 129.43734375 -110.65625 128.9140625 C-111.25050781 128.64368164 -111.84476562 128.37330078 -112.45703125 128.09472656 C-115.64937085 126.64137195 -118.83457752 125.17258012 -122.01953125 123.703125 C-122.6807901 123.39822144 -123.34204895 123.09331787 -124.02334595 122.7791748 C-130.89031365 119.60395149 -137.6961525 116.30810154 -144.5 113 C-155.08754684 107.85618049 -165.73185418 102.84794992 -176.42333984 97.9230957 C-182.68801331 95.02880413 -188.92480591 92.08782221 -195.1328125 89.07421875 C-195.80415222 88.74845856 -196.47549194 88.42269836 -197.16717529 88.08706665 C-200.42716827 86.50334065 -203.68405427 84.91353696 -206.9375 83.31640625 C-208.09507812 82.75179687 -209.25265625 82.1871875 -210.4453125 81.60546875 C-211.47156738 81.10168701 -212.49782227 80.59790527 -213.55517578 80.07885742 C-215.85958012 78.86542627 -215.85958012 78.86542627 -218 79 Z M124.9375 89.26171875 C124.24258453 89.60364258 123.54766907 89.94556641 122.83169556 90.29785156 C121.33368562 91.03568819 119.83737156 91.77697586 118.34259033 92.52133179 C114.36924375 94.49930908 110.38325139 96.45150632 106.3984375 98.40625 C105.59626801 98.80051682 104.79409851 99.19478363 103.96762085 99.60099792 C96.9002954 103.06748297 89.77796488 106.40097466 82.625 109.6875 C71.51699028 114.79855733 60.49243501 120.06576906 49.50048828 125.4206543 C44.04624099 128.07229196 38.60885045 130.690955 33 133 C33 133.33 33 133.66 33 134 C37.4376051 133.85726599 41.87505745 133.71019431 46.3125 133.5625 C47.53646484 133.52318359 48.76042969 133.48386719 50.02148438 133.44335938 C52.61033154 133.35639552 55.198746 133.25578154 57.78662109 133.14355469 C60.71629455 133.02352503 63.62924696 133.00566344 66.56103516 133.03613281 C79.3155945 133.00912287 88.52838832 129.42684102 99.75 123.625 C101.40555722 122.79954182 103.06272381 121.97730403 104.72143555 121.15820312 C107.98613968 119.54165779 111.24207392 117.90932964 114.49169922 116.26269531 C121.47273327 112.73810689 128.57372376 109.46992083 135.66503906 106.17431641 C136.50389648 105.77647949 137.34275391 105.37864258 138.20703125 104.96875 C138.9235083 104.63294922 139.63998535 104.29714844 140.37817383 103.95117188 C142.18133019 103.0917432 142.18133019 103.0917432 143 101 C141.92591043 98.39525962 140.79954367 95.90033962 139.5625 93.375 C139.22412109 92.66859375 138.88574219 91.9621875 138.53710938 91.234375 C137.69845121 89.48618616 136.85012153 87.74264314 136 86 C131.52525217 86 128.81724543 87.30668776 124.9375 89.26171875 Z M-260 98 C-262.64 103.61 -265.28 109.22 -268 115 C-251.58909606 123.87138491 -237.5809007 130.97127161 -218.49951172 130.98193359 C-215.41028737 131.00426243 -212.35706832 131.2265987 -209.27856445 131.46777344 C-202.51954559 131.99164011 -195.77586817 132.12920088 -189 132 C-192.19079508 129.41858497 -195.4949188 127.66254573 -199.1875 125.8828125 C-199.79449234 125.58911774 -200.40148468 125.29542297 -201.02687073 124.99282837 C-203.01575829 124.03233714 -205.0077424 123.07847895 -207 122.125 C-208.38410769 121.45881359 -209.76813999 120.79247052 -211.15209961 120.12597656 C-223.78821769 114.05341846 -236.49921317 108.14420554 -249.24047852 102.29589844 C-251.25514202 101.34979263 -253.24793929 100.3567187 -255.22631836 99.33691406 C-257.78709532 97.85526845 -257.78709532 97.85526845 -260 98 Z " fill="#000000" transform="translate(316,139)"/>
</svg>
