<?xml version="1.0" encoding="UTF-8"?>
<svg version="1.1" xmlns="http://www.w3.org/2000/svg" width="512" height="512">
<path d="M0 0 C5.71431871 3.35337533 9.61333401 6.06013748 12.76171875 12.00390625 C14.72416021 15.22102339 15.57193076 16.10179378 19.26953125 17.09765625 C21.70451095 17.37113129 24.14391819 17.60745594 26.5859375 17.80859375 C33.50627901 18.67649137 40.2105828 22.3277703 45.13671875 27.25390625 C53.45029416 37.99760371 55.4797387 47.91302092 54.13671875 61.25390625 C52.5012565 69.5511514 47.37864088 75.7457524 41.13671875 81.25390625 C34.31689893 85.81826842 26.61538447 88.47783954 18.38671875 88.06640625 C13.96234569 88.32165854 13.04663586 90.00100572 10.13671875 93.25390625 C7.56150617 96.72327702 5.26932654 100.3365447 3.02124023 104.02539062 C2.307389 105.17639648 1.57281829 106.31481036 0.81811523 107.43945312 C-1.73682511 111.25489007 -3.76813759 114.7784918 -4.86328125 119.25390625 C-3.91523078 123.09448342 -2.52126879 125.99797832 -0.51293945 129.39648438 C4.31666362 137.76198302 2.46385812 147.73709005 0.13671875 156.62890625 C-0.14884888 157.61648926 -0.14884888 157.61648926 -0.44018555 158.62402344 C-4.2089034 172.57079757 -0.45437854 184.97063173 3.44921875 198.37890625 C4.45893184 201.8777774 5.45591475 205.37985023 6.4375 208.88671875 C6.79830406 210.17106308 6.79830406 210.17106308 7.16639709 211.48135376 C9.02224723 218.3122003 10.2408715 225.15175958 11.10151672 232.17581177 C11.98809485 238.94111765 14.13878546 241.909413 19.13671875 246.25390625 C21.0993617 248.27736349 23.03553057 250.31036539 24.94921875 252.37890625 C25.46508545 252.93529785 25.98095215 253.49168945 26.51245117 254.06494141 C47.9151611 277.47342533 55.14743136 303.47974704 54.31152344 334.86767578 C52.9372954 361.48854571 37.31033709 382.18703457 19.13671875 400.25390625 C20.01932373 400.25801514 20.90192871 400.26212402 21.8112793 400.26635742 C25.10147915 400.29340609 28.38983273 400.34255576 31.67944336 400.40649414 C33.10022577 400.42962128 34.52117833 400.44405751 35.94213867 400.44946289 C37.99114341 400.45879286 40.03749225 400.49985791 42.0859375 400.546875 C43.31658936 400.56258545 44.54724121 400.5782959 45.81518555 400.59448242 C49.998012 401.42489876 51.48601508 402.98569691 54.13671875 406.25390625 C55.36103436 409.79015765 55.02089105 412.65012458 54.13671875 416.25390625 C52.4339447 418.60411072 52.4339447 418.60411072 50.20678711 420.95288086 C49.38910858 421.82186005 48.57143005 422.69083923 47.72897339 423.58615112 C46.44580734 424.90668991 46.44580734 424.90668991 45.13671875 426.25390625 C44.3388797 427.07778839 43.54104065 427.90167053 42.71902466 428.7505188 C40.20975315 431.31196099 37.67907556 433.85029563 35.140625 436.3828125 C34.22586899 437.29852524 33.31111298 438.21423798 32.36863708 439.15769958 C30.45513603 441.07265787 28.5398811 442.98583862 26.62329102 444.89770508 C24.16638595 447.3488488 21.71408621 449.80454392 19.26303196 452.2615366 C16.91214978 454.61688646 14.55748205 456.96843598 12.203125 459.3203125 C11.32298233 460.2024794 10.44283966 461.0846463 9.536026 461.99354553 C8.72435471 462.80206467 7.91268341 463.6105838 7.07641602 464.44360352 C6.36187759 465.15734634 5.64733917 465.87108917 4.91114807 466.60646057 C1.57142916 469.70717888 -0.9559594 469.38572032 -5.42209625 469.40209389 C-6.10688769 469.4059441 -6.79167913 469.40979431 -7.49722183 469.4137612 C-9.81476292 469.42552325 -12.13226352 469.4301025 -14.4498291 469.4347229 C-16.11909894 469.44159751 -17.78836712 469.4488859 -19.4576335 469.45655477 C-24.06283916 469.47634269 -28.66804467 469.48969279 -33.27327585 469.5019033 C-37.21893277 469.51315665 -41.16457235 469.52809296 -45.1102168 469.5430264 C-82.51224267 469.68410378 -119.91466025 469.7494444 -157.31690216 469.80234718 C-162.18685422 469.80935634 -167.0568061 469.81648329 -171.92675781 469.82373047 C-173.1371933 469.82552576 -174.34762879 469.82732105 -175.59474415 469.82917075 C-195.20097216 469.85923433 -214.80693214 469.92399676 -234.41301996 470.00241692 C-254.53412685 470.08223236 -274.65509491 470.12802691 -294.77635717 470.14137304 C-306.07697126 470.14978432 -317.37711042 470.17356767 -328.67756653 470.23604202 C-338.30258705 470.28922411 -347.92706589 470.31200648 -357.55222911 470.29493184 C-362.46317825 470.28718017 -367.3729626 470.2940163 -372.28372574 470.34021378 C-376.78256933 470.38220314 -381.27943662 470.38240161 -385.77834004 470.34978358 C-387.40297547 470.3452958 -389.02774064 470.35594876 -390.65214807 470.38353367 C-398.55839601 470.50973398 -404.54829514 470.35182476 -410.72933197 464.84950638 C-412.13961295 463.34732111 -413.52315479 461.81899861 -414.86328125 460.25390625 C-415.76933105 459.38976105 -416.67538086 458.52561584 -417.60888672 457.63528442 C-418.30900879 456.93595795 -419.00913086 456.23663147 -419.73046875 455.51611328 C-420.95092896 454.30038132 -420.95092896 454.30038132 -422.19604492 453.06008911 C-423.4544519 451.79864578 -423.4544519 451.79864578 -424.73828125 450.51171875 C-425.62942627 449.62153046 -426.52057129 448.73134216 -427.4387207 447.81417847 C-429.77416711 445.47957809 -432.10718874 443.14258742 -434.43939209 440.80474854 C-436.35043392 438.89108536 -438.26519786 436.98116743 -440.17993164 435.07119942 C-442.47264219 432.78296451 -444.76154766 430.49093133 -447.05078125 428.19921875 C-447.90591309 427.34611115 -448.76104492 426.49300354 -449.64208984 425.61404419 C-450.82472412 424.42668167 -450.82472412 424.42668167 -452.03125 423.21533203 C-452.72500732 422.52077911 -453.41876465 421.8262262 -454.13354492 421.11062622 C-457.97983017 416.98197695 -458.38145077 414.14183726 -458.22265625 408.703125 C-457.86328125 406.25390625 -457.86328125 406.25390625 -456.05078125 403.19140625 C-451.4856499 400.41652249 -447.12320521 400.35523578 -441.86328125 400.25390625 C-442.29898437 399.7434375 -442.7346875 399.23296875 -443.18359375 398.70703125 C-454.63918045 384.72228904 -458.46350389 370.59511519 -458.30078125 352.75390625 C-458.29740753 352.03525391 -458.29403381 351.31660156 -458.29055786 350.57617188 C-458.00106515 307.64836893 -444.57029088 263.00409318 -418.86328125 228.25390625 C-418.10789062 227.2278125 -417.3525 226.20171875 -416.57421875 225.14453125 C-404.37902461 208.84176619 -390.97204511 193.79298611 -374.86328125 181.25390625 C-373.97511719 180.54878906 -373.08695312 179.84367188 -372.171875 179.1171875 C-331.92752611 147.94041096 -284.20509925 132.81296118 -233.61328125 132.94140625 C-232.09924713 132.93765991 -232.09924713 132.93765991 -230.55462646 132.93383789 C-218.17101062 132.90934837 -206.23825191 133.43928726 -193.98828125 135.25390625 C-185.31412411 136.48198263 -179.07901249 136.65427912 -171.57261658 131.7741394 C-167.20372073 128.93421579 -162.96178348 126.92298925 -158.03125 125.25390625 C-157.29982788 125.00121475 -156.56840576 124.74852325 -155.81481934 124.48817444 C-146.87962491 121.47770983 -137.72979904 119.31661325 -128.56201172 117.14672852 C-115.50184946 114.03511639 -106.52800527 110.41156641 -96.98828125 100.75390625 C-85.82871524 89.97383802 -85.82871524 89.97383802 -77.86328125 88.25390625 C-76.62964844 88.29515625 -75.39601563 88.33640625 -74.125 88.37890625 C-69.65551786 88.51321275 -65.79469969 88.62177778 -61.86328125 86.25390625 C-56.44792008 80.0070117 -52.8236777 72.38891333 -49.23510742 64.99291992 C-47.86328125 62.25390625 -47.86328125 62.25390625 -46.18481445 59.54418945 C-44.65867942 57.36049643 -44.65867942 57.36049643 -44.92578125 54.94140625 C-45.73478602 52.62225924 -46.66143632 50.66694832 -47.80078125 48.50390625 C-52.44513698 39.41859724 -52.64043358 30.48027866 -50.21484375 20.6171875 C-47.14408238 11.64436645 -40.93160246 4.48713107 -32.48828125 0.19140625 C-22.67039694 -4.18768183 -9.84727521 -4.79824785 0 0 Z M-26.86328125 22.25390625 C-29.31063895 25.45207576 -30.91525355 28.39264837 -30.80078125 32.4921875 C-29.89452452 37.17721112 -28.07436154 41.27396172 -25.765625 45.4296875 C-22.9973451 51.02616678 -23.08419294 57.35659478 -24.9296875 63.22265625 C-27.55753451 70.80166611 -32.00083729 77.56231485 -36.03320312 84.45507812 C-36.96036133 86.06672852 -36.96036133 86.06672852 -37.90625 87.7109375 C-38.4736792 88.6800708 -39.0411084 89.6492041 -39.62573242 90.64770508 C-41.14924433 93.3752765 -41.14924433 93.3752765 -40.86328125 97.25390625 C-38.26339573 98.76178002 -35.65887928 100.26036086 -33.05078125 101.75390625 C-32.31279297 102.18316406 -31.57480469 102.61242187 -30.81445312 103.0546875 C-30.10224609 103.46074219 -29.39003906 103.86679688 -28.65625 104.28515625 C-28.00164795 104.66220703 -27.3470459 105.03925781 -26.67260742 105.42773438 C-24.73995808 106.46158886 -24.73995808 106.46158886 -21.86328125 106.25390625 C-21.47060059 105.53847656 -21.07791992 104.82304688 -20.67333984 104.0859375 C-19.19088199 101.39198529 -17.70294406 98.70115198 -16.21142578 96.01220703 C-15.25918879 94.2916825 -14.31311676 92.56775051 -13.3671875 90.84375 C-3.1011509 72.36488413 -3.1011509 72.36488413 8.13671875 68.25390625 C11.25358716 67.59772343 14.18545111 67.30917356 17.35546875 67.125 C23.72525245 66.62603361 27.715228 65.07897879 32.01171875 60.06640625 C33.98454056 55.13435173 34.01843247 50.34217559 31.94921875 45.44140625 C29.4222137 42.39157257 26.68753309 40.02931342 23.13671875 38.25390625 C19.46341911 38.12033172 16.63818916 38.08674945 13.13671875 39.25390625 C8.52809605 39.85803282 5.22483704 39.96354861 1.26171875 37.37890625 C-1.1420958 33.84388485 -1.97756658 30.72444343 -3.05078125 26.6328125 C-4.20808092 23.24437261 -6.06780779 21.42039818 -8.86328125 19.25390625 C-15.55776506 17.02241165 -21.54072335 17.3026896 -26.86328125 22.25390625 Z M-81.42578125 115.87890625 C-85.16080377 119.71487533 -88.94128458 123.04985306 -93.30078125 126.12890625 C-94.28949219 126.82757813 -95.27820313 127.52625 -96.296875 128.24609375 C-106.44451019 134.40238516 -118.97437915 136.42628728 -130.38232422 139.17578125 C-143.92748097 142.4559057 -156.97172862 146.53180579 -169.11328125 153.56640625 C-169.7789209 153.94901611 -170.44456055 154.33162598 -171.13037109 154.72583008 C-177.23685743 158.32616487 -182.64546771 162.44705974 -187.86328125 167.25390625 C-188.41226074 167.75519043 -188.96124023 168.25647461 -189.52685547 168.77294922 C-209.19953863 186.9260872 -223.20373061 211.29312138 -225.08618164 238.47216797 C-226.21321284 271.85468608 -218.04565668 299.09951245 -195.3046875 324.0625 C-175.80420476 344.46866553 -148.51465948 356.11157823 -120.43359375 357.21875 C-89.70182737 357.8449872 -62.20079926 345.05265438 -40.30078125 324.06640625 C-19.36198579 302.59676809 -9.20541858 273.05058165 -9.51855469 243.38598633 C-9.94501474 227.35081128 -14.30056613 212.51980936 -18.72631836 197.20751953 C-18.92385208 196.5239035 -19.1213858 195.84028748 -19.3249054 195.13595581 C-19.87091431 193.25292267 -20.42093097 191.37105297 -20.97119141 189.48925781 C-24.62294098 176.24541947 -23.66821766 162.81473682 -19.73828125 149.76953125 C-18.52265839 144.88533225 -18.27566796 140.8861654 -19.98828125 136.12890625 C-24.81145676 128.73337047 -33.13514166 125.00667707 -40.61328125 120.75390625 C-41.7425 120.10292969 -42.87171875 119.45195312 -44.03515625 118.78125 C-63.12094326 106.6303543 -63.12094326 106.6303543 -81.42578125 115.87890625 Z M-370.72265625 206.30078125 C-372.45669383 207.88293233 -374.21027507 209.36337506 -376.05078125 210.81640625 C-379.01712143 213.38723441 -381.48697926 216.11944133 -384.0234375 219.10546875 C-385.23403603 220.51911883 -386.47077541 221.91086235 -387.734375 223.27734375 C-419.05605631 257.18290621 -436.82580377 304.71935641 -437.17578125 350.56640625 C-437.21928711 352.44875977 -437.21928711 352.44875977 -437.26367188 354.36914062 C-437.35719263 368.1742427 -433.17533104 378.37513805 -423.796875 388.48046875 C-410.76112978 400.93321999 -394.75812214 401.55155375 -377.57373047 401.55688477 C-376.08901009 401.56456702 -374.604294 401.5731173 -373.11958313 401.5824585 C-369.95168479 401.60057734 -366.78384356 401.61271648 -363.61590195 401.61999702 C-358.60683688 401.6315772 -353.59789857 401.65706777 -348.58889771 401.68431091 C-340.67391514 401.72576762 -332.75892632 401.75827939 -324.84388745 401.78678507 C-310.64281322 401.83799977 -296.44179152 401.89992668 -282.24080861 401.97212547 C-277.25986932 401.99703117 -272.27894713 402.01646789 -267.29796863 402.03150761 C-264.20909931 402.04169685 -261.12025692 402.05584088 -258.03140831 402.07098389 C-256.59748785 402.07714746 -255.16355889 402.08160225 -253.72962761 402.08424187 C-251.77610784 402.08804436 -249.82260411 402.0984156 -247.86911011 402.10914612 C-246.22829625 402.11492849 -246.22829625 402.11492849 -244.55433464 402.12082767 C-241.86328125 402.25390625 -241.86328125 402.25390625 -238.86328125 403.25390625 C-237.88052537 406.20217388 -237.729134 408.18043129 -237.73828125 411.25390625 C-237.73570312 412.12015625 -237.733125 412.98640625 -237.73046875 413.87890625 C-237.86328125 416.25390625 -237.86328125 416.25390625 -238.86328125 419.25390625 C-242.33512885 420.41118878 -245.44611761 420.40701736 -249.05754089 420.41212463 C-249.79514359 420.41706261 -250.53274629 420.42200059 -251.29270059 420.4270882 C-253.7708964 420.44247907 -256.24906627 420.45082812 -258.72729492 420.45922852 C-260.50111622 420.46880579 -262.27493523 420.47881578 -264.04875183 420.48922729 C-268.87071982 420.51629874 -273.69269762 420.53729618 -278.5146997 420.55722928 C-283.55159153 420.57907502 -288.58845305 420.60647061 -293.62532043 420.63328552 C-303.16626554 420.68323152 -312.70722746 420.72816328 -322.24820548 420.77130789 C-333.10903159 420.82066396 -343.96982728 420.87558813 -354.83062398 420.93098748 C-377.1748147 421.04483681 -399.51903459 421.15166943 -421.86328125 421.25390625 C-420.90259204 422.37759618 -419.94149476 423.50093725 -418.98022461 424.62413025 C-418.17747353 425.56252699 -418.17747353 425.56252699 -417.35850525 426.51988125 C-415.75042269 428.38478936 -414.10638506 430.20802622 -412.42578125 432.0078125 C-411.54792969 432.94850586 -411.54792969 432.94850586 -410.65234375 433.90820312 C-409.76675781 434.85276367 -409.76675781 434.85276367 -408.86328125 435.81640625 C-408.27289063 436.44998047 -407.6825 437.08355469 -407.07421875 437.73632812 C-405.34584492 439.58462217 -403.61671494 441.42931939 -401.86328125 443.25390625 C-401.15074031 444.2665451 -400.43819937 445.27918394 -399.70406628 446.32250881 C-394.6597877 451.28722374 -387.14481491 450.12589066 -380.53962708 450.10328674 C-378.94753999 450.11951243 -377.35547736 450.13830613 -375.76344794 450.15944523 C-371.38976854 450.20974529 -367.01666401 450.22247343 -362.6427294 450.22882187 C-357.92446651 450.24199362 -353.20652297 450.28931412 -348.4884491 450.33171082 C-338.16973194 450.41748799 -327.85113943 450.45780199 -317.53212953 450.48796964 C-311.08379957 450.50682674 -304.63552323 450.53420585 -298.18723106 450.56300163 C-280.32091802 450.64098613 -262.45464523 450.70696565 -244.58817005 450.73112583 C-243.44472729 450.73269479 -242.30128453 450.73426375 -241.12319199 450.73588025 C-239.9770545 450.73744538 -238.83091701 450.7390105 -237.65004808 450.74062306 C-235.32765246 450.74380888 -233.00525688 450.74701594 -230.68286133 450.75024414 C-229.5308797 450.75183503 -228.37889808 450.75342592 -227.19200792 450.75506502 C-208.54857646 450.7830746 -189.90669147 450.89558984 -171.26387302 451.04462243 C-152.1064358 451.19652424 -132.94977492 451.27659835 -113.79172724 451.28560966 C-103.04186446 451.29234392 -92.29406204 451.32951417 -81.54477882 451.4461689 C-72.38539484 451.54524699 -63.2286773 451.57833759 -54.06884924 451.5275116 C-49.40023926 451.50354255 -44.73701435 451.50934995 -40.06909561 451.59955978 C-17.88144299 452.56015339 -17.88144299 452.56015339 1.13256198 442.6901111 C4.13032622 439.50000237 6.83310412 436.21078606 9.38496363 432.65511596 C11.68442247 429.50314407 14.25550886 426.64457408 16.87204331 423.75494868 C18.24410649 422.45357896 18.24410649 422.45357896 18.13671875 421.25390625 C17.21181231 421.24967431 16.28690588 421.24544237 15.33397198 421.24108219 C-7.1490822 421.13798541 -29.63210367 421.0292495 -52.11510181 420.91456699 C-62.9876122 420.85923908 -73.86012587 420.80575777 -84.73266602 420.7565918 C-94.20682575 420.7137447 -103.68096136 420.66746535 -113.15508384 420.6170277 C-118.17365651 420.59043103 -123.19222441 420.56557802 -128.21082497 420.54483223 C-132.93114506 420.52526531 -137.65141926 420.50112131 -142.37169838 420.47341537 C-144.10715401 420.46404524 -145.84261971 420.45636982 -147.57809067 420.45048714 C-149.94178488 420.44222533 -152.30536772 420.42794842 -154.66902161 420.41212463 C-155.36065378 420.41114653 -156.05228594 420.41016842 -156.76487666 420.40916067 C-159.7468211 420.38337096 -162.00793919 420.20568694 -164.86328125 419.25390625 C-165.84603713 416.30563862 -165.9974285 414.32738121 -165.98828125 411.25390625 C-165.99085938 410.38765625 -165.9934375 409.52140625 -165.99609375 408.62890625 C-165.86328125 406.25390625 -165.86328125 406.25390625 -164.86328125 403.25390625 C-161.95249721 402.2836449 -160.08390968 402.12270356 -157.05451965 402.10914612 C-156.06381973 402.10224762 -155.07311981 402.09534912 -154.05239868 402.08824158 C-152.42314957 402.08432152 -152.42314957 402.08432152 -150.76098633 402.08032227 C-149.61582047 402.07363525 -148.4706546 402.06694824 -147.29078674 402.06005859 C-144.79774357 402.04598943 -142.30468738 402.03410135 -139.81162453 402.02411079 C-135.85416802 402.00769367 -131.89678262 401.98465571 -127.93937683 401.95921326 C-116.6846519 401.88815739 -105.42987956 401.82859573 -94.17504883 401.77709961 C-87.96019381 401.74858844 -81.74541522 401.71308656 -75.53064078 401.67044586 C-72.24934526 401.64827645 -68.96813218 401.63082533 -65.68677711 401.61999702 C-38.33661283 401.52852242 -13.3165383 400.44892571 8.13671875 381.25390625 C8.92046875 380.55265625 9.70421875 379.85140625 10.51171875 379.12890625 C16.1690941 373.77733497 20.29320338 368.00654855 24.13671875 361.25390625 C24.83087891 360.06861328 24.83087891 360.06861328 25.5390625 358.859375 C34.47332176 342.48442565 35.91591075 322.28764397 31.63671875 304.25390625 C27.16881696 290.33647003 20.33376774 278.71977024 10.13671875 268.25390625 C9.80671875 268.25390625 9.47671875 268.25390625 9.13671875 268.25390625 C8.69972656 270.15849609 8.69972656 270.15849609 8.25390625 272.1015625 C2.12993695 298.10241849 -8.45571907 319.73469733 -26.86328125 339.25390625 C-27.47558594 339.93066406 -28.08789062 340.60742188 -28.71875 341.3046875 C-43.67830851 357.22114741 -64.99889246 367.67061303 -85.86328125 373.25390625 C-87.12269531 373.59292969 -88.38210938 373.93195313 -89.6796875 374.28125 C-122.8999592 381.55551737 -158.49895741 375.1548157 -187.203125 357.16015625 C-197.73100356 350.04976978 -207.97647286 342.29825532 -215.86328125 332.25390625 C-216.55808594 331.39539063 -217.25289062 330.536875 -217.96875 329.65234375 C-238.94284786 302.86614649 -248.69746442 269.04532032 -245.23828125 235.12890625 C-241.97416771 208.58998855 -231.31471029 184.47597454 -213.86328125 164.25390625 C-213.18652344 163.46757812 -212.50976562 162.68125 -211.8125 161.87109375 C-210.17491132 159.9873745 -208.526675 158.114828 -206.86328125 156.25390625 C-210.14441557 154.06648337 -211.34273051 153.95672579 -215.17578125 153.8046875 C-216.24135254 153.76045654 -217.30692383 153.71622559 -218.40478516 153.6706543 C-220.11674072 153.61905151 -220.11674072 153.61905151 -221.86328125 153.56640625 C-223.62744385 153.50996948 -223.62744385 153.50996948 -225.42724609 153.45239258 C-279.11940423 152.0005613 -331.04697143 169.69676235 -370.72265625 206.30078125 Z " fill="#000000" transform="translate(457.86328125,22.74609375)"/>
<path d="M0 0 C2.75569447 2.18159145 4.43588747 3.87177494 6 7 C6.41350948 10.63888347 6.19483075 12.62005447 4.51171875 15.90234375 C1.31506574 19.84471675 -2.0263576 21.55946324 -6.5 23.8125 C-18.32309689 30.07840951 -28.26641336 37.79933115 -38 47 C-38.81082031 47.74636719 -39.62164062 48.49273437 -40.45703125 49.26171875 C-51.74006389 60.01169473 -59.69404701 72.68946607 -67.06591797 86.296875 C-72.15623148 95.57811574 -72.15623148 95.57811574 -75 97 C-79.63213493 97.55512815 -82.98172127 97.6364242 -87 95.125 C-89.98740627 91.95088083 -90.39307922 89.70068749 -90.32617188 85.33203125 C-89.6902846 80.78562762 -87.43326361 76.98131033 -85.25 73 C-84.75773926 72.08371826 -84.26547852 71.16743652 -83.75830078 70.22338867 C-76.79543259 57.59948234 -67.97508746 46.38390252 -58 36 C-57.54077148 35.50967285 -57.08154297 35.0193457 -56.60839844 34.51416016 C-43.82770031 20.90066605 -29.51270446 10.6439744 -13 2 C-12.28199219 1.59910156 -11.56398438 1.19820312 -10.82421875 0.78515625 C-7.31838662 -0.72377792 -3.71747542 -0.66927811 0 0 Z " fill="#000000" transform="translate(158,226)"/>
<path d="M0 0 C3.125 1.875 3.125 1.875 5 5 C5.98876625 10.02622846 5.7769173 13.70513784 3.125 18.125 C-1.29486216 20.7769173 -4.97377154 20.98876625 -10 20 C-13.125 18.125 -13.125 18.125 -15 15 C-15.98876625 9.97377154 -15.7769173 6.29486216 -13.125 1.875 C-8.70513784 -0.7769173 -5.02622846 -0.98876625 0 0 Z " fill="#000000" transform="translate(261,424)"/>
</svg>
