<?xml version="1.0" encoding="UTF-8"?>
<svg version="1.1" xmlns="http://www.w3.org/2000/svg" width="512" height="512">
<path d="M0 0 C7.87717444 5.30165469 13.31316098 13.64189207 15.79296875 22.75 C16.20405207 25.72306717 16.27062739 28.62659537 16.23046875 31.625 C16.22362061 32.41366455 16.21677246 33.2023291 16.2097168 34.01489258 C15.98847634 42.06489637 13.88947584 47.87544463 9.20776367 54.38989258 C8.75600266 55.01938309 8.30424164 55.6488736 7.83879089 56.29743958 C7.49366959 56.77678452 7.14854828 57.25612946 6.79296875 57.75 C12.05525083 63.39355675 17.37625296 68.97666904 22.74145508 74.52246094 C24.55813708 76.41443995 26.36111343 78.31968132 28.1496582 80.23828125 C30.72861962 82.99986837 33.35368175 85.70946043 35.9921875 88.4140625 C36.77816818 89.27746246 37.56414886 90.14086243 38.37394714 91.03042603 C41.87700005 94.53856831 44.04865925 96.71064185 49.14785767 96.82569885 C52.44023353 96.32043553 55.5725088 95.58978787 58.79296875 94.75 C117.63956357 88.39005127 188.24037532 127.65881372 232.48046875 163.25 C234.25691047 164.74335378 236.02779923 166.24333903 237.79296875 167.75 C238.685 168.48347656 239.57703125 169.21695313 240.49609375 169.97265625 C262.25544679 188.5924455 274.5325599 215.18377574 277.41796875 243.375 C279.21352849 266.61933705 274.2301052 288.50462896 262.79296875 308.75 C262.23738281 309.74644531 261.68179687 310.74289062 261.109375 311.76953125 C256.60611921 319.31815426 250.85891168 325.45771591 244.79296875 331.75 C244.19742187 332.40871094 243.601875 333.06742187 242.98828125 333.74609375 C224.68869578 353.45684128 195.77381356 362.68643434 169.65625 363.7265625 C160.00739807 363.91926425 150.23355308 362.6989842 140.79296875 360.75 C140.46087402 361.75675781 140.1287793 362.76351563 139.78662109 363.80078125 C138.52618883 367.61891463 137.26147148 371.43561817 135.99560547 375.25195312 C135.45346206 376.88829866 134.91240544 378.52500475 134.37255859 380.16210938 C131.56332444 388.67874476 128.7046839 397.16944405 125.57421875 405.57421875 C125.33681976 406.21524536 125.09942078 406.85627197 124.85482788 407.51672363 C114.05769666 436.09660964 89.73879684 457.90810208 62.44702148 470.40795898 C34.78081737 482.48623739 3.19847207 484.55830059 -25.20703125 473.75 C-34.94017877 469.72746915 -43.29729693 464.7513726 -51.20703125 457.75 C-52.17640625 456.97914063 -53.14578125 456.20828125 -54.14453125 455.4140625 C-71.95769698 440.58101407 -82.5265549 415.28833862 -85.20703125 392.75 C-86.00532636 381.83759097 -85.18736036 371.54854851 -82.86328125 360.875 C-82.10427263 357.79286706 -82.10427263 357.79286706 -82.20703125 354.75 C-82.84801758 354.50991211 -83.48900391 354.26982422 -84.14941406 354.02246094 C-162.15267065 324.69191203 -162.15267065 324.69191203 -189.20703125 300.75 C-190.40779297 299.69039063 -190.40779297 299.69039063 -191.6328125 298.609375 C-198.71565586 291.97862803 -203.68511684 284.40440873 -204.45703125 274.5625 C-203.81029406 264.69975787 -199.37199279 257.42644143 -192.20703125 250.75 C-191.70042969 250.23824219 -191.19382813 249.72648438 -190.671875 249.19921875 C-146.12103849 206.60666077 -51.08841807 202.29972656 7.63647461 199.00708008 C10.43452893 198.77919306 13.05866394 198.36978432 15.79296875 197.75 C15.65197754 197.20811035 15.51098633 196.6662207 15.36572266 196.10791016 C5.43111873 157.46791503 5.43111873 157.46791503 9.93603516 144.44580078 C11.24454199 139.91644476 12.03532789 136.3631718 10.79296875 131.75 C5.90981956 123.73616076 -1.73517316 117.53990868 -8.58203125 111.25 C-10.47412009 109.44827281 -12.36219216 107.64231737 -14.24609375 105.83203125 C-18.85439095 101.42136758 -23.51014667 97.06610277 -28.20703125 92.75 C-28.95817703 93.23890717 -29.70932281 93.72781433 -30.48323059 94.23153687 C-31.47078842 94.86846466 -32.45834625 95.50539246 -33.47583008 96.16162109 C-34.45385086 96.79490326 -35.43187164 97.42818542 -36.43952942 98.08065796 C-44.34160111 102.8471446 -53.28944099 102.47185824 -62.20703125 101.75 C-71.28129759 99.49595689 -79.43298792 94.09878242 -85.20703125 86.75 C-91.04639253 76.15208467 -93.26521957 65.44631853 -90.08203125 53.5 C-86.83688343 44.18718044 -80.62529876 36.29111311 -71.94140625 31.5 C-68.29405742 29.81279102 -65.42591482 28.77511779 -61.39453125 28.3125 C-57.99185744 27.08675041 -57.99185744 27.08675041 -57.1328125 24.0546875 C-56.50105663 21.75690878 -55.88585997 19.4545289 -55.28515625 17.1484375 C-52.71966534 9.06156399 -46.43435544 2.95847727 -39.20703125 -1.25 C-26.49075281 -7.82314876 -12.31036662 -6.97224304 0 0 Z M-38.01953125 20.96875 C-41.23102044 25.78598379 -41.28379484 30.06101376 -41.15234375 35.62890625 C-41.22283613 38.36300375 -41.86990519 40.372887 -43.20703125 42.75 C-45.93308912 44.11302893 -48.28923671 43.93895266 -51.33203125 44.0625 C-59.18571543 44.64265087 -64.24599229 46.31401826 -69.58203125 52.1875 C-73.40084188 57.09591692 -74.69745766 61.20212801 -74.51171875 67.4140625 C-73.71484993 73.52339011 -70.95961426 77.4631264 -66.14453125 81.1875 C-60.70255365 85.02090841 -55.71679514 85.40970782 -49.20703125 84.75 C-43.71286687 83.27425349 -40.7317473 80.35446438 -37.20703125 76 C-32.98055857 71.04992888 -32.98055857 71.04992888 -29.33203125 70.625 C-17.85751347 72.60050376 -5.47152673 90.37945701 2.41796875 98.3125 C4.0101823 99.90973887 5.60262836 101.506746 7.1953125 103.10351562 C11.06388281 106.98300916 14.92957204 110.86535466 18.79296875 114.75 C19.55996094 113.97269531 20.32695312 113.19539063 21.1171875 112.39453125 C23.56223625 109.97803782 26.07396437 107.84751766 28.79296875 105.75 C27.33751494 102.39803688 25.49961102 100.21799449 22.90991211 97.65576172 C22.11246078 96.86168915 21.31500946 96.06761658 20.49339294 95.2494812 C19.20115562 93.97743332 19.20115562 93.97743332 17.8828125 92.6796875 C17.00017227 91.80224884 16.11753204 90.92481018 15.20814514 90.02078247 C12.86604036 87.69347304 10.51995191 85.37028733 8.17144775 83.04943848 C4.85727381 79.77330685 1.54831928 76.49193282 -1.75791931 73.20779419 C-3.51801979 71.45998749 -5.2807857 69.71486025 -7.04640198 67.97262573 C-7.84070114 67.18485748 -8.63500031 66.39708923 -9.45336914 65.58544922 C-10.15571182 64.89135956 -10.8580545 64.1972699 -11.5816803 63.48214722 C-13.73682753 61.18539262 -14.19563623 59.80075963 -14.89453125 56.6875 C-13.93504746 51.19227464 -10.95587072 49.41539323 -6.6875 46.05859375 C-3.13288363 42.7502815 -1.50473821 39.61066852 -0.73828125 34.8203125 C-0.66356288 27.77810659 -1.48353816 23.10760586 -6.20703125 17.75 C-10.56710545 13.60792951 -14.53081136 11.6831674 -20.51953125 11.375 C-28.1308541 11.58993769 -33.41013281 15.05669548 -38.01953125 20.96875 Z M46.79296875 114.75 C46.05691406 115.00523437 45.32085937 115.26046875 44.5625 115.5234375 C37.62722709 118.44778855 32.47982151 123.96308847 29.4375 130.79296875 C21.65239547 153.41755051 27.49360735 176.51549513 33.79296875 198.75 C34.88609375 198.73839844 35.97921875 198.72679687 37.10546875 198.71484375 C63.28790344 198.52205079 90.67224063 198.52296154 115.79296875 206.75 C116.72109375 207.04648438 117.64921875 207.34296875 118.60546875 207.6484375 C131.74984502 212.33713269 139.11508197 222.10110711 145.55078125 234 C160.41756224 265.67595548 154.48859004 303.61304816 146.52734375 336.37109375 C145.65138025 339.82515931 145.65138025 339.82515931 145.79296875 343.75 C168.33504025 349.88868911 191.97077239 346.16333233 212.34204102 335.04663086 C235.23255012 321.91203423 250.83083216 301.463049 258.01171875 276.11328125 C263.58578148 252.11694118 260.38108822 226.99379994 247.9453125 205.56640625 C243.5394848 198.69051213 238.46617307 192.61013033 232.79296875 186.75 C232.01276367 185.93474854 232.01276367 185.93474854 231.21679688 185.10302734 C227.21284201 180.99234528 223.03403309 177.40284183 218.41796875 174 C217.38095825 173.23139648 217.38095825 173.23139648 216.32299805 172.44726562 C188.31109676 151.91888185 157.26538376 135.89795382 124.79296875 123.75 C123.97344727 123.44191406 123.15392578 123.13382813 122.30957031 122.81640625 C99.48151468 114.36661849 70.67574066 106.41458644 46.79296875 114.75 Z M32.14257812 214.78808594 C-28.83829637 215.84096221 -135.98736153 219.09244473 -182.05078125 264.5703125 C-184.91559099 267.69187405 -187.3206448 270.31907157 -187.20703125 274.75 C-180.02128584 294.95990895 -150.12270123 307.07425397 -132.41723633 315.56396484 C-120.57706701 321.11939601 -108.56066194 326.14550323 -96.39453125 330.9375 C-95.6828479 331.21794159 -94.97116455 331.49838318 -94.23791504 331.787323 C-87.62520022 334.38232539 -81.06417873 336.87540377 -74.20703125 338.75 C-73.67335938 337.89019531 -73.1396875 337.03039062 -72.58984375 336.14453125 C-59.96843103 316.01406765 -44.79689959 298.42209561 -25.20703125 284.75 C-24.21703125 284.0384375 -23.22703125 283.326875 -22.20703125 282.59375 C-18.14941391 279.81516421 -15.15145155 277.91489878 -10.26953125 277.0625 C-6.57090677 277.89280346 -5.25794246 278.55057852 -3.20703125 281.75 C-2.70703125 285.25 -2.70703125 285.25 -3.20703125 288.75 C-6.04740433 292.11044139 -9.42604849 294.34306871 -13.08203125 296.75 C-38.04452032 313.60030606 -60.2649553 337.97962009 -67.01953125 368.0625 C-70.85686453 389.55156639 -65.8244938 410.38074156 -54.20703125 428.75 C-40.3134361 448.16059447 -22.04004837 459.00193095 1.3984375 463.21875 C3.53673902 463.49124152 5.63980067 463.65691191 7.79296875 463.75 C8.52 463.78996094 9.24703125 463.82992187 9.99609375 463.87109375 C38.98871609 464.68711127 66.32499581 452.78771162 87.40625 433.24536133 C118.05789183 403.42200491 128.3664998 349.01973005 135.79296875 308.75 C136.03917969 307.48414063 136.28539062 306.21828125 136.5390625 304.9140625 C140.53698522 280.81623863 140.01809058 253.26171922 125.37890625 232.71484375 C115.36752085 220.31157563 99.23281807 218.36040156 84.23046875 216.625 C66.90887143 214.77994207 49.54213115 214.53805551 32.14257812 214.78808594 Z " fill="#000000" transform="translate(219.20703125,20.25)"/>
<path d="M0 0 C2.875 1.375 2.875 1.375 5 4 C6.31043371 11.920086 3.81872124 19.55451252 1.5625 27.0625 C1.20269043 28.28332275 0.84288086 29.50414551 0.47216797 30.76196289 C-21.47953029 103.98635353 -21.47953029 103.98635353 -47 121 C-50.78100075 121.49317401 -52.51615985 121.29030409 -55.8125 119.3125 C-58.27537482 116.70888948 -58.91327819 115.55559424 -59 112 C-57.55416182 107.07538752 -54.49226112 103.52935725 -51.375 99.5625 C-45.86357956 92.35715365 -41.15068646 85.08596804 -37 77 C-36.64873047 76.32195312 -36.29746094 75.64390625 -35.93554688 74.9453125 C-27.80470812 59.05647768 -21.42041464 42.34562445 -16.83203125 25.09765625 C-16.65558578 24.43711243 -16.47914032 23.7765686 -16.29734802 23.0960083 C-15.44122214 19.86820945 -14.61617086 16.63796961 -13.82592773 13.39306641 C-13.52759033 12.22565918 -13.22925293 11.05825195 -12.921875 9.85546875 C-12.67018555 8.82059326 -12.41849609 7.78571777 -12.15917969 6.71948242 C-9.80765615 1.20271311 -5.85015216 -0.97502536 0 0 Z " fill="#000000" transform="translate(334,331)"/>
<path d="M0 0 C2.76837984 1.59623604 4.82092844 3.6813083 7 6 C7.55300781 6.56847656 8.10601562 7.13695312 8.67578125 7.72265625 C24.44154194 24.79316955 34.16786238 45.59195938 34.1875 69 C34.19974609 69.76828125 34.21199219 70.5365625 34.22460938 71.328125 C34.23720565 76.26586541 33.70811055 80.3501435 32 85 C28.96471022 87.77512209 27.50121426 88.01728325 23.375 87.875 C20 87 20 87 18.125 85.9375 C15.26798456 81.01708453 16.02500106 74.98121411 16.1875 69.5 C16.28836954 50.65757002 7.9961215 35.04154314 -4 21 C-5.50092436 19.52118419 -7.01955138 18.05991452 -8.5625 16.625 C-11.2780041 14.01393837 -11.9841561 13.04919947 -13.1875 9.3125 C-12.97848561 5.61991248 -12.28528899 3.87777132 -10 1 C-6.72938845 -0.63530578 -3.52234823 -0.65963976 0 0 Z " fill="#000000" transform="translate(440,204)"/>
<path d="M0 0 C2.36497439 1.86708505 3.66030715 3.32061431 5 6 C4.92175042 20.16317449 4.92175042 20.16317449 1 25 C-2.3125 26.5625 -2.3125 26.5625 -6 27 C-11.52272727 24.95454545 -11.52272727 24.95454545 -13 22 C-14.01396005 6.46047266 -14.01396005 6.46047266 -9.3125 1.0625 C-5.99430832 -0.46207455 -3.60586981 -0.45073373 0 0 Z " fill="#000000" transform="translate(341,294)"/>
<path d="M0 0 C2.84578139 1.23729626 4.42813811 2.2981695 6.375 4.6875 C7.34005595 8.258207 7.02223285 11.45976713 6 15 C3.69594527 17.83575967 2.25413894 17.96705606 -1.375 18.4375 C-5.63875929 17.92290836 -7.69374447 16.69113822 -11 14 C-13.41801993 10.37297011 -13.20120778 8.99389921 -12.52734375 4.875 C-12 3 -12 3 -10.4375 1 C-6.94037589 -0.43471758 -3.68838147 -0.54262471 0 0 Z " fill="#000000" transform="translate(414,186)"/>
</svg>
